<?xml version="1.0" encoding="UTF-8" standalone="no"?>
<!DOCTYPE svg PUBLIC "-//W3C//DTD SVG 1.1//EN"
 "http://www.w3.org/Graphics/SVG/1.1/DTD/svg11.dtd">
<!-- Generated by graphviz version 12.2.1 (20241206.2353)
 -->
<!-- Title: AI Pages: 1 -->
<svg width="674pt" height="388pt"
 viewBox="0.00 0.00 674.38 388.00" xmlns="http://www.w3.org/2000/svg" xmlns:xlink="http://www.w3.org/1999/xlink">
<g id="graph0" class="graph" transform="scale(1 1) rotate(0) translate(4 384)">
<title>AI</title>
<polygon fill="white" stroke="none" points="-4,4 -4,-384 670.38,-384 670.38,4 -4,4"/>
<!-- ai -->
<g id="node1" class="node">
<title>ai</title>
<path fill="none" stroke="black" stroke-width="2" d="M264.5,-380C264.5,-380 171.25,-380 171.25,-380 165.25,-380 159.25,-374 159.25,-368 159.25,-368 159.25,-342 159.25,-342 159.25,-336 165.25,-330 171.25,-330 171.25,-330 264.5,-330 264.5,-330 270.5,-330 276.5,-336 276.5,-342 276.5,-342 276.5,-368 276.5,-368 276.5,-374 270.5,-380 264.5,-380"/>
<text text-anchor="middle" x="217.88" y="-357" font-family="Garmond" font-size="20.00">Artificial</text>
<text text-anchor="middle" x="217.88" y="-336" font-family="Garmond" font-size="20.00">Intelligence</text>
</g>
<!-- sym -->
<g id="node3" class="node">
<title>sym</title>
<path fill="none" stroke="black" stroke-width="2" d="M193.38,-294C193.38,-294 120.38,-294 120.38,-294 114.38,-294 108.38,-288 108.38,-282 108.38,-282 108.38,-270 108.38,-270 108.38,-264 114.38,-258 120.38,-258 120.38,-258 193.38,-258 193.38,-258 199.38,-258 205.38,-264 205.38,-270 205.38,-270 205.38,-282 205.38,-282 205.38,-288 199.38,-294 193.38,-294"/>
<text text-anchor="middle" x="156.88" y="-267.5" font-family="Garmond" font-size="20.00">Symbolic</text>
</g>
<!-- ai&#45;&gt;sym -->
<g id="edge1" class="edge">
<title>ai&#45;&gt;sym</title>
<path fill="none" stroke="black" stroke-width="2" d="M198.24,-329.21C189.32,-317.96 178.98,-304.9 170.87,-294.67"/>
</g>
<!-- learn -->
<g id="node4" class="node">
<title>learn</title>
<path fill="none" stroke="black" stroke-width="2" d="M387.25,-294C387.25,-294 316.5,-294 316.5,-294 310.5,-294 304.5,-288 304.5,-282 304.5,-282 304.5,-270 304.5,-270 304.5,-264 310.5,-258 316.5,-258 316.5,-258 387.25,-258 387.25,-258 393.25,-258 399.25,-264 399.25,-270 399.25,-270 399.25,-282 399.25,-282 399.25,-288 393.25,-294 387.25,-294"/>
<text text-anchor="middle" x="351.88" y="-267.5" font-family="Garmond" font-size="20.00">Learning</text>
</g>
<!-- ai&#45;&gt;learn -->
<g id="edge2" class="edge">
<title>ai&#45;&gt;learn</title>
<path fill="none" stroke="black" stroke-width="2" d="M261.38,-329C280.79,-317.85 303.21,-304.96 320.88,-294.81"/>
</g>
<!-- inv -->
<!-- exp -->
<g id="node8" class="node">
<title>exp</title>
<path fill="none" stroke="black" stroke-width="2" d="M79.75,-222C79.75,-222 12,-222 12,-222 6,-222 0,-216 0,-210 0,-210 0,-184 0,-184 0,-178 6,-172 12,-172 12,-172 79.75,-172 79.75,-172 85.75,-172 91.75,-178 91.75,-184 91.75,-184 91.75,-210 91.75,-210 91.75,-216 85.75,-222 79.75,-222"/>
<text text-anchor="middle" x="45.88" y="-199" font-family="Garmond" font-size="20.00">Expert</text>
<text text-anchor="middle" x="45.88" y="-178" font-family="Garmond" font-size="20.00">Systems</text>
</g>
<!-- sym&#45;&gt;exp -->
<g id="edge3" class="edge">
<title>sym&#45;&gt;exp</title>
<path fill="none" stroke="black" stroke-width="2" d="M131.13,-257.14C116.4,-246.92 97.7,-233.95 81.57,-222.76"/>
</g>
<!-- agent -->
<g id="node9" class="node">
<title>agent</title>
<path fill="none" stroke="black" stroke-width="2" d="M191.5,-222C191.5,-222 122.25,-222 122.25,-222 116.25,-222 110.25,-216 110.25,-210 110.25,-210 110.25,-184 110.25,-184 110.25,-178 116.25,-172 122.25,-172 122.25,-172 191.5,-172 191.5,-172 197.5,-172 203.5,-178 203.5,-184 203.5,-184 203.5,-210 203.5,-210 203.5,-216 197.5,-222 191.5,-222"/>
<text text-anchor="middle" x="156.88" y="-199" font-family="Garmond" font-size="20.00">Reactive</text>
<text text-anchor="middle" x="156.88" y="-178" font-family="Garmond" font-size="20.00">Agents</text>
</g>
<!-- sym&#45;&gt;agent -->
<g id="edge4" class="edge">
<title>sym&#45;&gt;agent</title>
<path fill="none" stroke="black" stroke-width="2" d="M156.88,-257.14C156.88,-246.92 156.88,-233.95 156.88,-222.76"/>
</g>
<!-- sup -->
<g id="node5" class="node">
<title>sup</title>
<path fill="#f8cecc" stroke="black" stroke-width="2" d="M326.12,-215C326.12,-215 233.62,-215 233.62,-215 227.62,-215 221.62,-209 221.62,-203 221.62,-203 221.62,-191 221.62,-191 221.62,-185 227.62,-179 233.62,-179 233.62,-179 326.12,-179 326.12,-179 332.12,-179 338.12,-185 338.12,-191 338.12,-191 338.12,-203 338.12,-203 338.12,-209 332.12,-215 326.12,-215"/>
<text text-anchor="middle" x="279.88" y="-188.5" font-family="Garmond" font-size="20.00">Supervised</text>
</g>
<!-- learn&#45;&gt;sup -->
<g id="edge5" class="edge">
<title>learn&#45;&gt;sup</title>
<path fill="none" stroke="black" stroke-width="2" d="M335.18,-257.14C323.54,-244.7 308.1,-228.18 296.48,-215.76"/>
</g>
<!-- unsup -->
<g id="node6" class="node">
<title>unsup</title>
<path fill="none" stroke="black" stroke-width="2" d="M482,-215C482,-215 367.75,-215 367.75,-215 361.75,-215 355.75,-209 355.75,-203 355.75,-203 355.75,-191 355.75,-191 355.75,-185 361.75,-179 367.75,-179 367.75,-179 482,-179 482,-179 488,-179 494,-185 494,-191 494,-191 494,-203 494,-203 494,-209 488,-215 482,-215"/>
<text text-anchor="middle" x="424.88" y="-188.5" font-family="Garmond" font-size="20.00">Unsupervised</text>
</g>
<!-- learn&#45;&gt;unsup -->
<g id="edge6" class="edge">
<title>learn&#45;&gt;unsup</title>
<path fill="none" stroke="black" stroke-width="2" d="M368.81,-257.14C380.6,-244.7 396.26,-228.18 408.04,-215.76"/>
</g>
<!-- rein -->
<g id="node7" class="node">
<title>rein</title>
<path fill="none" stroke="black" stroke-width="2" d="M645.75,-215C645.75,-215 524,-215 524,-215 518,-215 512,-209 512,-203 512,-203 512,-191 512,-191 512,-185 518,-179 524,-179 524,-179 645.75,-179 645.75,-179 651.75,-179 657.75,-185 657.75,-191 657.75,-191 657.75,-203 657.75,-203 657.75,-209 651.75,-215 645.75,-215"/>
<text text-anchor="middle" x="584.88" y="-188.5" font-family="Garmond" font-size="20.00">Reinforcement</text>
</g>
<!-- learn&#45;&gt;rein -->
<g id="edge7" class="edge">
<title>learn&#45;&gt;rein</title>
<path fill="none" stroke="black" stroke-width="2" d="M400.15,-259.05C438.14,-246.49 491.07,-229 530.54,-215.96"/>
</g>
<!-- nn -->
<g id="node10" class="node">
<title>nn</title>
<path fill="#f8cecc" stroke="black" stroke-width="2" d="M176.25,-136C176.25,-136 111.5,-136 111.5,-136 105.5,-136 99.5,-130 99.5,-124 99.5,-124 99.5,-98 99.5,-98 99.5,-92 105.5,-86 111.5,-86 111.5,-86 176.25,-86 176.25,-86 182.25,-86 188.25,-92 188.25,-98 188.25,-98 188.25,-124 188.25,-124 188.25,-130 182.25,-136 176.25,-136"/>
<text text-anchor="middle" x="143.88" y="-113" font-family="Garmond" font-size="20.00">Neural</text>
<text text-anchor="middle" x="143.88" y="-92" font-family="Garmond" font-size="20.00">Network</text>
</g>
<!-- sup&#45;&gt;nn -->
<g id="edge8" class="edge">
<title>sup&#45;&gt;nn</title>
<path fill="none" stroke="black" stroke-width="2" d="M251.03,-178.19C231.62,-166.19 205.74,-150.21 184.28,-136.96"/>
</g>
<!-- svm -->
<g id="node11" class="node">
<title>svm</title>
<path fill="#f8cecc" stroke="black" stroke-width="2" d="M341.88,-136C341.88,-136 217.88,-136 217.88,-136 211.88,-136 205.88,-130 205.88,-124 205.88,-124 205.88,-98 205.88,-98 205.88,-92 211.88,-86 217.88,-86 217.88,-86 341.88,-86 341.88,-86 347.88,-86 353.88,-92 353.88,-98 353.88,-98 353.88,-124 353.88,-124 353.88,-130 347.88,-136 341.88,-136"/>
<text text-anchor="middle" x="279.88" y="-113" font-family="Garmond" font-size="20.00">Support Vector</text>
<text text-anchor="middle" x="279.88" y="-92" font-family="Garmond" font-size="20.00">Machines</text>
</g>
<!-- sup&#45;&gt;svm -->
<g id="edge9" class="edge">
<title>sup&#45;&gt;svm</title>
<path fill="none" stroke="black" stroke-width="2" d="M279.88,-178.19C279.88,-166.15 279.88,-150.08 279.88,-136.8"/>
</g>
<!-- km -->
<g id="node12" class="node">
<title>km</title>
<path fill="none" stroke="black" stroke-width="2" d="M465.88,-136C465.88,-136 383.88,-136 383.88,-136 377.88,-136 371.88,-130 371.88,-124 371.88,-124 371.88,-98 371.88,-98 371.88,-92 377.88,-86 383.88,-86 383.88,-86 465.88,-86 465.88,-86 471.88,-86 477.88,-92 477.88,-98 477.88,-98 477.88,-124 477.88,-124 477.88,-130 471.88,-136 465.88,-136"/>
<text text-anchor="middle" x="424.88" y="-113" font-family="Garmond" font-size="20.00">K&#45;means</text>
<text text-anchor="middle" x="424.88" y="-92" font-family="Garmond" font-size="20.00">Clustering</text>
</g>
<!-- unsup&#45;&gt;km -->
<g id="edge10" class="edge">
<title>unsup&#45;&gt;km</title>
<path fill="none" stroke="black" stroke-width="2" d="M424.88,-178.19C424.88,-166.15 424.88,-150.08 424.88,-136.8"/>
</g>
<!-- mdp -->
<g id="node13" class="node">
<title>mdp</title>
<path fill="none" stroke="black" stroke-width="2" d="M654.38,-136C654.38,-136 515.38,-136 515.38,-136 509.38,-136 503.38,-130 503.38,-124 503.38,-124 503.38,-98 503.38,-98 503.38,-92 509.38,-86 515.38,-86 515.38,-86 654.38,-86 654.38,-86 660.38,-86 666.38,-92 666.38,-98 666.38,-98 666.38,-124 666.38,-124 666.38,-130 660.38,-136 654.38,-136"/>
<text text-anchor="middle" x="584.88" y="-113" font-family="Garmond" font-size="20.00">Markov Decision</text>
<text text-anchor="middle" x="584.88" y="-92" font-family="Garmond" font-size="20.00">Process</text>
</g>
<!-- rein&#45;&gt;mdp -->
<g id="edge11" class="edge">
<title>rein&#45;&gt;mdp</title>
<path fill="none" stroke="black" stroke-width="2" d="M584.88,-178.19C584.88,-166.15 584.88,-150.08 584.88,-136.8"/>
</g>
<!-- cnn -->
<g id="node14" class="node">
<title>cnn</title>
<path fill="#f8cecc" stroke="black" stroke-width="2" d="M114.25,-43C114.25,-43 79.5,-43 79.5,-43 73.5,-43 67.5,-37 67.5,-31 67.5,-31 67.5,-19 67.5,-19 67.5,-13 73.5,-7 79.5,-7 79.5,-7 114.25,-7 114.25,-7 120.25,-7 126.25,-13 126.25,-19 126.25,-19 126.25,-31 126.25,-31 126.25,-37 120.25,-43 114.25,-43"/>
<text text-anchor="middle" x="96.88" y="-16.5" font-family="Garmond" font-size="20.00">CNN</text>
</g>
<!-- nn&#45;&gt;cnn -->
<g id="edge12" class="edge">
<title>nn&#45;&gt;cnn</title>
<path fill="none" stroke="black" stroke-width="2" d="M130.03,-85.25C122.61,-71.99 113.64,-55.95 106.9,-43.91"/>
</g>
<!-- dl -->
<g id="node15" class="node">
<title>dl</title>
<path fill="#f8cecc" stroke="black" stroke-width="2" d="M227.25,-50C227.25,-50 156.5,-50 156.5,-50 150.5,-50 144.5,-44 144.5,-38 144.5,-38 144.5,-12 144.5,-12 144.5,-6 150.5,0 156.5,0 156.5,0 227.25,0 227.25,0 233.25,0 239.25,-6 239.25,-12 239.25,-12 239.25,-38 239.25,-38 239.25,-44 233.25,-50 227.25,-50"/>
<text text-anchor="middle" x="191.88" y="-27" font-family="Garmond" font-size="20.00">Deep</text>
<text text-anchor="middle" x="191.88" y="-6" font-family="Garmond" font-size="20.00">Learning</text>
</g>
<!-- nn&#45;&gt;dl -->
<g id="edge13" class="edge">
<title>nn&#45;&gt;dl</title>
<path fill="none" stroke="black" stroke-width="2" d="M158.02,-85.25C164.21,-74.41 171.47,-61.72 177.67,-50.86"/>
</g>
</g>
</svg>
