<?xml version="1.0" encoding="UTF-8" standalone="no"?>
<!DOCTYPE svg PUBLIC "-//W3C//DTD SVG 1.1//EN"
 "http://www.w3.org/Graphics/SVG/1.1/DTD/svg11.dtd">
<!-- Generated by graphviz version 12.2.1 (20241206.2353)
 -->
<!-- Title: AI Pages: 1 -->
<svg width="751pt" height="216pt"
 viewBox="0.00 0.00 750.50 216.00" xmlns="http://www.w3.org/2000/svg" xmlns:xlink="http://www.w3.org/1999/xlink">
<g id="graph0" class="graph" transform="scale(1 1) rotate(0) translate(4 212)">
<title>AI</title>
<polygon fill="white" stroke="none" points="-4,4 -4,-212 746.5,-212 746.5,4 -4,4"/>
<!-- ai -->
<g id="node1" class="node">
<title>ai</title>
<path fill="none" stroke="black" stroke-width="2" d="M402.25,-208C402.25,-208 309,-208 309,-208 303,-208 297,-202 297,-196 297,-196 297,-170 297,-170 297,-164 303,-158 309,-158 309,-158 402.25,-158 402.25,-158 408.25,-158 414.25,-164 414.25,-170 414.25,-170 414.25,-196 414.25,-196 414.25,-202 408.25,-208 402.25,-208"/>
<text text-anchor="middle" x="355.62" y="-185" font-family="Garmond" font-size="20.00">Artificial</text>
<text text-anchor="middle" x="355.62" y="-164" font-family="Garmond" font-size="20.00">Intelligence</text>
</g>
<!-- weak -->
<g id="node4" class="node">
<title>weak</title>
<path fill="#f8cecc" stroke="black" stroke-width="2" d="M225.62,-122C225.62,-122 155.62,-122 155.62,-122 149.62,-122 143.62,-116 143.62,-110 143.62,-110 143.62,-84 143.62,-84 143.62,-78 149.62,-72 155.62,-72 155.62,-72 225.62,-72 225.62,-72 231.62,-72 237.62,-78 237.62,-84 237.62,-84 237.62,-110 237.62,-110 237.62,-116 231.62,-122 225.62,-122"/>
<text text-anchor="middle" x="190.62" y="-99" font-family="Garmond" font-size="20.00">Weak AI</text>
<text text-anchor="middle" x="190.62" y="-78" font-family="Garmond" font-size="20.00">(Narrow)</text>
</g>
<!-- ai&#45;&gt;weak -->
<g id="edge3" class="edge">
<title>ai&#45;&gt;weak</title>
<path fill="none" stroke="black" stroke-width="2" d="M306.57,-157.02C285,-146.05 259.77,-133.2 238.36,-122.3"/>
</g>
<!-- strong -->
<g id="node5" class="node">
<title>strong</title>
<path fill="none" stroke="black" stroke-width="2" d="M394.38,-122C394.38,-122 316.88,-122 316.88,-122 310.88,-122 304.88,-116 304.88,-110 304.88,-110 304.88,-84 304.88,-84 304.88,-78 310.88,-72 316.88,-72 316.88,-72 394.38,-72 394.38,-72 400.38,-72 406.38,-78 406.38,-84 406.38,-84 406.38,-110 406.38,-110 406.38,-116 400.38,-122 394.38,-122"/>
<text text-anchor="middle" x="355.62" y="-99" font-family="Garmond" font-size="20.00">Strong AI</text>
<text text-anchor="middle" x="355.62" y="-78" font-family="Garmond" font-size="20.00">(General)</text>
</g>
<!-- ai&#45;&gt;strong -->
<g id="edge4" class="edge">
<title>ai&#45;&gt;strong</title>
<path fill="none" stroke="black" stroke-width="2" d="M355.62,-157.25C355.62,-146.41 355.62,-133.72 355.62,-122.86"/>
</g>
<!-- super -->
<g id="node6" class="node">
<title>super</title>
<path fill="none" stroke="black" stroke-width="2" d="M596.62,-122C596.62,-122 436.62,-122 436.62,-122 430.62,-122 424.62,-116 424.62,-110 424.62,-110 424.62,-84 424.62,-84 424.62,-78 430.62,-72 436.62,-72 436.62,-72 596.62,-72 596.62,-72 602.62,-72 608.62,-78 608.62,-84 608.62,-84 608.62,-110 608.62,-110 608.62,-116 602.62,-122 596.62,-122"/>
<text text-anchor="middle" x="516.62" y="-99" font-family="Garmond" font-size="20.00">Super AI</text>
<text text-anchor="middle" x="516.62" y="-78" font-family="Garmond" font-size="20.00">(Superintelligence)</text>
</g>
<!-- ai&#45;&gt;super -->
<g id="edge5" class="edge">
<title>ai&#45;&gt;super</title>
<path fill="none" stroke="black" stroke-width="2" d="M403.49,-157.02C424.16,-146.24 448.29,-133.65 468.94,-122.88"/>
</g>
<!-- inv -->
<!-- cap -->
<g id="node3" class="node">
<title>cap</title>
<text text-anchor="middle" x="678.62" y="-88.5" font-family="Garmond" font-size="20.00">Capability</text>
</g>
<!-- inv&#45;&gt;cap -->
<!-- func -->
<g id="node7" class="node">
<title>func</title>
<text text-anchor="middle" x="678.62" y="-9.5" font-family="Garmond" font-size="20.00">Functionality</text>
</g>
<!-- cap&#45;&gt;func -->
<!-- reactive -->
<g id="node8" class="node">
<title>reactive</title>
<path fill="#f8cecc" stroke="black" stroke-width="2" d="M81.25,-36C81.25,-36 12,-36 12,-36 6,-36 0,-30 0,-24 0,-24 0,-12 0,-12 0,-6 6,0 12,0 12,0 81.25,0 81.25,0 87.25,0 93.25,-6 93.25,-12 93.25,-12 93.25,-24 93.25,-24 93.25,-30 87.25,-36 81.25,-36"/>
<text text-anchor="middle" x="46.62" y="-9.5" font-family="Garmond" font-size="20.00">Reactive</text>
</g>
<!-- weak&#45;&gt;reactive -->
<g id="edge6" class="edge">
<title>weak&#45;&gt;reactive</title>
<path fill="none" stroke="black" stroke-width="2" d="M143.87,-71C123.01,-59.85 98.92,-46.96 79.93,-36.81"/>
</g>
<!-- lm -->
<g id="node9" class="node">
<title>lm</title>
<path fill="#f8cecc" stroke="black" stroke-width="2" d="M257.5,-36C257.5,-36 123.75,-36 123.75,-36 117.75,-36 111.75,-30 111.75,-24 111.75,-24 111.75,-12 111.75,-12 111.75,-6 117.75,0 123.75,0 123.75,0 257.5,0 257.5,0 263.5,0 269.5,-6 269.5,-12 269.5,-12 269.5,-24 269.5,-24 269.5,-30 263.5,-36 257.5,-36"/>
<text text-anchor="middle" x="190.62" y="-9.5" font-family="Garmond" font-size="20.00">Limited Memory</text>
</g>
<!-- weak&#45;&gt;lm -->
<g id="edge7" class="edge">
<title>weak&#45;&gt;lm</title>
<path fill="none" stroke="black" stroke-width="2" d="M190.62,-71.21C190.62,-59.96 190.62,-46.9 190.62,-36.67"/>
</g>
<!-- tm -->
<g id="node10" class="node">
<title>tm</title>
<path fill="none" stroke="black" stroke-width="2" d="M424,-36C424,-36 299.25,-36 299.25,-36 293.25,-36 287.25,-30 287.25,-24 287.25,-24 287.25,-12 287.25,-12 287.25,-6 293.25,0 299.25,0 299.25,0 424,0 424,0 430,0 436,-6 436,-12 436,-12 436,-24 436,-24 436,-30 430,-36 424,-36"/>
<text text-anchor="middle" x="361.62" y="-9.5" font-family="Garmond" font-size="20.00">Theory of Mind</text>
</g>
<!-- strong&#45;&gt;tm -->
<g id="edge8" class="edge">
<title>strong&#45;&gt;tm</title>
<path fill="none" stroke="black" stroke-width="2" d="M357.56,-71.21C358.43,-59.96 359.45,-46.9 360.25,-36.67"/>
</g>
<!-- sa -->
<g id="node11" class="node">
<title>sa</title>
<path fill="none" stroke="black" stroke-width="2" d="M561.75,-36C561.75,-36 471.5,-36 471.5,-36 465.5,-36 459.5,-30 459.5,-24 459.5,-24 459.5,-12 459.5,-12 459.5,-6 465.5,0 471.5,0 471.5,0 561.75,0 561.75,0 567.75,0 573.75,-6 573.75,-12 573.75,-12 573.75,-24 573.75,-24 573.75,-30 567.75,-36 561.75,-36"/>
<text text-anchor="middle" x="516.62" y="-9.5" font-family="Garmond" font-size="20.00">Self&#45;Aware</text>
</g>
<!-- super&#45;&gt;sa -->
<g id="edge9" class="edge">
<title>super&#45;&gt;sa</title>
<path fill="none" stroke="black" stroke-width="2" d="M516.62,-71.21C516.62,-59.96 516.62,-46.9 516.62,-36.67"/>
</g>
</g>
</svg>
