<?xml version="1.0" encoding="UTF-8" standalone="no"?>
<!DOCTYPE svg PUBLIC "-//W3C//DTD SVG 1.1//EN"
 "http://www.w3.org/Graphics/SVG/1.1/DTD/svg11.dtd">
<!-- Generated by graphviz version 12.2.1 (20241206.2353)
 -->
<!-- Title: D Pages: 1 -->
<svg width="333pt" height="100pt"
 viewBox="0.00 0.00 332.76 99.92" xmlns="http://www.w3.org/2000/svg" xmlns:xlink="http://www.w3.org/1999/xlink">
<g id="graph0" class="graph" transform="scale(1 1) rotate(0) translate(4 95.92)">
<title>D</title>
<polygon fill="white" stroke="none" points="-4,4 -4,-95.92 328.76,-95.92 328.76,4 -4,4"/>
<!-- input -->
<g id="node1" class="node">
<title>input</title>
<ellipse fill="#dae8fc" stroke="black" stroke-width="2" cx="82.38" cy="-45.96" rx="82.38" ry="45.96"/>
<text text-anchor="middle" x="82.38" y="-47.86" font-family="Garmond" font-size="28.00">Training</text>
<text text-anchor="middle" x="82.38" y="-19.36" font-family="Garmond" font-size="28.00">Data</text>
</g>
<!-- ti -->
<g id="node2" class="node">
<title>ti</title>
<path fill="#f8cecc" stroke="black" stroke-width="2" d="M324.76,-82.52C324.76,-87.01 296.97,-90.65 262.76,-90.65 228.55,-90.65 200.76,-87.01 200.76,-82.52 200.76,-82.52 200.76,-9.4 200.76,-9.4 200.76,-4.92 228.55,-1.27 262.76,-1.27 296.97,-1.27 324.76,-4.92 324.76,-9.4 324.76,-9.4 324.76,-82.52 324.76,-82.52"/>
<path fill="none" stroke="black" stroke-width="2" d="M324.76,-82.52C324.76,-78.04 296.97,-74.4 262.76,-74.4 228.55,-74.4 200.76,-78.04 200.76,-82.52"/>
<text text-anchor="middle" x="262.76" y="-47.86" font-family="Garmond" font-size="28.00"> Training</text>
<text text-anchor="middle" x="262.76" y="-19.36" font-family="Garmond" font-size="28.00">Index &#160;</text>
</g>
<!-- input&#45;&gt;ti -->
<g id="edge1" class="edge">
<title>input&#45;&gt;ti</title>
<path fill="none" stroke="black" stroke-width="2" d="M165.52,-45.96C172.63,-45.96 179.8,-45.96 186.85,-45.96"/>
<polygon fill="black" stroke="black" stroke-width="2" points="186.75,-49.46 196.75,-45.96 186.75,-42.46 186.75,-49.46"/>
</g>
</g>
</svg>
