<?xml version="1.0" encoding="UTF-8" standalone="no"?>
<!DOCTYPE svg PUBLIC "-//W3C//DTD SVG 1.1//EN"
 "http://www.w3.org/Graphics/SVG/1.1/DTD/svg11.dtd">
<!-- Generated by graphviz version 12.2.1 (20241206.2353)
 -->
<!-- Title: D Pages: 1 -->
<svg width="568pt" height="180pt"
 viewBox="0.00 0.00 567.98 180.19" xmlns="http://www.w3.org/2000/svg" xmlns:xlink="http://www.w3.org/1999/xlink">
<g id="graph0" class="graph" transform="scale(1 1) rotate(0) translate(4 176.19)">
<title>D</title>
<polygon fill="white" stroke="none" points="-4,4 -4,-176.19 563.98,-176.19 563.98,4 -4,4"/>
<!-- ti -->
<g id="node1" class="node">
<title>ti</title>
<path fill="#f8cecc" stroke="black" stroke-width="2" d="M549.85,-164.06C549.85,-168.55 522.06,-172.19 487.85,-172.19 453.64,-172.19 425.85,-168.55 425.85,-164.06 425.85,-164.06 425.85,-90.94 425.85,-90.94 425.85,-86.45 453.64,-82.81 487.85,-82.81 522.06,-82.81 549.85,-86.45 549.85,-90.94 549.85,-90.94 549.85,-164.06 549.85,-164.06"/>
<path fill="none" stroke="black" stroke-width="2" d="M549.85,-164.06C549.85,-159.58 522.06,-155.94 487.85,-155.94 453.64,-155.94 425.85,-159.58 425.85,-164.06"/>
<text text-anchor="middle" x="487.85" y="-129.4" font-family="Garmond" font-size="28.00"> Training</text>
<text text-anchor="middle" x="487.85" y="-100.9" font-family="Garmond" font-size="28.00">Index &#160;</text>
</g>
<!-- qr -->
<g id="node2" class="node">
<title>qr</title>
<polygon fill="#e1d5e7" stroke="black" stroke-width="2" points="379.73,-112 252.73,-112 252.73,-47 379.73,-47 379.73,-112"/>
<text text-anchor="middle" x="316.23" y="-81.4" font-family="Garmond" font-size="28.00"> Query</text>
<text text-anchor="middle" x="316.23" y="-52.9" font-family="Garmond" font-size="28.00">Scheme </text>
</g>
<!-- qr&#45;&gt;ti -->
<g id="edge1" class="edge">
<title>qr&#45;&gt;ti</title>
<path fill="none" stroke="black" stroke-width="2" d="M392.88,-100.91C399.44,-102.76 406.07,-104.64 412.61,-106.49"/>
<polygon fill="black" stroke="black" stroke-width="2" points="393.88,-97.55 383.3,-98.2 391.97,-104.29 393.88,-97.55"/>
<polygon fill="black" stroke="black" stroke-width="2" points="411.56,-109.83 422.14,-109.19 413.47,-103.1 411.56,-109.83"/>
</g>
<!-- knn -->
<g id="node4" class="node">
<title>knn</title>
<text text-anchor="middle" x="487.85" y="-34.4" font-family="Garmond" font-size="28.00">K</text>
<text text-anchor="middle" x="487.85" y="-5.9" font-family="Garmond" font-size="28.00">Neighbors</text>
</g>
<!-- qr&#45;&gt;knn -->
<g id="edge3" class="edge">
<title>qr&#45;&gt;knn</title>
<path fill="none" stroke="black" stroke-width="2" d="M380.39,-62C387.9,-59.92 395.66,-57.77 403.4,-55.62"/>
<polygon fill="black" stroke="black" stroke-width="2" points="404.31,-59 413.02,-52.96 402.45,-52.26 404.31,-59"/>
</g>
<!-- ai -->
<g id="node3" class="node">
<title>ai</title>
<ellipse fill="#ccff99" stroke="black" stroke-width="2" cx="108.36" cy="-79.5" rx="108.36" ry="45.96"/>
<text text-anchor="middle" x="108.36" y="-81.4" font-family="Garmond" font-size="28.00">Application</text>
<text text-anchor="middle" x="108.36" y="-52.9" font-family="Garmond" font-size="28.00">Input</text>
</g>
<!-- ai&#45;&gt;qr -->
<g id="edge2" class="edge">
<title>ai&#45;&gt;qr</title>
<path fill="none" stroke="black" stroke-width="2" d="M217.72,-79.5C224.96,-79.5 232.15,-79.5 239.17,-79.5"/>
<polygon fill="black" stroke="black" stroke-width="2" points="238.96,-83 248.96,-79.5 238.96,-76 238.96,-83"/>
</g>
</g>
</svg>
