<?xml version="1.0" encoding="UTF-8" standalone="no"?>
<!DOCTYPE svg PUBLIC "-//W3C//DTD SVG 1.1//EN"
 "http://www.w3.org/Graphics/SVG/1.1/DTD/svg11.dtd">
<!-- Generated by graphviz version 12.2.1 (20241206.2353)
 -->
<!-- Title: D Pages: 1 -->
<svg width="621pt" height="211pt"
 viewBox="0.00 0.00 620.75 210.75" xmlns="http://www.w3.org/2000/svg" xmlns:xlink="http://www.w3.org/1999/xlink">
<g id="graph0" class="graph" transform="scale(1 1) rotate(0) translate(4 206.75)">
<title>D</title>
<polygon fill="white" stroke="none" points="-4,4 -4,-206.75 616.75,-206.75 616.75,4 -4,4"/>
<!-- knn -->
<g id="node1" class="node">
<title>knn</title>
<text text-anchor="middle" x="76.62" y="-172.15" font-family="Garmond" font-size="28.00">K</text>
<text text-anchor="middle" x="76.62" y="-143.65" font-family="Garmond" font-size="28.00">Neighbors</text>
</g>
<!-- exp -->
<g id="node4" class="node">
<title>exp</title>
<polygon fill="#dae8fc" stroke="black" stroke-width="2" points="352.25,-168.75 189.25,-168.75 189.25,-5.75 352.25,-5.75 352.25,-168.75"/>
<text text-anchor="middle" x="270.75" y="-89.15" font-family="Garmond" font-size="28.00">Explanation</text>
<text text-anchor="middle" x="270.75" y="-60.65" font-family="Garmond" font-size="28.00">Routine</text>
</g>
<!-- knn&#45;&gt;exp -->
<g id="edge3" class="edge">
<title>knn&#45;&gt;exp</title>
<path fill="none" stroke="black" stroke-width="2" d="M148.62,-139.58C157.71,-135.65 167.13,-131.58 176.51,-127.53"/>
<polygon fill="black" stroke="black" stroke-width="2" points="177.78,-130.8 185.57,-123.62 175,-124.37 177.78,-130.8"/>
</g>
<!-- ai -->
<g id="node2" class="node">
<title>ai</title>
<text text-anchor="middle" x="76.62" y="-89.15" font-family="Garmond" font-size="28.00">Application</text>
<text text-anchor="middle" x="76.62" y="-60.65" font-family="Garmond" font-size="28.00">Input</text>
</g>
<!-- ai&#45;&gt;exp -->
<g id="edge2" class="edge">
<title>ai&#45;&gt;exp</title>
<path fill="none" stroke="black" stroke-width="2" d="M153.01,-87.25C160.48,-87.25 168.13,-87.25 175.77,-87.25"/>
<polygon fill="black" stroke="black" stroke-width="2" points="175.54,-90.75 185.54,-87.25 175.54,-83.75 175.54,-90.75"/>
</g>
<!-- dec -->
<g id="node3" class="node">
<title>dec</title>
<text text-anchor="middle" x="76.62" y="-5.9" font-family="Garmond" font-size="28.00">Decision</text>
</g>
<!-- dec&#45;&gt;exp -->
<g id="edge1" class="edge">
<title>dec&#45;&gt;exp</title>
<path fill="none" stroke="black" stroke-width="2" d="M128.35,-36.47C143.21,-41.8 159.93,-47.81 176.54,-53.78"/>
<polygon fill="black" stroke="black" stroke-width="2" points="175.15,-56.99 185.74,-57.08 177.51,-50.4 175.15,-56.99"/>
</g>
<!-- out -->
<g id="node5" class="node">
<title>out</title>
<text text-anchor="middle" x="500.5" y="-103.4" font-family="Garmond" font-size="28.00">Decision</text>
<text text-anchor="middle" x="500.5" y="-74.9" font-family="Garmond" font-size="28.00">Correspondence</text>
<text text-anchor="middle" x="500.5" y="-46.4" font-family="Garmond" font-size="28.00">NeighborData</text>
</g>
<!-- exp&#45;&gt;out -->
<g id="edge4" class="edge">
<title>exp&#45;&gt;out</title>
<path fill="none" stroke="black" stroke-width="2" d="M353.01,-87.25C360.37,-87.25 367.94,-87.25 375.56,-87.25"/>
<polygon fill="black" stroke="black" stroke-width="2" points="375.4,-90.75 385.4,-87.25 375.4,-83.75 375.4,-90.75"/>
</g>
</g>
</svg>
