<?xml version="1.0" encoding="UTF-8" standalone="no"?>
<!DOCTYPE svg PUBLIC "-//W3C//DTD SVG 1.1//EN"
 "http://www.w3.org/Graphics/SVG/1.1/DTD/svg11.dtd">
<!-- Generated by graphviz version 12.2.1 (20241206.2353)
 -->
<!-- Title: D Pages: 1 -->
<svg width="668pt" height="720pt"
 viewBox="0.00 0.00 668.22 720.00" xmlns="http://www.w3.org/2000/svg" xmlns:xlink="http://www.w3.org/1999/xlink">
<g id="graph0" class="graph" transform="scale(1 1) rotate(0) translate(4 716)">
<title>D</title>
<polygon fill="white" stroke="none" points="-4,4 -4,-716 664.22,-716 664.22,4 -4,4"/>
<!-- meth -->
<g id="node1" class="node">
<title>meth</title>
<ellipse fill="#dae8fc" stroke="black" stroke-width="1.5" cx="66.47" cy="-396" rx="66.47" ry="26.87"/>
<text text-anchor="middle" x="66.47" y="-397.7" font-family="Garmond" font-size="14.00">XAI</text>
<text text-anchor="middle" x="66.47" y="-382.7" font-family="Garmond" font-size="14.00">Methodology</text>
</g>
<!-- exp_meth01 -->
<g id="node2" class="node">
<title>exp_meth01</title>
<polygon fill="#d5e8d4" stroke="black" stroke-width="1.5" points="356.11,-335 189.73,-335 146.94,-299 313.31,-299 356.11,-335"/>
<text text-anchor="middle" x="251.52" y="-311.2" font-family="Garmond" font-size="14.00">Property&#45;Based</text>
</g>
<!-- meth&#45;&gt;exp_meth01 -->
<g id="edge1" class="edge">
<title>meth&#45;&gt;exp_meth01</title>
<path fill="none" stroke="black" stroke-width="1.5" d="M112.72,-376.47C138.1,-365.52 169.93,-351.78 196.6,-340.27"/>
<polygon fill="black" stroke="black" stroke-width="1.5" points="197.8,-343.56 205.59,-336.39 195.03,-337.14 197.8,-343.56"/>
</g>
<!-- exp_meth02 -->
<g id="node3" class="node">
<title>exp_meth02</title>
<polygon fill="#d5e8d4" stroke="black" stroke-width="1.5" points="337.52,-538 200.71,-538 165.52,-502 302.33,-502 337.52,-538"/>
<text text-anchor="middle" x="251.52" y="-514.2" font-family="Garmond" font-size="14.00">Case&#45;Based</text>
</g>
<!-- meth&#45;&gt;exp_meth02 -->
<g id="edge2" class="edge">
<title>meth&#45;&gt;exp_meth02</title>
<path fill="none" stroke="black" stroke-width="1.5" d="M101.47,-419.03C133.19,-440.52 180.41,-472.51 213.17,-494.7"/>
<polygon fill="black" stroke="black" stroke-width="1.5" points="211.14,-497.55 221.38,-500.26 215.07,-491.75 211.14,-497.55"/>
</g>
<!-- exp_rout -->
<g id="node4" class="node">
<title>exp_rout</title>
<polygon fill="lightgrey" stroke="black" stroke-width="1.5" points="466.98,-397 381.23,-397 381.23,-359 466.98,-359 466.98,-397"/>
<text text-anchor="middle" x="424.11" y="-379.7" font-family="Garmond" font-size="14.00">Explainable</text>
<text text-anchor="middle" x="424.11" y="-364.7" font-family="Garmond" font-size="14.00">Processing</text>
</g>
<!-- exp_meth01&#45;&gt;exp_rout -->
<g id="edge5" class="edge">
<title>exp_meth01&#45;&gt;exp_rout</title>
<path fill="none" stroke="black" stroke-width="1.5" d="M304.17,-335.47C324.75,-342.83 348.46,-351.31 369.26,-358.75"/>
<polygon fill="black" stroke="black" stroke-width="1.5" points="368.07,-362.04 378.67,-362.11 370.43,-355.45 368.07,-362.04"/>
</g>
<!-- storage -->
<g id="node5" class="node">
<title>storage</title>
<polygon fill="#ccff99" stroke="black" stroke-width="1.5" points="471.57,-495 447.84,-513 400.37,-513 376.64,-495 400.37,-477 447.84,-477 471.57,-495"/>
<text text-anchor="middle" x="424.11" y="-489.2" font-family="Garmond" font-size="14.00">Storage</text>
</g>
<!-- exp_meth01&#45;&gt;storage -->
<g id="edge3" class="edge">
<title>exp_meth01&#45;&gt;storage</title>
<path fill="none" stroke="black" stroke-width="1.5" d="M262.62,-335.29C280.64,-366.5 321.06,-430.49 370.11,-470 373.52,-472.75 377.28,-475.28 381.17,-477.58"/>
<polygon fill="black" stroke="black" stroke-width="1.5" points="379.19,-480.49 389.66,-482.1 382.48,-474.31 379.19,-480.49"/>
</g>
<!-- high_dim -->
<g id="node6" class="node">
<title>high_dim</title>
<polygon fill="#ffb366" stroke="black" stroke-width="1.5" points="455.64,-265 392.57,-265 370.11,-229 478.11,-229 455.64,-265"/>
<text text-anchor="middle" x="424.11" y="-248.7" font-family="Garmond" font-size="14.00">High</text>
<text text-anchor="middle" x="424.11" y="-233.7" font-family="Garmond" font-size="14.00">Dimensionality</text>
</g>
<!-- exp_meth01&#45;&gt;high_dim -->
<g id="edge7" class="edge">
<title>exp_meth01&#45;&gt;high_dim</title>
<path fill="none" stroke="black" stroke-width="1.5" d="M297.34,-298.61C322.42,-288.32 353.58,-275.53 378.61,-265.26"/>
<polygon fill="black" stroke="black" stroke-width="1.5" points="379.61,-268.63 387.54,-261.6 376.96,-262.15 379.61,-268.63"/>
</g>
<!-- concept_transform -->
<g id="node7" class="node">
<title>concept_transform</title>
<polygon fill="#f8cef4" stroke="black" stroke-width="1.5" points="477.86,-315 370.36,-315 370.36,-279 477.86,-279 477.86,-315"/>
<text text-anchor="middle" x="424.11" y="-291.2" font-family="Garmond" font-size="14.00">Transformation</text>
</g>
<!-- exp_meth01&#45;&gt;concept_transform -->
<g id="edge8" class="edge">
<title>exp_meth01&#45;&gt;concept_transform</title>
<path fill="none" stroke="black" stroke-width="1.5" d="M324.86,-308.52C335.88,-307.23 347.2,-305.9 358.05,-304.63"/>
<polygon fill="black" stroke="black" stroke-width="1.5" points="358.28,-308.12 367.8,-303.48 357.46,-301.17 358.28,-308.12"/>
</g>
<!-- concept_voting -->
<g id="node8" class="node">
<title>concept_voting</title>
<polygon fill="#f8cef4" stroke="black" stroke-width="1.5" points="451.23,-215 396.98,-215 396.98,-179 451.23,-179 451.23,-215"/>
<text text-anchor="middle" x="424.11" y="-191.2" font-family="Garmond" font-size="14.00">Voting</text>
</g>
<!-- exp_meth01&#45;&gt;concept_voting -->
<g id="edge9" class="edge">
<title>exp_meth01&#45;&gt;concept_voting</title>
<path fill="none" stroke="black" stroke-width="1.5" d="M272.22,-298.61C294.71,-278.22 333.2,-245.15 370.11,-222 375.02,-218.92 380.37,-215.97 385.72,-213.25"/>
<polygon fill="black" stroke="black" stroke-width="1.5" points="387.05,-216.5 394.53,-209 384,-210.19 387.05,-216.5"/>
</g>
<!-- concept_unexp -->
<g id="node9" class="node">
<title>concept_unexp</title>
<polygon fill="#f8cef4" stroke="black" stroke-width="1.5" points="474.86,-165 373.36,-165 373.36,-127 474.86,-127 474.86,-165"/>
<text text-anchor="middle" x="424.11" y="-147.7" font-family="Garmond" font-size="14.00">Unexplainable</text>
<text text-anchor="middle" x="424.11" y="-132.7" font-family="Garmond" font-size="14.00">Component</text>
</g>
<!-- exp_meth01&#45;&gt;concept_unexp -->
<g id="edge10" class="edge">
<title>exp_meth01&#45;&gt;concept_unexp</title>
<path fill="none" stroke="black" stroke-width="1.5" d="M263.51,-298.83C281.19,-270.77 318.42,-216.21 370.15,-172.99"/>
<polygon fill="black" stroke="black" stroke-width="1.5" points="372.27,-175.77 377.85,-166.77 367.88,-170.33 372.27,-175.77"/>
</g>
<!-- prop_metrics -->
<g id="node10" class="node">
<title>prop_metrics</title>
<polygon fill="#f8cecc" stroke="black" stroke-width="1.5" points="472.51,-100.56 424.11,-113 375.7,-100.56 375.75,-80.44 472.46,-80.44 472.51,-100.56"/>
<text text-anchor="middle" x="424.11" y="-89.2" font-family="Garmond" font-size="14.00">Metrics</text>
</g>
<!-- exp_meth01&#45;&gt;prop_metrics -->
<g id="edge12" class="edge">
<title>exp_meth01&#45;&gt;prop_metrics</title>
<path fill="none" stroke="black" stroke-width="1.5" d="M259.23,-298.54C273.88,-260.51 312.14,-172.58 370.11,-120 373.84,-116.62 378.11,-113.61 382.57,-110.95"/>
<polygon fill="black" stroke="black" stroke-width="1.5" points="383.92,-114.2 391.15,-106.45 380.66,-108 383.92,-114.2"/>
</g>
<!-- kb -->
<g id="node11" class="node">
<title>kb</title>
<polygon fill="#ccff99" stroke="black" stroke-width="1.5" points="660.22,-378 618.19,-396 534.13,-396 492.11,-378 534.13,-360 618.19,-360 660.22,-378"/>
<text text-anchor="middle" x="576.16" y="-372.2" font-family="Garmond" font-size="14.00">Knowledgebase</text>
</g>
<!-- exp_meth01&#45;&gt;kb -->
<g id="edge13" class="edge">
<title>exp_meth01&#45;&gt;kb</title>
<path fill="none" stroke="black" stroke-width="1.5" d="M350.65,-329.88C390.39,-335.7 436.61,-343.25 478.11,-352 489.63,-354.43 501.82,-357.39 513.53,-360.42"/>
<polygon fill="black" stroke="black" stroke-width="1.5" points="512.28,-363.71 522.84,-362.89 514.07,-356.94 512.28,-363.71"/>
</g>
<!-- imbalance -->
<g id="node12" class="node">
<title>imbalance</title>
<path fill="#fff2cc" stroke="black" stroke-width="1.5" d="M468.48,-458.38C468.48,-461 448.59,-463.12 424.11,-463.12 399.62,-463.12 379.73,-461 379.73,-458.38 379.73,-458.38 379.73,-415.62 379.73,-415.62 379.73,-413 399.62,-410.88 424.11,-410.88 448.59,-410.88 468.48,-413 468.48,-415.62 468.48,-415.62 468.48,-458.38 468.48,-458.38"/>
<path fill="none" stroke="black" stroke-width="1.5" d="M468.48,-458.38C468.48,-455.75 448.59,-453.62 424.11,-453.62 399.62,-453.62 379.73,-455.75 379.73,-458.38"/>
<text text-anchor="middle" x="424.11" y="-438.7" font-family="Garmond" font-size="14.00">Imbalanced</text>
<text text-anchor="middle" x="424.11" y="-423.7" font-family="Garmond" font-size="14.00">Training Set</text>
</g>
<!-- exp_meth01&#45;&gt;imbalance -->
<g id="edge11" class="edge">
<title>exp_meth01&#45;&gt;imbalance</title>
<path fill="none" stroke="black" stroke-width="1.5" d="M275.99,-335.23C299.44,-353.24 336.71,-381.3 370.11,-404 370.99,-404.6 371.88,-405.2 372.78,-405.81"/>
<polygon fill="black" stroke="black" stroke-width="1.5" points="370.49,-408.48 380.77,-411.04 374.32,-402.63 370.49,-408.48"/>
</g>
<!-- exp_meth02&#45;&gt;exp_rout -->
<g id="edge6" class="edge">
<title>exp_meth02&#45;&gt;exp_rout</title>
<path fill="none" stroke="black" stroke-width="1.5" d="M267.74,-501.65C288.81,-477.09 328.95,-433.22 370.11,-404 370.32,-403.85 370.54,-403.7 370.75,-403.55"/>
<polygon fill="black" stroke="black" stroke-width="1.5" points="372.5,-406.58 379.08,-398.28 368.76,-400.66 372.5,-406.58"/>
</g>
<!-- exp_meth02&#45;&gt;storage -->
<g id="edge4" class="edge">
<title>exp_meth02&#45;&gt;storage</title>
<path fill="none" stroke="black" stroke-width="1.5" d="M311.7,-511.33C331.2,-508.47 352.71,-505.32 371.59,-502.55"/>
<polygon fill="black" stroke="black" stroke-width="1.5" points="371.94,-506.04 381.32,-501.12 370.92,-499.11 371.94,-506.04"/>
</g>
<!-- exp_meth02&#45;&gt;imbalance -->
<g id="edge17" class="edge">
<title>exp_meth02&#45;&gt;imbalance</title>
<path fill="none" stroke="black" stroke-width="1.5" d="M290.38,-501.58C313.29,-490.43 342.91,-476.02 368.34,-463.64"/>
<polygon fill="black" stroke="black" stroke-width="1.5" points="369.83,-466.82 377.29,-459.29 366.76,-460.52 369.83,-466.82"/>
</g>
<!-- neighbors -->
<g id="node13" class="node">
<title>neighbors</title>
<polygon fill="#f8cef4" stroke="black" stroke-width="1.5" points="451.11,-693 397.11,-693 397.11,-657 451.11,-657 451.11,-693"/>
<text text-anchor="middle" x="424.11" y="-669.2" font-family="Garmond" font-size="14.00">KNN</text>
</g>
<!-- exp_meth02&#45;&gt;neighbors -->
<g id="edge19" class="edge">
<title>exp_meth02&#45;&gt;neighbors</title>
<path fill="none" stroke="black" stroke-width="1.5" d="M265.49,-538.49C285.4,-565.79 325.86,-617.19 370.11,-650 374.86,-653.53 380.19,-656.74 385.59,-659.6"/>
<polygon fill="black" stroke="black" stroke-width="1.5" points="384.05,-662.74 394.57,-663.98 387.11,-656.45 384.05,-662.74"/>
</g>
<!-- case_metrics -->
<g id="node14" class="node">
<title>case_metrics</title>
<polygon fill="#f8cecc" stroke="black" stroke-width="1.5" points="472.51,-630.56 424.11,-643 375.7,-630.56 375.75,-610.44 472.46,-610.44 472.51,-630.56"/>
<text text-anchor="middle" x="424.11" y="-619.2" font-family="Garmond" font-size="14.00">Metrics</text>
</g>
<!-- exp_meth02&#45;&gt;case_metrics -->
<g id="edge18" class="edge">
<title>exp_meth02&#45;&gt;case_metrics</title>
<path fill="none" stroke="black" stroke-width="1.5" d="M279.72,-538.39C303.33,-554.15 338.57,-577.22 370.11,-596 374.69,-598.73 379.55,-601.52 384.38,-604.24"/>
<polygon fill="black" stroke="black" stroke-width="1.5" points="382.4,-607.15 392.85,-608.93 385.8,-601.02 382.4,-607.15"/>
</g>
<!-- low_dim -->
<g id="node15" class="node">
<title>low_dim</title>
<polygon fill="#ffb366" stroke="black" stroke-width="1.5" points="455.64,-563 392.57,-563 370.11,-527 478.11,-527 455.64,-563"/>
<text text-anchor="middle" x="424.11" y="-546.7" font-family="Garmond" font-size="14.00">Low</text>
<text text-anchor="middle" x="424.11" y="-531.7" font-family="Garmond" font-size="14.00">Dimensionality</text>
</g>
<!-- exp_meth02&#45;&gt;low_dim -->
<g id="edge20" class="edge">
<title>exp_meth02&#45;&gt;low_dim</title>
<path fill="none" stroke="black" stroke-width="1.5" d="M331.82,-531.62C342.83,-533.23 353.97,-534.87 364.5,-536.41"/>
<polygon fill="black" stroke="black" stroke-width="1.5" points="363.9,-539.86 374.3,-537.85 364.92,-532.93 363.9,-539.86"/>
</g>
<!-- ti -->
<g id="node16" class="node">
<title>ti</title>
<polygon fill="#ccff99" stroke="black" stroke-width="1.5" points="652.34,-550 614.25,-568 538.07,-568 499.99,-550 538.07,-532 614.25,-532 652.34,-550"/>
<text text-anchor="middle" x="576.16" y="-544.2" font-family="Garmond" font-size="14.00">Training Index</text>
</g>
<!-- exp_meth02&#45;&gt;ti -->
<g id="edge16" class="edge">
<title>exp_meth02&#45;&gt;ti</title>
<path fill="none" stroke="black" stroke-width="1.5" d="M285.82,-538.43C308.75,-550.04 340.33,-563.93 370.11,-570 418.01,-579.76 473.22,-573.4 514.27,-565.35"/>
<polygon fill="black" stroke="black" stroke-width="1.5" points="514.96,-568.78 524.04,-563.33 513.54,-561.92 514.96,-568.78"/>
</g>
<!-- storage&#45;&gt;kb -->
<g id="edge14" class="edge">
<title>storage&#45;&gt;kb</title>
<path fill="none" stroke="black" stroke-width="1.5" d="M458.27,-484.53C465.61,-480.91 472.78,-476.16 478.11,-470 492.08,-453.83 478.67,-440.61 492.11,-424 499.65,-414.68 509.61,-406.94 520.01,-400.64"/>
<polygon fill="black" stroke="black" stroke-width="1.5" points="521.46,-403.83 528.5,-395.91 518.06,-397.72 521.46,-403.83"/>
</g>
<!-- storage&#45;&gt;ti -->
<g id="edge15" class="edge">
<title>storage&#45;&gt;ti</title>
<path fill="none" stroke="black" stroke-width="1.5" d="M456.93,-506.66C475.52,-513.48 499.49,-522.26 520.98,-530.14"/>
<polygon fill="black" stroke="black" stroke-width="1.5" points="519.56,-533.35 530.15,-533.5 521.96,-526.77 519.56,-533.35"/>
</g>
<!-- handwriting -->
<g id="node22" class="node">
<title>handwriting</title>
<path fill="#e1d5e7" stroke="black" stroke-width="1.5" d="M624.29,-297.81C624.29,-301.47 602.72,-304.44 576.16,-304.44 549.61,-304.44 528.04,-301.47 528.04,-297.81 528.04,-297.81 528.04,-238.19 528.04,-238.19 528.04,-234.53 549.61,-231.56 576.16,-231.56 602.72,-231.56 624.29,-234.53 624.29,-238.19 624.29,-238.19 624.29,-297.81 624.29,-297.81"/>
<path fill="none" stroke="black" stroke-width="1.5" d="M624.29,-297.81C624.29,-294.16 602.72,-291.19 576.16,-291.19 549.61,-291.19 528.04,-294.16 528.04,-297.81"/>
<text text-anchor="middle" x="576.16" y="-277.2" font-family="Garmond" font-size="14.00">Handwriting</text>
<text text-anchor="middle" x="576.16" y="-262.2" font-family="Garmond" font-size="14.00">Binary Image</text>
<text text-anchor="middle" x="576.16" y="-247.2" font-family="Garmond" font-size="14.00">28x28 pixels</text>
</g>
<!-- high_dim&#45;&gt;handwriting -->
<g id="edge28" class="edge">
<title>high_dim&#45;&gt;handwriting</title>
<path fill="none" stroke="black" stroke-width="1.5" d="M463.75,-252.41C479.62,-254.63 498.37,-257.25 515.9,-259.71"/>
<polygon fill="black" stroke="black" stroke-width="1.5" points="515.17,-263.14 525.56,-261.06 516.14,-256.21 515.17,-263.14"/>
</g>
<!-- effectiveness -->
<g id="node17" class="node">
<title>effectiveness</title>
<polygon fill="#ffe6cc" stroke="black" stroke-width="1.5" points="621.76,-116 518.56,-116 518.56,-74 621.76,-74 633.76,-95 621.76,-116"/>
<text text-anchor="start" x="536.04" y="-96.7" font-family="Garmond" font-size="14.00">Effectiveness</text>
<text text-anchor="start" x="560.41" y="-81.7" font-family="Garmond" font-size="14.00">E(j,c)</text>
</g>
<!-- prop_metrics&#45;&gt;effectiveness -->
<g id="edge21" class="edge">
<title>prop_metrics&#45;&gt;effectiveness</title>
<path fill="none" stroke="black" stroke-width="1.5" d="M472.58,-95C483.24,-95 494.76,-95 506.09,-95"/>
<polygon fill="black" stroke="black" stroke-width="1.5" points="506,-98.5 516,-95 506,-91.5 506,-98.5"/>
</g>
<!-- confidence -->
<g id="node18" class="node">
<title>confidence</title>
<polygon fill="#ffe6cc" stroke="black" stroke-width="1.5" points="621.76,-48 518.56,-48 518.56,-6 621.76,-6 633.76,-27 621.76,-48"/>
<text text-anchor="start" x="542.04" y="-28.7" font-family="Garmond" font-size="14.00">Confidence</text>
<text text-anchor="start" x="554.04" y="-13.7" font-family="Garmond" font-size="14.00">Conf(c)</text>
</g>
<!-- prop_metrics&#45;&gt;confidence -->
<g id="edge22" class="edge">
<title>prop_metrics&#45;&gt;confidence</title>
<path fill="none" stroke="black" stroke-width="1.5" d="M453.22,-80.09C465.11,-73.96 479.18,-66.92 492.11,-61 496.94,-58.79 501.96,-56.56 507.03,-54.37"/>
<polygon fill="black" stroke="black" stroke-width="1.5" points="508.24,-57.65 516.07,-50.51 505.5,-51.21 508.24,-57.65"/>
</g>
<!-- explainability -->
<g id="node19" class="node">
<title>explainability</title>
<polygon fill="#ffe6cc" stroke="black" stroke-width="1.5" points="621.76,-184 518.56,-184 518.56,-142 621.76,-142 633.76,-163 621.76,-184"/>
<text text-anchor="start" x="536.79" y="-164.7" font-family="Garmond" font-size="14.00">Explainability</text>
<text text-anchor="start" x="560.41" y="-149.7" font-family="Garmond" font-size="14.00">Ex(c)</text>
</g>
<!-- prop_metrics&#45;&gt;explainability -->
<g id="edge23" class="edge">
<title>prop_metrics&#45;&gt;explainability</title>
<path fill="none" stroke="black" stroke-width="1.5" d="M451.06,-106.42C459.77,-110.47 469.47,-115.22 478.11,-120 484.58,-123.59 485.54,-125.58 492.11,-129 497.03,-131.56 502.19,-134.07 507.43,-136.49"/>
<polygon fill="black" stroke="black" stroke-width="1.5" points="505.61,-139.51 516.16,-140.39 508.46,-133.12 505.61,-139.51"/>
</g>
<!-- imbalance&#45;&gt;handwriting -->
<g id="edge26" class="edge">
<title>imbalance&#45;&gt;handwriting</title>
<path fill="none" stroke="black" stroke-width="1.5" d="M468.84,-413.81C472.28,-410.83 475.45,-407.56 478.11,-404 492.16,-385.16 480.41,-373.39 492.11,-353 500.78,-337.88 512.78,-323.48 524.96,-310.97"/>
<polygon fill="black" stroke="black" stroke-width="1.5" points="527.13,-313.75 531.77,-304.23 522.2,-308.78 527.13,-313.75"/>
</g>
<!-- trojan -->
<g id="node23" class="node">
<title>trojan</title>
<path fill="#e1d5e7" stroke="black" stroke-width="1.5" d="M617.91,-496.81C617.91,-500.47 599.2,-503.44 576.16,-503.44 553.12,-503.44 534.41,-500.47 534.41,-496.81 534.41,-496.81 534.41,-437.19 534.41,-437.19 534.41,-433.53 553.12,-430.56 576.16,-430.56 599.2,-430.56 617.91,-433.53 617.91,-437.19 617.91,-437.19 617.91,-496.81 617.91,-496.81"/>
<path fill="none" stroke="black" stroke-width="1.5" d="M617.91,-496.81C617.91,-493.16 599.2,-490.19 576.16,-490.19 553.12,-490.19 534.41,-493.16 534.41,-496.81"/>
<text text-anchor="middle" x="576.16" y="-476.2" font-family="Garmond" font-size="14.00">Trojan</text>
<text text-anchor="middle" x="576.16" y="-461.2" font-family="Garmond" font-size="14.00">Text&#45;Based</text>
<text text-anchor="middle" x="576.16" y="-446.2" font-family="Garmond" font-size="14.00">5 Features</text>
</g>
<!-- imbalance&#45;&gt;trojan -->
<g id="edge27" class="edge">
<title>imbalance&#45;&gt;trojan</title>
<path fill="none" stroke="black" stroke-width="1.5" d="M468.91,-445.76C485.56,-449.09 504.7,-452.91 522.11,-456.39"/>
<polygon fill="black" stroke="black" stroke-width="1.5" points="521.41,-459.82 531.91,-458.35 522.79,-452.96 521.41,-459.82"/>
</g>
<!-- correspondence -->
<g id="node20" class="node">
<title>correspondence</title>
<polygon fill="#ffe6cc" stroke="black" stroke-width="1.5" points="621.76,-638 518.56,-638 518.56,-596 621.76,-596 633.76,-617 621.76,-638"/>
<text text-anchor="start" x="526.29" y="-618.7" font-family="Garmond" font-size="14.00">Correspondence</text>
<text text-anchor="start" x="555.16" y="-603.7" font-family="Garmond" font-size="14.00">Corr(c)</text>
</g>
<!-- case_metrics&#45;&gt;correspondence -->
<g id="edge24" class="edge">
<title>case_metrics&#45;&gt;correspondence</title>
<path fill="none" stroke="black" stroke-width="1.5" d="M472.58,-622.47C483.24,-621.9 494.76,-621.29 506.09,-620.68"/>
<polygon fill="black" stroke="black" stroke-width="1.5" points="506.2,-624.18 516,-620.15 505.83,-617.19 506.2,-624.18"/>
</g>
<!-- balance -->
<g id="node21" class="node">
<title>balance</title>
<polygon fill="#ffe6cc" stroke="black" stroke-width="1.5" points="621.76,-706 518.56,-706 518.56,-664 621.76,-664 633.76,-685 621.76,-706"/>
<text text-anchor="start" x="530.79" y="-686.7" font-family="Garmond" font-size="14.00">Balance Factor</text>
<text text-anchor="start" x="562.66" y="-671.7" font-family="Garmond" font-size="14.00">bf(c)</text>
</g>
<!-- case_metrics&#45;&gt;balance -->
<g id="edge25" class="edge">
<title>case_metrics&#45;&gt;balance</title>
<path fill="none" stroke="black" stroke-width="1.5" d="M452.63,-636C467.98,-642.14 487.83,-650.08 507.07,-657.77"/>
<polygon fill="black" stroke="black" stroke-width="1.5" points="505.6,-660.95 516.18,-661.42 508.19,-654.45 505.6,-660.95"/>
</g>
<!-- low_dim&#45;&gt;trojan -->
<g id="edge29" class="edge">
<title>low_dim&#45;&gt;trojan</title>
<path fill="none" stroke="black" stroke-width="1.5" d="M464.88,-526.55C469.36,-524.38 473.84,-522.17 478.11,-520 493.12,-512.37 509.24,-503.75 523.94,-495.71"/>
<polygon fill="black" stroke="black" stroke-width="1.5" points="525.29,-498.96 532.37,-491.07 521.92,-492.82 525.29,-498.96"/>
</g>
</g>
</svg>
