<?xml version="1.0" encoding="UTF-8" standalone="no"?>
<!DOCTYPE svg PUBLIC "-//W3C//DTD SVG 1.1//EN"
 "http://www.w3.org/Graphics/SVG/1.1/DTD/svg11.dtd">
<!-- Generated by graphviz version 12.2.1 (20241206.2353)
 -->
<!-- Title: D Pages: 1 -->
<svg width="521pt" height="720pt"
 viewBox="0.00 0.00 521.28 720.00" xmlns="http://www.w3.org/2000/svg" xmlns:xlink="http://www.w3.org/1999/xlink">
<g id="graph0" class="graph" transform="scale(1 1) rotate(0) translate(4 716)">
<title>D</title>
<polygon fill="white" stroke="none" points="-4,4 -4,-716 517.28,-716 517.28,4 -4,4"/>
<!-- exp_meth01 -->
<g id="node1" class="node">
<title>exp_meth01</title>
<polygon fill="#d5e8d4" stroke="black" stroke-width="1.5" points="209.17,-315 42.8,-315 0,-279 166.37,-279 209.17,-315"/>
<text text-anchor="middle" x="104.59" y="-291.2" font-family="Garmond" font-size="14.00">Property&#45;Based</text>
</g>
<!-- exp_rout -->
<g id="node3" class="node">
<title>exp_rout</title>
<polygon fill="lightgrey" stroke="black" stroke-width="1.5" points="320.05,-397 234.3,-397 234.3,-359 320.05,-359 320.05,-397"/>
<text text-anchor="middle" x="277.17" y="-379.7" font-family="Garmond" font-size="14.00">Explainable</text>
<text text-anchor="middle" x="277.17" y="-364.7" font-family="Garmond" font-size="14.00">Processing</text>
</g>
<!-- exp_meth01&#45;&gt;exp_rout -->
<g id="edge3" class="edge">
<title>exp_meth01&#45;&gt;exp_rout</title>
<path fill="none" stroke="black" stroke-width="1.5" d="M144.29,-315.38C167.93,-326.6 198.44,-341.09 224.17,-353.31"/>
<polygon fill="black" stroke="black" stroke-width="1.5" points="222.65,-356.46 233.19,-357.59 225.65,-350.14 222.65,-356.46"/>
</g>
<!-- storage -->
<g id="node4" class="node">
<title>storage</title>
<polygon fill="#ccff99" stroke="black" stroke-width="1.5" points="324.64,-495 300.9,-513 253.44,-513 229.7,-495 253.44,-477 300.9,-477 324.64,-495"/>
<text text-anchor="middle" x="277.17" y="-489.2" font-family="Garmond" font-size="14.00">Storage</text>
</g>
<!-- exp_meth01&#45;&gt;storage -->
<g id="edge1" class="edge">
<title>exp_meth01&#45;&gt;storage</title>
<path fill="none" stroke="black" stroke-width="1.5" d="M113.89,-315.27C130.32,-349.65 170.03,-424.58 223.17,-470 226.4,-472.76 229.99,-475.29 233.73,-477.58"/>
<polygon fill="black" stroke="black" stroke-width="1.5" points="232.06,-480.66 242.52,-482.35 235.4,-474.5 232.06,-480.66"/>
</g>
<!-- high_dim -->
<g id="node5" class="node">
<title>high_dim</title>
<polygon fill="#ffb366" stroke="black" stroke-width="1.5" points="308.71,-265 245.63,-265 223.17,-229 331.17,-229 308.71,-265"/>
<text text-anchor="middle" x="277.17" y="-248.7" font-family="Garmond" font-size="14.00">High</text>
<text text-anchor="middle" x="277.17" y="-233.7" font-family="Garmond" font-size="14.00">Dimensionality</text>
</g>
<!-- exp_meth01&#45;&gt;high_dim -->
<g id="edge5" class="edge">
<title>exp_meth01&#45;&gt;high_dim</title>
<path fill="none" stroke="black" stroke-width="1.5" d="M166.69,-279.09C187.27,-273.06 209.91,-266.42 229.22,-260.76"/>
<polygon fill="black" stroke="black" stroke-width="1.5" points="229.99,-264.18 238.6,-258.01 228.02,-257.47 229.99,-264.18"/>
</g>
<!-- concept_transform -->
<g id="node6" class="node">
<title>concept_transform</title>
<polygon fill="#f8cef4" stroke="black" stroke-width="1.5" points="330.92,-315 223.42,-315 223.42,-279 330.92,-279 330.92,-315"/>
<text text-anchor="middle" x="277.17" y="-291.2" font-family="Garmond" font-size="14.00">Transformation</text>
</g>
<!-- exp_meth01&#45;&gt;concept_transform -->
<g id="edge6" class="edge">
<title>exp_meth01&#45;&gt;concept_transform</title>
<path fill="none" stroke="black" stroke-width="1.5" d="M188.38,-297C195.99,-297 203.63,-297 211.06,-297"/>
<polygon fill="black" stroke="black" stroke-width="1.5" points="211.03,-300.5 221.03,-297 211.03,-293.5 211.03,-300.5"/>
</g>
<!-- concept_voting -->
<g id="node7" class="node">
<title>concept_voting</title>
<polygon fill="#f8cef4" stroke="black" stroke-width="1.5" points="304.3,-215 250.05,-215 250.05,-179 304.3,-179 304.3,-215"/>
<text text-anchor="middle" x="277.17" y="-191.2" font-family="Garmond" font-size="14.00">Voting</text>
</g>
<!-- exp_meth01&#45;&gt;concept_voting -->
<g id="edge7" class="edge">
<title>exp_meth01&#45;&gt;concept_voting</title>
<path fill="none" stroke="black" stroke-width="1.5" d="M132.08,-278.73C155.54,-262.89 190.95,-239.78 223.17,-222 228.19,-219.23 233.58,-216.46 238.92,-213.84"/>
<polygon fill="black" stroke="black" stroke-width="1.5" points="240.13,-217.14 247.64,-209.67 237.11,-210.82 240.13,-217.14"/>
</g>
<!-- concept_unexp -->
<g id="node8" class="node">
<title>concept_unexp</title>
<polygon fill="#f8cef4" stroke="black" stroke-width="1.5" points="327.92,-165 226.42,-165 226.42,-127 327.92,-127 327.92,-165"/>
<text text-anchor="middle" x="277.17" y="-147.7" font-family="Garmond" font-size="14.00">Unexplainable</text>
<text text-anchor="middle" x="277.17" y="-132.7" font-family="Garmond" font-size="14.00">Component</text>
</g>
<!-- exp_meth01&#45;&gt;concept_unexp -->
<g id="edge8" class="edge">
<title>exp_meth01&#45;&gt;concept_unexp</title>
<path fill="none" stroke="black" stroke-width="1.5" d="M119.11,-278.91C138.15,-254.35 175.03,-209.87 223.33,-172.74"/>
<polygon fill="black" stroke="black" stroke-width="1.5" points="225.4,-175.56 231.32,-166.78 221.22,-169.95 225.4,-175.56"/>
</g>
<!-- prop_metrics -->
<g id="node9" class="node">
<title>prop_metrics</title>
<polygon fill="#f8cecc" stroke="black" stroke-width="1.5" points="325.57,-100.56 277.17,-113 228.77,-100.56 228.81,-80.44 325.53,-80.44 325.57,-100.56"/>
<text text-anchor="middle" x="277.17" y="-89.2" font-family="Garmond" font-size="14.00">Metrics</text>
</g>
<!-- exp_meth01&#45;&gt;prop_metrics -->
<g id="edge10" class="edge">
<title>exp_meth01&#45;&gt;prop_metrics</title>
<path fill="none" stroke="black" stroke-width="1.5" d="M113.66,-278.58C129.82,-243.51 169.29,-166.55 223.17,-120 226.98,-116.71 231.3,-113.75 235.79,-111.13"/>
<polygon fill="black" stroke="black" stroke-width="1.5" points="237.14,-114.37 244.39,-106.65 233.9,-108.16 237.14,-114.37"/>
</g>
<!-- kb -->
<g id="node10" class="node">
<title>kb</title>
<polygon fill="#ccff99" stroke="black" stroke-width="1.5" points="513.28,-378 471.25,-396 387.2,-396 345.17,-378 387.2,-360 471.25,-360 513.28,-378"/>
<text text-anchor="middle" x="429.22" y="-372.2" font-family="Garmond" font-size="14.00">Knowledgebase</text>
</g>
<!-- exp_meth01&#45;&gt;kb -->
<g id="edge11" class="edge">
<title>exp_meth01&#45;&gt;kb</title>
<path fill="none" stroke="black" stroke-width="1.5" d="M183.21,-315.47C226.77,-325.95 282.06,-339.44 331.17,-352 342.21,-354.82 353.93,-357.9 365.27,-360.91"/>
<polygon fill="black" stroke="black" stroke-width="1.5" points="364.15,-364.24 374.71,-363.43 365.95,-357.47 364.15,-364.24"/>
</g>
<!-- imbalance -->
<g id="node11" class="node">
<title>imbalance</title>
<path fill="#fff2cc" stroke="black" stroke-width="1.5" d="M321.55,-458.38C321.55,-461 301.66,-463.12 277.17,-463.12 252.68,-463.12 232.8,-461 232.8,-458.38 232.8,-458.38 232.8,-415.62 232.8,-415.62 232.8,-413 252.68,-410.88 277.17,-410.88 301.66,-410.88 321.55,-413 321.55,-415.62 321.55,-415.62 321.55,-458.38 321.55,-458.38"/>
<path fill="none" stroke="black" stroke-width="1.5" d="M321.55,-458.38C321.55,-455.75 301.66,-453.62 277.17,-453.62 252.68,-453.62 232.8,-455.75 232.8,-458.38"/>
<text text-anchor="middle" x="277.17" y="-438.7" font-family="Garmond" font-size="14.00">Imbalanced</text>
<text text-anchor="middle" x="277.17" y="-423.7" font-family="Garmond" font-size="14.00">Training Set</text>
</g>
<!-- exp_meth01&#45;&gt;imbalance -->
<g id="edge9" class="edge">
<title>exp_meth01&#45;&gt;imbalance</title>
<path fill="none" stroke="black" stroke-width="1.5" d="M123.42,-315.14C145.71,-337.35 185.53,-375.53 223.17,-404 223.75,-404.44 224.34,-404.88 224.93,-405.32"/>
<polygon fill="black" stroke="black" stroke-width="1.5" points="222.83,-408.12 233.02,-411.01 226.86,-402.39 222.83,-408.12"/>
</g>
<!-- exp_meth02 -->
<g id="node2" class="node">
<title>exp_meth02</title>
<polygon fill="#d5e8d4" stroke="black" stroke-width="1.5" points="190.59,-563 53.78,-563 18.58,-527 155.39,-527 190.59,-563"/>
<text text-anchor="middle" x="104.59" y="-539.2" font-family="Garmond" font-size="14.00">Case&#45;Based</text>
</g>
<!-- exp_meth02&#45;&gt;exp_rout -->
<g id="edge4" class="edge">
<title>exp_meth02&#45;&gt;exp_rout</title>
<path fill="none" stroke="black" stroke-width="1.5" d="M117,-526.88C136.04,-497.84 176.8,-440.43 223.17,-404 223.38,-403.84 223.58,-403.68 223.79,-403.52"/>
<polygon fill="black" stroke="black" stroke-width="1.5" points="225.62,-406.51 231.93,-398 221.69,-400.71 225.62,-406.51"/>
</g>
<!-- exp_meth02&#45;&gt;storage -->
<g id="edge2" class="edge">
<title>exp_meth02&#45;&gt;storage</title>
<path fill="none" stroke="black" stroke-width="1.5" d="M158.16,-529.59C181.31,-522.8 208.25,-514.91 230.54,-508.37"/>
<polygon fill="black" stroke="black" stroke-width="1.5" points="231.27,-511.81 239.89,-505.64 229.3,-505.09 231.27,-511.81"/>
</g>
<!-- exp_meth02&#45;&gt;imbalance -->
<g id="edge15" class="edge">
<title>exp_meth02&#45;&gt;imbalance</title>
<path fill="none" stroke="black" stroke-width="1.5" d="M134.04,-526.73C157.82,-511.49 192.65,-489.24 223.17,-470 224.09,-469.42 225.02,-468.83 225.96,-468.24"/>
<polygon fill="black" stroke="black" stroke-width="1.5" points="227.67,-471.3 234.28,-463.03 223.95,-465.37 227.67,-471.3"/>
</g>
<!-- neighbors -->
<g id="node12" class="node">
<title>neighbors</title>
<polygon fill="#f8cef4" stroke="black" stroke-width="1.5" points="304.17,-693 250.17,-693 250.17,-657 304.17,-657 304.17,-693"/>
<text text-anchor="middle" x="277.17" y="-669.2" font-family="Garmond" font-size="14.00">KNN</text>
</g>
<!-- exp_meth02&#45;&gt;neighbors -->
<g id="edge17" class="edge">
<title>exp_meth02&#45;&gt;neighbors</title>
<path fill="none" stroke="black" stroke-width="1.5" d="M122.96,-563.5C144.79,-585.99 184.15,-624.16 223.17,-650 228.06,-653.23 233.43,-656.28 238.81,-659.06"/>
<polygon fill="black" stroke="black" stroke-width="1.5" points="237.18,-662.16 247.71,-663.36 240.24,-655.85 237.18,-662.16"/>
</g>
<!-- case_metrics -->
<g id="node13" class="node">
<title>case_metrics</title>
<polygon fill="#f8cecc" stroke="black" stroke-width="1.5" points="325.57,-630.56 277.17,-643 228.77,-630.56 228.81,-610.44 325.53,-610.44 325.57,-630.56"/>
<text text-anchor="middle" x="277.17" y="-619.2" font-family="Garmond" font-size="14.00">Metrics</text>
</g>
<!-- exp_meth02&#45;&gt;case_metrics -->
<g id="edge16" class="edge">
<title>exp_meth02&#45;&gt;case_metrics</title>
<path fill="none" stroke="black" stroke-width="1.5" d="M144.72,-563.35C171.18,-575.76 206.11,-592.14 233.31,-604.9"/>
<polygon fill="black" stroke="black" stroke-width="1.5" points="231.48,-607.91 242.02,-608.98 234.45,-601.57 231.48,-607.91"/>
</g>
<!-- low_dim -->
<g id="node14" class="node">
<title>low_dim</title>
<polygon fill="#ffb366" stroke="black" stroke-width="1.5" points="308.71,-563 245.63,-563 223.17,-527 331.17,-527 308.71,-563"/>
<text text-anchor="middle" x="277.17" y="-546.7" font-family="Garmond" font-size="14.00">Low</text>
<text text-anchor="middle" x="277.17" y="-531.7" font-family="Garmond" font-size="14.00">Dimensionality</text>
</g>
<!-- exp_meth02&#45;&gt;low_dim -->
<g id="edge18" class="edge">
<title>exp_meth02&#45;&gt;low_dim</title>
<path fill="none" stroke="black" stroke-width="1.5" d="M173.49,-545C189.62,-545 206.62,-545 222.04,-545"/>
<polygon fill="black" stroke="black" stroke-width="1.5" points="221.75,-548.5 231.75,-545 221.75,-541.5 221.75,-548.5"/>
</g>
<!-- ti -->
<g id="node15" class="node">
<title>ti</title>
<polygon fill="#ccff99" stroke="black" stroke-width="1.5" points="505.4,-550 467.31,-568 391.14,-568 353.05,-550 391.14,-532 467.31,-532 505.4,-550"/>
<text text-anchor="middle" x="429.22" y="-544.2" font-family="Garmond" font-size="14.00">Training Index</text>
</g>
<!-- exp_meth02&#45;&gt;ti -->
<g id="edge14" class="edge">
<title>exp_meth02&#45;&gt;ti</title>
<path fill="none" stroke="black" stroke-width="1.5" d="M181.12,-563.49C195.02,-566.2 209.47,-568.56 223.17,-570 270.91,-575.02 283.42,-574.87 331.17,-570 342.6,-568.83 354.68,-566.92 366.28,-564.72"/>
<polygon fill="black" stroke="black" stroke-width="1.5" points="366.81,-568.18 375.93,-562.79 365.43,-561.32 366.81,-568.18"/>
</g>
<!-- storage&#45;&gt;kb -->
<g id="edge12" class="edge">
<title>storage&#45;&gt;kb</title>
<path fill="none" stroke="black" stroke-width="1.5" d="M311.33,-484.53C318.68,-480.91 325.85,-476.16 331.17,-470 345.14,-453.83 331.73,-440.61 345.17,-424 352.71,-414.68 362.68,-406.94 373.07,-400.64"/>
<polygon fill="black" stroke="black" stroke-width="1.5" points="374.53,-403.83 381.56,-395.91 371.12,-397.72 374.53,-403.83"/>
</g>
<!-- storage&#45;&gt;ti -->
<g id="edge13" class="edge">
<title>storage&#45;&gt;ti</title>
<path fill="none" stroke="black" stroke-width="1.5" d="M309.99,-506.66C328.59,-513.48 352.56,-522.26 374.04,-530.14"/>
<polygon fill="black" stroke="black" stroke-width="1.5" points="372.62,-533.35 383.21,-533.5 375.03,-526.77 372.62,-533.35"/>
</g>
<!-- handwriting -->
<g id="node21" class="node">
<title>handwriting</title>
<path fill="#e1d5e7" stroke="black" stroke-width="1.5" d="M477.35,-297.81C477.35,-301.47 455.78,-304.44 429.22,-304.44 402.67,-304.44 381.1,-301.47 381.1,-297.81 381.1,-297.81 381.1,-238.19 381.1,-238.19 381.1,-234.53 402.67,-231.56 429.22,-231.56 455.78,-231.56 477.35,-234.53 477.35,-238.19 477.35,-238.19 477.35,-297.81 477.35,-297.81"/>
<path fill="none" stroke="black" stroke-width="1.5" d="M477.35,-297.81C477.35,-294.16 455.78,-291.19 429.22,-291.19 402.67,-291.19 381.1,-294.16 381.1,-297.81"/>
<text text-anchor="middle" x="429.22" y="-277.2" font-family="Garmond" font-size="14.00">Handwriting</text>
<text text-anchor="middle" x="429.22" y="-262.2" font-family="Garmond" font-size="14.00">Binary Image</text>
<text text-anchor="middle" x="429.22" y="-247.2" font-family="Garmond" font-size="14.00">28x28 pixels</text>
</g>
<!-- high_dim&#45;&gt;handwriting -->
<g id="edge26" class="edge">
<title>high_dim&#45;&gt;handwriting</title>
<path fill="none" stroke="black" stroke-width="1.5" d="M316.81,-252.41C332.69,-254.63 351.43,-257.25 368.97,-259.71"/>
<polygon fill="black" stroke="black" stroke-width="1.5" points="368.23,-263.14 378.62,-261.06 369.2,-256.21 368.23,-263.14"/>
</g>
<!-- effectiveness -->
<g id="node16" class="node">
<title>effectiveness</title>
<polygon fill="#ffe6cc" stroke="black" stroke-width="1.5" points="474.82,-116 371.62,-116 371.62,-74 474.82,-74 486.82,-95 474.82,-116"/>
<text text-anchor="start" x="389.1" y="-96.7" font-family="Garmond" font-size="14.00">Effectiveness</text>
<text text-anchor="start" x="413.47" y="-81.7" font-family="Garmond" font-size="14.00">E(j,c)</text>
</g>
<!-- prop_metrics&#45;&gt;effectiveness -->
<g id="edge19" class="edge">
<title>prop_metrics&#45;&gt;effectiveness</title>
<path fill="none" stroke="black" stroke-width="1.5" d="M325.65,-95C336.3,-95 347.82,-95 359.16,-95"/>
<polygon fill="black" stroke="black" stroke-width="1.5" points="359.06,-98.5 369.06,-95 359.06,-91.5 359.06,-98.5"/>
</g>
<!-- confidence -->
<g id="node17" class="node">
<title>confidence</title>
<polygon fill="#ffe6cc" stroke="black" stroke-width="1.5" points="474.82,-48 371.62,-48 371.62,-6 474.82,-6 486.82,-27 474.82,-48"/>
<text text-anchor="start" x="395.1" y="-28.7" font-family="Garmond" font-size="14.00">Confidence</text>
<text text-anchor="start" x="407.1" y="-13.7" font-family="Garmond" font-size="14.00">Conf(c)</text>
</g>
<!-- prop_metrics&#45;&gt;confidence -->
<g id="edge20" class="edge">
<title>prop_metrics&#45;&gt;confidence</title>
<path fill="none" stroke="black" stroke-width="1.5" d="M306.29,-80.09C318.18,-73.96 332.24,-66.92 345.17,-61 350,-58.79 355.02,-56.56 360.09,-54.37"/>
<polygon fill="black" stroke="black" stroke-width="1.5" points="361.31,-57.65 369.13,-50.51 358.56,-51.21 361.31,-57.65"/>
</g>
<!-- explainability -->
<g id="node18" class="node">
<title>explainability</title>
<polygon fill="#ffe6cc" stroke="black" stroke-width="1.5" points="474.82,-184 371.62,-184 371.62,-142 474.82,-142 486.82,-163 474.82,-184"/>
<text text-anchor="start" x="389.85" y="-164.7" font-family="Garmond" font-size="14.00">Explainability</text>
<text text-anchor="start" x="413.47" y="-149.7" font-family="Garmond" font-size="14.00">Ex(c)</text>
</g>
<!-- prop_metrics&#45;&gt;explainability -->
<g id="edge21" class="edge">
<title>prop_metrics&#45;&gt;explainability</title>
<path fill="none" stroke="black" stroke-width="1.5" d="M304.12,-106.42C312.84,-110.47 322.54,-115.22 331.17,-120 337.64,-123.59 338.61,-125.58 345.17,-129 350.09,-131.56 355.26,-134.07 360.49,-136.49"/>
<polygon fill="black" stroke="black" stroke-width="1.5" points="358.67,-139.51 369.23,-140.39 361.53,-133.12 358.67,-139.51"/>
</g>
<!-- imbalance&#45;&gt;handwriting -->
<g id="edge24" class="edge">
<title>imbalance&#45;&gt;handwriting</title>
<path fill="none" stroke="black" stroke-width="1.5" d="M321.9,-413.81C325.35,-410.83 328.51,-407.56 331.17,-404 345.22,-385.16 333.47,-373.39 345.17,-353 353.85,-337.88 365.84,-323.48 378.02,-310.97"/>
<polygon fill="black" stroke="black" stroke-width="1.5" points="380.19,-313.75 384.83,-304.23 375.27,-308.78 380.19,-313.75"/>
</g>
<!-- trojan -->
<g id="node22" class="node">
<title>trojan</title>
<path fill="#e1d5e7" stroke="black" stroke-width="1.5" d="M470.97,-496.81C470.97,-500.47 452.26,-503.44 429.22,-503.44 406.19,-503.44 387.47,-500.47 387.47,-496.81 387.47,-496.81 387.47,-437.19 387.47,-437.19 387.47,-433.53 406.19,-430.56 429.22,-430.56 452.26,-430.56 470.97,-433.53 470.97,-437.19 470.97,-437.19 470.97,-496.81 470.97,-496.81"/>
<path fill="none" stroke="black" stroke-width="1.5" d="M470.97,-496.81C470.97,-493.16 452.26,-490.19 429.22,-490.19 406.19,-490.19 387.47,-493.16 387.47,-496.81"/>
<text text-anchor="middle" x="429.22" y="-476.2" font-family="Garmond" font-size="14.00">Trojan</text>
<text text-anchor="middle" x="429.22" y="-461.2" font-family="Garmond" font-size="14.00">Text&#45;Based</text>
<text text-anchor="middle" x="429.22" y="-446.2" font-family="Garmond" font-size="14.00">5 Features</text>
</g>
<!-- imbalance&#45;&gt;trojan -->
<g id="edge25" class="edge">
<title>imbalance&#45;&gt;trojan</title>
<path fill="none" stroke="black" stroke-width="1.5" d="M321.98,-445.76C338.62,-449.09 357.77,-452.91 375.18,-456.39"/>
<polygon fill="black" stroke="black" stroke-width="1.5" points="374.48,-459.82 384.97,-458.35 375.85,-452.96 374.48,-459.82"/>
</g>
<!-- correspondence -->
<g id="node19" class="node">
<title>correspondence</title>
<polygon fill="#ffe6cc" stroke="black" stroke-width="1.5" points="474.82,-638 371.62,-638 371.62,-596 474.82,-596 486.82,-617 474.82,-638"/>
<text text-anchor="start" x="379.35" y="-618.7" font-family="Garmond" font-size="14.00">Correspondence</text>
<text text-anchor="start" x="408.22" y="-603.7" font-family="Garmond" font-size="14.00">Corr(c)</text>
</g>
<!-- case_metrics&#45;&gt;correspondence -->
<g id="edge22" class="edge">
<title>case_metrics&#45;&gt;correspondence</title>
<path fill="none" stroke="black" stroke-width="1.5" d="M325.65,-622.47C336.3,-621.9 347.82,-621.29 359.16,-620.68"/>
<polygon fill="black" stroke="black" stroke-width="1.5" points="359.27,-624.18 369.07,-620.15 358.9,-617.19 359.27,-624.18"/>
</g>
<!-- balance -->
<g id="node20" class="node">
<title>balance</title>
<polygon fill="#ffe6cc" stroke="black" stroke-width="1.5" points="474.82,-706 371.62,-706 371.62,-664 474.82,-664 486.82,-685 474.82,-706"/>
<text text-anchor="start" x="383.85" y="-686.7" font-family="Garmond" font-size="14.00">Balance Factor</text>
<text text-anchor="start" x="415.72" y="-671.7" font-family="Garmond" font-size="14.00">bf(c)</text>
</g>
<!-- case_metrics&#45;&gt;balance -->
<g id="edge23" class="edge">
<title>case_metrics&#45;&gt;balance</title>
<path fill="none" stroke="black" stroke-width="1.5" d="M305.69,-636C321.04,-642.14 340.89,-650.08 360.13,-657.77"/>
<polygon fill="black" stroke="black" stroke-width="1.5" points="358.66,-660.95 369.24,-661.42 361.26,-654.45 358.66,-660.95"/>
</g>
<!-- low_dim&#45;&gt;trojan -->
<g id="edge27" class="edge">
<title>low_dim&#45;&gt;trojan</title>
<path fill="none" stroke="black" stroke-width="1.5" d="M317.94,-526.55C322.42,-524.38 326.91,-522.17 331.17,-520 346.18,-512.37 362.3,-503.75 377,-495.71"/>
<polygon fill="black" stroke="black" stroke-width="1.5" points="378.36,-498.96 385.44,-491.07 374.99,-492.82 378.36,-498.96"/>
</g>
</g>
</svg>
