<?xml version="1.0" encoding="UTF-8" standalone="no"?>
<!DOCTYPE svg PUBLIC "-//W3C//DTD SVG 1.1//EN"
 "http://www.w3.org/Graphics/SVG/1.1/DTD/svg11.dtd">
<!-- Generated by graphviz version 12.2.1 (20241206.2353)
 -->
<!-- Title: D Pages: 1 -->
<svg width="521pt" height="698pt"
 viewBox="0.00 0.00 521.28 698.00" xmlns="http://www.w3.org/2000/svg" xmlns:xlink="http://www.w3.org/1999/xlink">
<g id="graph0" class="graph" transform="scale(1 1) rotate(0) translate(4 694)">
<title>D</title>
<polygon fill="white" stroke="none" points="-4,4 -4,-694 517.28,-694 517.28,4 -4,4"/>
<!-- exp_meth01 -->
<g id="node1" class="node">
<title>exp_meth01</title>
<polygon fill="#d5e8d4" stroke="black" stroke-width="1.5" points="209.17,-250 42.8,-250 0,-214 166.37,-214 209.17,-250"/>
<text text-anchor="middle" x="104.59" y="-226.2" font-family="Garmond" font-size="14.00">Property&#45;Based</text>
</g>
<!-- exp_rout -->
<g id="node3" class="node">
<title>exp_rout</title>
<polygon fill="#f8cef4" stroke="black" stroke-width="1.5" points="320.05,-374 234.3,-374 234.3,-336 320.05,-336 320.05,-374"/>
<text text-anchor="middle" x="277.17" y="-356.7" font-family="Garmond" font-size="14.00">Explainable</text>
<text text-anchor="middle" x="277.17" y="-341.7" font-family="Garmond" font-size="14.00">Processing</text>
</g>
<!-- exp_meth01&#45;&gt;exp_rout -->
<g id="edge3" class="edge">
<title>exp_meth01&#45;&gt;exp_rout</title>
<path fill="none" stroke="black" stroke-width="1.5" d="M124.87,-250.33C147.31,-271.06 186.03,-305.04 223.17,-329 223.39,-329.14 223.61,-329.28 223.83,-329.43"/>
<polygon fill="black" stroke="black" stroke-width="1.5" points="221.94,-332.37 232.33,-334.45 225.51,-326.35 221.94,-332.37"/>
</g>
<!-- storage -->
<g id="node4" class="node">
<title>storage</title>
<polygon fill="#ccff99" stroke="black" stroke-width="1.5" points="324.64,-406 300.9,-424 253.44,-424 229.7,-406 253.44,-388 300.9,-388 324.64,-406"/>
<text text-anchor="middle" x="277.17" y="-400.2" font-family="Garmond" font-size="14.00">Storage</text>
</g>
<!-- exp_meth01&#45;&gt;storage -->
<g id="edge1" class="edge">
<title>exp_meth01&#45;&gt;storage</title>
<path fill="none" stroke="black" stroke-width="1.5" d="M116.09,-250.28C134.43,-280.82 174.94,-342.65 223.17,-381 226.6,-383.72 230.37,-386.24 234.27,-388.54"/>
<polygon fill="black" stroke="black" stroke-width="1.5" points="232.29,-391.45 242.77,-393.05 235.58,-385.27 232.29,-391.45"/>
</g>
<!-- high_dim -->
<g id="node5" class="node">
<title>high_dim</title>
<polygon fill="#ffb366" stroke="black" stroke-width="1.5" points="308.71,-270 245.63,-270 223.17,-234 331.17,-234 308.71,-270"/>
<text text-anchor="middle" x="277.17" y="-253.7" font-family="Garmond" font-size="14.00">High</text>
<text text-anchor="middle" x="277.17" y="-238.7" font-family="Garmond" font-size="14.00">Dimensionality</text>
</g>
<!-- exp_meth01&#45;&gt;high_dim -->
<g id="edge5" class="edge">
<title>exp_meth01&#45;&gt;high_dim</title>
<path fill="none" stroke="black" stroke-width="1.5" d="M201.85,-243.29C207.61,-243.96 213.31,-244.63 218.83,-245.28"/>
<polygon fill="black" stroke="black" stroke-width="1.5" points="218.01,-248.7 228.35,-246.39 218.82,-241.75 218.01,-248.7"/>
</g>
<!-- concept_property -->
<g id="node6" class="node">
<title>concept_property</title>
<polygon fill="#f8cef4" stroke="black" stroke-width="1.5" points="320.05,-190 234.3,-190 234.3,-152 320.05,-152 320.05,-190"/>
<text text-anchor="middle" x="277.17" y="-172.7" font-family="Garmond" font-size="14.00">Explainable</text>
<text text-anchor="middle" x="277.17" y="-157.7" font-family="Garmond" font-size="14.00">Property</text>
</g>
<!-- exp_meth01&#45;&gt;concept_property -->
<g id="edge6" class="edge">
<title>exp_meth01&#45;&gt;concept_property</title>
<path fill="none" stroke="black" stroke-width="1.5" d="M157.23,-213.53C177.82,-206.17 201.52,-197.69 222.33,-190.25"/>
<polygon fill="black" stroke="black" stroke-width="1.5" points="223.49,-193.55 231.73,-186.89 221.14,-186.96 223.49,-193.55"/>
</g>
<!-- concept_transform -->
<g id="node7" class="node">
<title>concept_transform</title>
<polygon fill="#f8cef4" stroke="black" stroke-width="1.5" points="330.92,-88 223.42,-88 223.42,-50 330.92,-50 330.92,-88"/>
<text text-anchor="middle" x="277.17" y="-70.7" font-family="Garmond" font-size="14.00">Property</text>
<text text-anchor="middle" x="277.17" y="-55.7" font-family="Garmond" font-size="14.00">Transformation</text>
</g>
<!-- exp_meth01&#45;&gt;concept_transform -->
<g id="edge7" class="edge">
<title>exp_meth01&#45;&gt;concept_transform</title>
<path fill="none" stroke="black" stroke-width="1.5" d="M117.43,-213.96C135.64,-187.29 172.86,-136.7 223.2,-95.92"/>
<polygon fill="black" stroke="black" stroke-width="1.5" points="225.26,-98.76 230.97,-89.83 220.94,-93.25 225.26,-98.76"/>
</g>
<!-- concept_voting -->
<g id="node8" class="node">
<title>concept_voting</title>
<polygon fill="lightgrey" stroke="black" stroke-width="1.5" points="304.3,-36 250.05,-36 250.05,0 304.3,0 304.3,-36"/>
<text text-anchor="middle" x="277.17" y="-12.2" font-family="Garmond" font-size="14.00">Voting</text>
</g>
<!-- exp_meth01&#45;&gt;concept_voting -->
<g id="edge8" class="edge">
<title>exp_meth01&#45;&gt;concept_voting</title>
<path fill="none" stroke="black" stroke-width="1.5" d="M112.73,-213.74C127.93,-176.97 166.75,-93.24 223.17,-43 227.8,-38.88 233.23,-35.3 238.81,-32.24"/>
<polygon fill="black" stroke="black" stroke-width="1.5" points="240.08,-35.52 247.54,-27.99 237.01,-29.23 240.08,-35.52"/>
</g>
<!-- concept_unexp -->
<g id="node9" class="node">
<title>concept_unexp</title>
<polygon fill="#f8cef4" stroke="black" stroke-width="1.5" points="327.92,-322 226.42,-322 226.42,-284 327.92,-284 327.92,-322"/>
<text text-anchor="middle" x="277.17" y="-304.7" font-family="Garmond" font-size="14.00">Unexplainable</text>
<text text-anchor="middle" x="277.17" y="-289.7" font-family="Garmond" font-size="14.00">Component</text>
</g>
<!-- exp_meth01&#45;&gt;concept_unexp -->
<g id="edge9" class="edge">
<title>exp_meth01&#45;&gt;concept_unexp</title>
<path fill="none" stroke="black" stroke-width="1.5" d="M149.96,-250.47C170.82,-259.15 195.96,-269.61 218.29,-278.91"/>
<polygon fill="black" stroke="black" stroke-width="1.5" points="216.66,-282.02 227.24,-282.63 219.35,-275.56 216.66,-282.02"/>
</g>
<!-- prop_metrics -->
<g id="node10" class="node">
<title>prop_metrics</title>
<polygon fill="#f8cecc" stroke="black" stroke-width="1.5" points="325.57,-125.56 277.17,-138 228.77,-125.56 228.81,-105.44 325.53,-105.44 325.57,-125.56"/>
<text text-anchor="middle" x="277.17" y="-114.2" font-family="Garmond" font-size="14.00">Metrics</text>
</g>
<!-- exp_meth01&#45;&gt;prop_metrics -->
<g id="edge11" class="edge">
<title>exp_meth01&#45;&gt;prop_metrics</title>
<path fill="none" stroke="black" stroke-width="1.5" d="M127.65,-213.62C150.62,-194.98 188.08,-165.98 223.17,-145 228.1,-142.06 233.42,-139.19 238.74,-136.52"/>
<polygon fill="black" stroke="black" stroke-width="1.5" points="239.96,-139.82 247.45,-132.33 236.92,-133.51 239.96,-139.82"/>
</g>
<!-- kb -->
<g id="node11" class="node">
<title>kb</title>
<polygon fill="#ccff99" stroke="black" stroke-width="1.5" points="513.28,-278 471.25,-296 387.2,-296 345.17,-278 387.2,-260 471.25,-260 513.28,-278"/>
<text text-anchor="middle" x="429.22" y="-272.2" font-family="Garmond" font-size="14.00">Knowledgebase</text>
</g>
<!-- exp_meth01&#45;&gt;kb -->
<g id="edge12" class="edge">
<title>exp_meth01&#45;&gt;kb</title>
<path fill="none" stroke="black" stroke-width="1.5" d="M175.48,-221.13C220.57,-216.39 280.11,-214.4 331.17,-227 352.44,-232.25 374.21,-243.09 391.72,-253.43"/>
<polygon fill="black" stroke="black" stroke-width="1.5" points="389.74,-256.32 400.1,-258.56 393.4,-250.35 389.74,-256.32"/>
</g>
<!-- imbalance -->
<g id="node12" class="node">
<title>imbalance</title>
<path fill="#fff2cc" stroke="black" stroke-width="1.5" d="M321.55,-485.38C321.55,-488 301.66,-490.12 277.17,-490.12 252.68,-490.12 232.8,-488 232.8,-485.38 232.8,-485.38 232.8,-442.62 232.8,-442.62 232.8,-440 252.68,-437.88 277.17,-437.88 301.66,-437.88 321.55,-440 321.55,-442.62 321.55,-442.62 321.55,-485.38 321.55,-485.38"/>
<path fill="none" stroke="black" stroke-width="1.5" d="M321.55,-485.38C321.55,-482.75 301.66,-480.62 277.17,-480.62 252.68,-480.62 232.8,-482.75 232.8,-485.38"/>
<text text-anchor="middle" x="277.17" y="-465.7" font-family="Garmond" font-size="14.00">Imbalanced</text>
<text text-anchor="middle" x="277.17" y="-450.7" font-family="Garmond" font-size="14.00">Training Set</text>
</g>
<!-- exp_meth01&#45;&gt;imbalance -->
<g id="edge10" class="edge">
<title>exp_meth01&#45;&gt;imbalance</title>
<path fill="none" stroke="black" stroke-width="1.5" d="M112.88,-250.4C128.48,-287.98 168.2,-374.74 223.17,-431 223.35,-431.19 223.54,-431.38 223.73,-431.57"/>
<polygon fill="black" stroke="black" stroke-width="1.5" points="221.33,-434.11 231.15,-438.08 225.95,-428.85 221.33,-434.11"/>
</g>
<!-- exp_meth02 -->
<g id="node2" class="node">
<title>exp_meth02</title>
<polygon fill="#d5e8d4" stroke="black" stroke-width="1.5" points="190.59,-530 53.78,-530 18.58,-494 155.39,-494 190.59,-530"/>
<text text-anchor="middle" x="104.59" y="-506.2" font-family="Garmond" font-size="14.00">Case&#45;Based</text>
</g>
<!-- exp_meth02&#45;&gt;exp_rout -->
<g id="edge4" class="edge">
<title>exp_meth02&#45;&gt;exp_rout</title>
<path fill="none" stroke="black" stroke-width="1.5" d="M118.26,-493.9C138.1,-466.61 178.81,-414.56 223.17,-381 223.38,-380.84 223.59,-380.68 223.8,-380.53"/>
<polygon fill="black" stroke="black" stroke-width="1.5" points="225.6,-383.53 232.01,-375.1 221.74,-377.7 225.6,-383.53"/>
</g>
<!-- exp_meth02&#45;&gt;storage -->
<g id="edge2" class="edge">
<title>exp_meth02&#45;&gt;storage</title>
<path fill="none" stroke="black" stroke-width="1.5" d="M129.6,-493.73C152.85,-476.47 189.43,-450.4 223.17,-431 227.06,-428.76 231.18,-426.56 235.34,-424.43"/>
<polygon fill="black" stroke="black" stroke-width="1.5" points="236.83,-427.6 244.26,-420.05 233.74,-421.32 236.83,-427.6"/>
</g>
<!-- exp_meth02&#45;&gt;imbalance -->
<g id="edge16" class="edge">
<title>exp_meth02&#45;&gt;imbalance</title>
<path fill="none" stroke="black" stroke-width="1.5" d="M158.62,-497.08C178.32,-491.53 200.7,-485.24 220.61,-479.63"/>
<polygon fill="black" stroke="black" stroke-width="1.5" points="221.46,-483.03 230.14,-476.95 219.57,-476.29 221.46,-483.03"/>
</g>
<!-- neighbors -->
<g id="node13" class="node">
<title>neighbors</title>
<polygon fill="lightgrey" stroke="black" stroke-width="1.5" points="304.17,-670 250.17,-670 250.17,-634 304.17,-634 304.17,-670"/>
<text text-anchor="middle" x="277.17" y="-646.2" font-family="Garmond" font-size="14.00">KNN</text>
</g>
<!-- exp_meth02&#45;&gt;neighbors -->
<g id="edge18" class="edge">
<title>exp_meth02&#45;&gt;neighbors</title>
<path fill="none" stroke="black" stroke-width="1.5" d="M120.77,-530.27C141.8,-554.71 181.91,-598.31 223.17,-627 228.03,-630.38 233.42,-633.51 238.85,-636.34"/>
<polygon fill="black" stroke="black" stroke-width="1.5" points="237.31,-639.49 247.84,-640.7 240.37,-633.19 237.31,-639.49"/>
</g>
<!-- case_metrics -->
<g id="node14" class="node">
<title>case_metrics</title>
<polygon fill="#f8cecc" stroke="black" stroke-width="1.5" points="325.57,-607.56 277.17,-620 228.77,-607.56 228.81,-587.44 325.53,-587.44 325.57,-607.56"/>
<text text-anchor="middle" x="277.17" y="-596.2" font-family="Garmond" font-size="14.00">Metrics</text>
</g>
<!-- exp_meth02&#45;&gt;case_metrics -->
<g id="edge17" class="edge">
<title>exp_meth02&#45;&gt;case_metrics</title>
<path fill="none" stroke="black" stroke-width="1.5" d="M137.73,-530.5C161.19,-543.82 193.89,-562.02 223.17,-577 226.23,-578.56 229.4,-580.15 232.6,-581.72"/>
<polygon fill="black" stroke="black" stroke-width="1.5" points="230.93,-584.8 241.45,-586 233.97,-578.5 230.93,-584.8"/>
</g>
<!-- low_dim -->
<g id="node15" class="node">
<title>low_dim</title>
<polygon fill="#ffb366" stroke="black" stroke-width="1.5" points="308.71,-570 245.63,-570 223.17,-534 331.17,-534 308.71,-570"/>
<text text-anchor="middle" x="277.17" y="-553.7" font-family="Garmond" font-size="14.00">Low</text>
<text text-anchor="middle" x="277.17" y="-538.7" font-family="Garmond" font-size="14.00">Dimensionality</text>
</g>
<!-- exp_meth02&#45;&gt;low_dim -->
<g id="edge19" class="edge">
<title>exp_meth02&#45;&gt;low_dim</title>
<path fill="none" stroke="black" stroke-width="1.5" d="M184.39,-530.48C194.69,-532.89 205.12,-535.34 215.07,-537.67"/>
<polygon fill="black" stroke="black" stroke-width="1.5" points="214.18,-541.06 224.72,-539.94 215.78,-534.24 214.18,-541.06"/>
</g>
<!-- ti -->
<g id="node16" class="node">
<title>ti</title>
<polygon fill="#ccff99" stroke="black" stroke-width="1.5" points="505.4,-431 467.31,-449 391.14,-449 353.05,-431 391.14,-413 467.31,-413 505.4,-431"/>
<text text-anchor="middle" x="429.22" y="-425.2" font-family="Garmond" font-size="14.00">Training Index</text>
</g>
<!-- exp_meth02&#45;&gt;ti -->
<g id="edge15" class="edge">
<title>exp_meth02&#45;&gt;ti</title>
<path fill="none" stroke="black" stroke-width="1.5" d="M186.73,-525.34C232.72,-528.58 289.25,-524.87 331.17,-497 342.76,-489.3 335.16,-478.67 345.17,-469 352.79,-461.64 362.1,-455.53 371.69,-450.52"/>
<polygon fill="black" stroke="black" stroke-width="1.5" points="373,-453.77 380.51,-446.3 369.98,-447.46 373,-453.77"/>
</g>
<!-- storage&#45;&gt;kb -->
<g id="edge13" class="edge">
<title>storage&#45;&gt;kb</title>
<path fill="none" stroke="black" stroke-width="1.5" d="M311.73,-395.86C319.06,-392.23 326.13,-387.39 331.17,-381 350.01,-357.12 325.95,-337.58 345.17,-314 350.7,-307.22 357.75,-301.68 365.41,-297.17"/>
<polygon fill="black" stroke="black" stroke-width="1.5" points="366.83,-300.37 374.11,-292.68 363.62,-294.15 366.83,-300.37"/>
</g>
<!-- storage&#45;&gt;ti -->
<g id="edge14" class="edge">
<title>storage&#45;&gt;ti</title>
<path fill="none" stroke="black" stroke-width="1.5" d="M316.81,-412.44C330.04,-414.64 345.25,-417.18 360.1,-419.65"/>
<polygon fill="black" stroke="black" stroke-width="1.5" points="359.21,-423.05 369.65,-421.24 360.36,-416.14 359.21,-423.05"/>
</g>
<!-- handwriting -->
<g id="node22" class="node">
<title>handwriting</title>
<path fill="#e1d5e7" stroke="black" stroke-width="1.5" d="M477.35,-386.81C477.35,-390.47 455.78,-393.44 429.22,-393.44 402.67,-393.44 381.1,-390.47 381.1,-386.81 381.1,-386.81 381.1,-327.19 381.1,-327.19 381.1,-323.53 402.67,-320.56 429.22,-320.56 455.78,-320.56 477.35,-323.53 477.35,-327.19 477.35,-327.19 477.35,-386.81 477.35,-386.81"/>
<path fill="none" stroke="black" stroke-width="1.5" d="M477.35,-386.81C477.35,-383.16 455.78,-380.19 429.22,-380.19 402.67,-380.19 381.1,-383.16 381.1,-386.81"/>
<text text-anchor="middle" x="429.22" y="-366.2" font-family="Garmond" font-size="14.00">Handwriting</text>
<text text-anchor="middle" x="429.22" y="-351.2" font-family="Garmond" font-size="14.00">Binary Image</text>
<text text-anchor="middle" x="429.22" y="-336.2" font-family="Garmond" font-size="14.00">28x28 pixels</text>
</g>
<!-- high_dim&#45;&gt;handwriting -->
<g id="edge27" class="edge">
<title>high_dim&#45;&gt;handwriting</title>
<path fill="none" stroke="black" stroke-width="1.5" d="M312.71,-264.37C319.34,-267.78 325.85,-271.96 331.17,-277 340.69,-286.03 336.28,-293.34 345.17,-303 352.61,-311.08 361.51,-318.5 370.68,-325.07"/>
<polygon fill="black" stroke="black" stroke-width="1.5" points="368.56,-327.86 378.8,-330.59 372.5,-322.07 368.56,-327.86"/>
</g>
<!-- effectiveness -->
<g id="node17" class="node">
<title>effectiveness</title>
<polygon fill="#ffe6cc" stroke="black" stroke-width="1.5" points="474.82,-209 371.62,-209 371.62,-167 474.82,-167 486.82,-188 474.82,-209"/>
<text text-anchor="start" x="389.1" y="-189.7" font-family="Garmond" font-size="14.00">Effectiveness</text>
<text text-anchor="start" x="413.47" y="-174.7" font-family="Garmond" font-size="14.00">E(j,c)</text>
</g>
<!-- prop_metrics&#45;&gt;effectiveness -->
<g id="edge20" class="edge">
<title>prop_metrics&#45;&gt;effectiveness</title>
<path fill="none" stroke="black" stroke-width="1.5" d="M304.12,-131.42C312.84,-135.47 322.54,-140.22 331.17,-145 337.64,-148.59 338.61,-150.58 345.17,-154 350.09,-156.56 355.26,-159.07 360.49,-161.49"/>
<polygon fill="black" stroke="black" stroke-width="1.5" points="358.67,-164.51 369.23,-165.39 361.53,-158.12 358.67,-164.51"/>
</g>
<!-- confidence -->
<g id="node18" class="node">
<title>confidence</title>
<polygon fill="#ffe6cc" stroke="black" stroke-width="1.5" points="474.82,-141 371.62,-141 371.62,-99 474.82,-99 486.82,-120 474.82,-141"/>
<text text-anchor="start" x="395.1" y="-121.7" font-family="Garmond" font-size="14.00">Confidence</text>
<text text-anchor="start" x="407.1" y="-106.7" font-family="Garmond" font-size="14.00">Conf(c)</text>
</g>
<!-- prop_metrics&#45;&gt;confidence -->
<g id="edge21" class="edge">
<title>prop_metrics&#45;&gt;confidence</title>
<path fill="none" stroke="black" stroke-width="1.5" d="M325.65,-120C336.3,-120 347.82,-120 359.16,-120"/>
<polygon fill="black" stroke="black" stroke-width="1.5" points="359.06,-123.5 369.06,-120 359.06,-116.5 359.06,-123.5"/>
</g>
<!-- explainability -->
<g id="node19" class="node">
<title>explainability</title>
<polygon fill="#ffe6cc" stroke="black" stroke-width="1.5" points="474.82,-73 371.62,-73 371.62,-31 474.82,-31 486.82,-52 474.82,-73"/>
<text text-anchor="start" x="389.85" y="-53.7" font-family="Garmond" font-size="14.00">Explainability</text>
<text text-anchor="start" x="413.47" y="-38.7" font-family="Garmond" font-size="14.00">Ex(c)</text>
</g>
<!-- prop_metrics&#45;&gt;explainability -->
<g id="edge22" class="edge">
<title>prop_metrics&#45;&gt;explainability</title>
<path fill="none" stroke="black" stroke-width="1.5" d="M311.58,-105.05C318.16,-101.89 324.94,-98.45 331.17,-95 337.64,-91.41 338.61,-89.42 345.17,-86 350.09,-83.44 355.26,-80.93 360.49,-78.51"/>
<polygon fill="black" stroke="black" stroke-width="1.5" points="361.53,-81.88 369.23,-74.61 358.67,-75.49 361.53,-81.88"/>
</g>
<!-- imbalance&#45;&gt;handwriting -->
<g id="edge25" class="edge">
<title>imbalance&#45;&gt;handwriting</title>
<path fill="none" stroke="black" stroke-width="1.5" d="M321.56,-439.66C324.99,-436.95 328.25,-434.06 331.17,-431 339.96,-421.79 336.27,-415.11 345.17,-406 352.57,-398.43 361.38,-391.62 370.45,-385.64"/>
<polygon fill="black" stroke="black" stroke-width="1.5" points="372.16,-388.7 378.81,-380.45 368.47,-382.75 372.16,-388.7"/>
</g>
<!-- trojan -->
<g id="node23" class="node">
<title>trojan</title>
<path fill="#e1d5e7" stroke="black" stroke-width="1.5" d="M470.97,-541.81C470.97,-545.47 452.26,-548.44 429.22,-548.44 406.19,-548.44 387.47,-545.47 387.47,-541.81 387.47,-541.81 387.47,-482.19 387.47,-482.19 387.47,-478.53 406.19,-475.56 429.22,-475.56 452.26,-475.56 470.97,-478.53 470.97,-482.19 470.97,-482.19 470.97,-541.81 470.97,-541.81"/>
<path fill="none" stroke="black" stroke-width="1.5" d="M470.97,-541.81C470.97,-538.16 452.26,-535.19 429.22,-535.19 406.19,-535.19 387.47,-538.16 387.47,-541.81"/>
<text text-anchor="middle" x="429.22" y="-521.2" font-family="Garmond" font-size="14.00">Trojan</text>
<text text-anchor="middle" x="429.22" y="-506.2" font-family="Garmond" font-size="14.00">Text&#45;Based</text>
<text text-anchor="middle" x="429.22" y="-491.2" font-family="Garmond" font-size="14.00">5 Features</text>
</g>
<!-- imbalance&#45;&gt;trojan -->
<g id="edge26" class="edge">
<title>imbalance&#45;&gt;trojan</title>
<path fill="none" stroke="black" stroke-width="1.5" d="M321.98,-478.01C338.78,-483.39 358.14,-489.58 375.68,-495.19"/>
<polygon fill="black" stroke="black" stroke-width="1.5" points="374.44,-498.47 385.03,-498.18 376.57,-491.8 374.44,-498.47"/>
</g>
<!-- correspondence -->
<g id="node20" class="node">
<title>correspondence</title>
<polygon fill="#ffe6cc" stroke="black" stroke-width="1.5" points="474.82,-684 371.62,-684 371.62,-642 474.82,-642 486.82,-663 474.82,-684"/>
<text text-anchor="start" x="379.35" y="-664.7" font-family="Garmond" font-size="14.00">Correspondence</text>
<text text-anchor="start" x="408.22" y="-649.7" font-family="Garmond" font-size="14.00">Corr(c)</text>
</g>
<!-- case_metrics&#45;&gt;correspondence -->
<g id="edge23" class="edge">
<title>case_metrics&#45;&gt;correspondence</title>
<path fill="none" stroke="black" stroke-width="1.5" d="M305.34,-613.05C320.73,-619.3 340.74,-627.43 360.12,-635.31"/>
<polygon fill="black" stroke="black" stroke-width="1.5" points="358.73,-638.53 369.31,-639.05 361.37,-632.04 358.73,-638.53"/>
</g>
<!-- balance -->
<g id="node21" class="node">
<title>balance</title>
<polygon fill="#ffe6cc" stroke="black" stroke-width="1.5" points="474.82,-616 371.62,-616 371.62,-574 474.82,-574 486.82,-595 474.82,-616"/>
<text text-anchor="start" x="383.85" y="-596.7" font-family="Garmond" font-size="14.00">Balance Factor</text>
<text text-anchor="start" x="415.72" y="-581.7" font-family="Garmond" font-size="14.00">bf(c)</text>
</g>
<!-- case_metrics&#45;&gt;balance -->
<g id="edge24" class="edge">
<title>case_metrics&#45;&gt;balance</title>
<path fill="none" stroke="black" stroke-width="1.5" d="M325.65,-599.79C336.3,-599.29 347.82,-598.75 359.16,-598.22"/>
<polygon fill="black" stroke="black" stroke-width="1.5" points="359.24,-601.72 369.07,-597.76 358.92,-594.73 359.24,-601.72"/>
</g>
<!-- low_dim&#45;&gt;trojan -->
<g id="edge28" class="edge">
<title>low_dim&#45;&gt;trojan</title>
<path fill="none" stroke="black" stroke-width="1.5" d="M328.97,-538.46C344,-534.45 360.48,-530.06 375.62,-526.02"/>
<polygon fill="black" stroke="black" stroke-width="1.5" points="376.47,-529.42 385.23,-523.46 374.66,-522.66 376.47,-529.42"/>
</g>
</g>
</svg>
