<?xml version="1.0" encoding="UTF-8" standalone="no"?>
<!DOCTYPE svg PUBLIC "-//W3C//DTD SVG 1.1//EN"
 "http://www.w3.org/Graphics/SVG/1.1/DTD/svg11.dtd">
<!-- Generated by graphviz version 12.2.1 (20241206.2353)
 -->
<!-- Title: artificial_neuron Pages: 1 -->
<svg width="548pt" height="260pt"
 viewBox="0.00 0.00 547.75 260.00" xmlns="http://www.w3.org/2000/svg" xmlns:xlink="http://www.w3.org/1999/xlink">
<g id="graph0" class="graph" transform="scale(1 1) rotate(0) translate(4 256)">
<title>artificial_neuron</title>
<polygon fill="white" stroke="none" points="-4,4 -4,-256 543.75,-256 543.75,4 -4,4"/>
<!-- x0 -->
<g id="node1" class="node">
<title>x0</title>
<text text-anchor="middle" x="35" y="-225.5" font-family="Garmond" font-size="20.00">Inputs</text>
</g>
<!-- summing -->
<g id="node7" class="node">
<title>summing</title>
<ellipse fill="#dae8fc" stroke="black" cx="228.38" cy="-126" rx="48.08" ry="48.08"/>
<text text-anchor="start" x="225.75" y="-138" font-family="Garmond" font-size="20.00"> </text>
<text text-anchor="start" x="208.12" y="-118" font-family="Garmond" font-size="20.00">Σw</text>
<text text-anchor="start" x="234.38" y="-118" font-family="Garmond" baseline-shift="sub" font-size="12.00">i</text>
<text text-anchor="start" x="236.62" y="-118" font-family="Garmond" font-size="20.00">x</text>
<text text-anchor="start" x="246.38" y="-118" font-family="Garmond" baseline-shift="sub" font-size="12.00">i</text>
<text text-anchor="start" x="225.75" y="-98" font-family="Garmond" font-size="20.00"> </text>
</g>
<!-- x0&#45;&gt;summing -->
<g id="edge1" class="edge">
<title>x0&#45;&gt;summing</title>
<path fill="none" stroke="none" d="M67.6,-216.17C97.07,-199.53 141.55,-174.43 176.1,-154.93"/>
<polygon fill="none" stroke="none" points="177.72,-158.04 184.7,-150.08 174.28,-151.95 177.72,-158.04"/>
<text text-anchor="middle" x="124" y="-217.51" font-family="Garmond" font-size="20.00">Weights</text>
</g>
<!-- x1 -->
<g id="node2" class="node">
<title>x1</title>
<text text-anchor="start" x="27.5" y="-172.5" font-family="Garmond" font-size="20.00">x</text>
<text text-anchor="start" x="37.25" y="-172.5" font-family="Garmond" baseline-shift="sub" font-size="12.00">1</text>
</g>
<!-- x1&#45;&gt;summing -->
<g id="edge2" class="edge">
<title>x1&#45;&gt;summing</title>
<path fill="none" stroke="black" d="M61.81,-172.72C89.64,-164.86 134.81,-152.12 170.95,-141.92"/>
<polygon fill="black" stroke="black" points="171.71,-145.34 180.39,-139.26 169.81,-138.61 171.71,-145.34"/>
<text text-anchor="start" x="114.62" y="-170.24" font-family="Garmond" font-size="20.00">w</text>
<text text-anchor="start" x="128.88" y="-170.24" font-family="Garmond" baseline-shift="sub" font-size="10.00">1</text>
</g>
<!-- x2 -->
<g id="node3" class="node">
<title>x2</title>
<text text-anchor="start" x="27.5" y="-118.5" font-family="Garmond" font-size="20.00">x</text>
<text text-anchor="start" x="37.25" y="-118.5" font-family="Garmond" baseline-shift="sub" font-size="12.00">2</text>
</g>
<!-- x2&#45;&gt;summing -->
<g id="edge3" class="edge">
<title>x2&#45;&gt;summing</title>
<path fill="none" stroke="black" d="M61.81,-126C89.06,-126 132.94,-126 168.67,-126"/>
<polygon fill="black" stroke="black" points="168.45,-129.5 178.45,-126 168.45,-122.5 168.45,-129.5"/>
<text text-anchor="start" x="114.62" y="-129" font-family="Garmond" font-size="20.00">w</text>
<text text-anchor="start" x="128.88" y="-129" font-family="Garmond" baseline-shift="sub" font-size="10.00">2</text>
</g>
<!-- xm -->
<g id="node4" class="node">
<title>xm</title>
<text text-anchor="middle" x="35" y="-77.9" font-family="Garmond" font-size="8.00">.</text>
<text text-anchor="middle" x="35" y="-68.9" font-family="Garmond" font-size="8.00">.</text>
<text text-anchor="middle" x="35" y="-59.9" font-family="Garmond" font-size="8.00">.</text>
</g>
<!-- xm&#45;&gt;summing -->
<!-- xn -->
<g id="node5" class="node">
<title>xn</title>
<text text-anchor="start" x="27.5" y="-10.5" font-family="Garmond" font-size="20.00">x</text>
<text text-anchor="start" x="37.25" y="-10.5" font-family="Garmond" baseline-shift="sub" font-size="12.00">n</text>
</g>
<!-- xn&#45;&gt;summing -->
<g id="edge5" class="edge">
<title>xn&#45;&gt;summing</title>
<path fill="none" stroke="black" d="M61.81,-32.57C91.03,-49.06 139.37,-76.33 176.29,-97.17"/>
<polygon fill="black" stroke="black" points="174.15,-99.98 184.58,-101.85 177.59,-93.88 174.15,-99.98"/>
<text text-anchor="start" x="114.62" y="-66" font-family="Garmond" font-size="20.00">w</text>
<text text-anchor="start" x="128.88" y="-66" font-family="Garmond" baseline-shift="sub" font-size="10.00">n</text>
</g>
<!-- sumlabel -->
<g id="node6" class="node">
<title>sumlabel</title>
<text text-anchor="middle" x="228.38" y="-219" font-family="Garmond" font-size="20.00">Summing</text>
<text text-anchor="middle" x="228.38" y="-198" font-family="Garmond" font-size="20.00">Junction</text>
</g>
<!-- activation -->
<g id="node9" class="node">
<title>activation</title>
<path fill="#f8cecc" stroke="black" d="M408.62,-171C408.62,-171 342.62,-171 342.62,-171 336.62,-171 330.62,-165 330.62,-159 330.62,-159 330.62,-93 330.62,-93 330.62,-87 336.62,-81 342.62,-81 342.62,-81 408.62,-81 408.62,-81 414.62,-81 420.62,-87 420.62,-93 420.62,-93 420.62,-159 420.62,-159 420.62,-165 414.62,-171 408.62,-171"/>
<text text-anchor="middle" x="375.62" y="-116" font-family="Garmond" font-size="20.00">A(s)</text>
<text text-anchor="middle" x="375.62" y="-95" font-family="Garmond" font-size="20.00"> </text>
</g>
<!-- summing&#45;&gt;activation -->
<g id="edge6" class="edge">
<title>summing&#45;&gt;activation</title>
<path fill="none" stroke="black" d="M276.94,-126C290.38,-126 305.13,-126 319,-126"/>
<polygon fill="black" stroke="black" points="318.89,-129.5 328.89,-126 318.89,-122.5 318.89,-129.5"/>
<text text-anchor="middle" x="301.62" y="-128" font-family="Garmond" font-size="20.00">s</text>
</g>
<!-- actlabel -->
<g id="node8" class="node">
<title>actlabel</title>
<text text-anchor="middle" x="375.62" y="-216" font-family="Garmond" font-size="20.00">Activation</text>
<text text-anchor="middle" x="375.62" y="-195" font-family="Garmond" font-size="20.00">Function</text>
</g>
<!-- y -->
<g id="node11" class="node">
<title>y</title>
<text text-anchor="middle" x="501.75" y="-117.5" font-family="Garmond" font-size="20.00">y</text>
</g>
<!-- activation&#45;&gt;y -->
<g id="edge7" class="edge">
<title>activation&#45;&gt;y</title>
<path fill="none" stroke="black" d="M421.09,-126C435.08,-126 450.36,-126 463.77,-126"/>
<polygon fill="black" stroke="black" points="463.48,-129.5 473.48,-126 463.48,-122.5 463.48,-129.5"/>
</g>
<!-- ylabel -->
<g id="node10" class="node">
<title>ylabel</title>
<text text-anchor="middle" x="501.75" y="-171.5" font-family="Garmond" font-size="20.00">Output</text>
</g>
</g>
</svg>
