<?xml version="1.0" encoding="UTF-8" standalone="no"?>
<!DOCTYPE svg PUBLIC "-//W3C//DTD SVG 1.1//EN"
 "http://www.w3.org/Graphics/SVG/1.1/DTD/svg11.dtd">
<!-- Generated by graphviz version 12.2.1 (20241206.2353)
 -->
<!-- Title: AI Pages: 1 -->
<svg width="836pt" height="281pt"
 viewBox="0.00 0.00 836.25 280.51" xmlns="http://www.w3.org/2000/svg" xmlns:xlink="http://www.w3.org/1999/xlink">
<g id="graph0" class="graph" transform="scale(1 1) rotate(0) translate(4 276.51)">
<title>AI</title>
<polygon fill="white" stroke="none" points="-4,4 -4,-276.51 832.25,-276.51 832.25,4 -4,4"/>
<!-- x1 -->
<g id="node1" class="node">
<title>x1</title>
<text text-anchor="start" x="19.5" y="-190.01" font-family="Garmond" font-size="20.00">x</text>
<text text-anchor="start" x="29.25" y="-190.01" font-family="Garmond" baseline-shift="sub" font-size="12.00">1</text>
</g>
<!-- a -->
<g id="node6" class="node">
<title>a</title>
<ellipse fill="#d5e8d4" stroke="black" cx="147.88" cy="-197.51" rx="20.51" ry="20.51"/>
<text text-anchor="middle" x="147.88" y="-189.01" font-family="Garmond" font-size="20.00">a</text>
</g>
<!-- x1&#45;&gt;a -->
<g id="edge1" class="edge">
<title>x1&#45;&gt;a</title>
<path fill="none" stroke="black" d="M53.79,-197.51C74.41,-197.51 103.07,-197.51 123.13,-197.51"/>
<polygon fill="black" stroke="black" points="123,-198.38 125.5,-197.51 123,-196.63 123,-198.38"/>
</g>
<!-- x2 -->
<g id="node2" class="node">
<title>x2</title>
<text text-anchor="start" x="19.5" y="-131.01" font-family="Garmond" font-size="20.00">x</text>
<text text-anchor="start" x="29.25" y="-131.01" font-family="Garmond" baseline-shift="sub" font-size="12.00">2</text>
</g>
<!-- b -->
<g id="node7" class="node">
<title>b</title>
<ellipse fill="#d5e8d4" stroke="black" cx="147.88" cy="-138.51" rx="20.51" ry="20.51"/>
<text text-anchor="middle" x="147.88" y="-130.01" font-family="Garmond" font-size="20.00">b</text>
</g>
<!-- x2&#45;&gt;b -->
<g id="edge2" class="edge">
<title>x2&#45;&gt;b</title>
<path fill="none" stroke="black" d="M53.79,-138.51C74.41,-138.51 103.07,-138.51 123.13,-138.51"/>
<polygon fill="black" stroke="black" points="123,-139.38 125.5,-138.51 123,-137.63 123,-139.38"/>
</g>
<!-- x3 -->
<g id="node3" class="node">
<title>x3</title>
<text text-anchor="start" x="19.5" y="-72.01" font-family="Garmond" font-size="20.00">x</text>
<text text-anchor="start" x="29.25" y="-72.01" font-family="Garmond" baseline-shift="sub" font-size="12.00">3</text>
</g>
<!-- c -->
<g id="node8" class="node">
<title>c</title>
<ellipse fill="#d5e8d4" stroke="black" cx="147.88" cy="-79.51" rx="20.51" ry="20.51"/>
<text text-anchor="middle" x="147.88" y="-71.01" font-family="Garmond" font-size="20.00">c</text>
</g>
<!-- x3&#45;&gt;c -->
<g id="edge3" class="edge">
<title>x3&#45;&gt;c</title>
<path fill="none" stroke="black" d="M53.79,-79.51C74.41,-79.51 103.07,-79.51 123.13,-79.51"/>
<polygon fill="black" stroke="black" points="123,-80.38 125.5,-79.51 123,-78.63 123,-80.38"/>
</g>
<!-- x4 -->
<g id="node4" class="node">
<title>x4</title>
<text text-anchor="start" x="19.5" y="-13.01" font-family="Garmond" font-size="20.00">x</text>
<text text-anchor="start" x="29.25" y="-13.01" font-family="Garmond" baseline-shift="sub" font-size="12.00">4</text>
</g>
<!-- d -->
<g id="node9" class="node">
<title>d</title>
<ellipse fill="#d5e8d4" stroke="black" cx="147.88" cy="-20.51" rx="20.51" ry="20.51"/>
<text text-anchor="middle" x="147.88" y="-12.01" font-family="Garmond" font-size="20.00">d</text>
</g>
<!-- x4&#45;&gt;d -->
<g id="edge4" class="edge">
<title>x4&#45;&gt;d</title>
<path fill="none" stroke="black" d="M53.79,-20.51C74.41,-20.51 103.07,-20.51 123.13,-20.51"/>
<polygon fill="black" stroke="black" points="123,-21.38 125.5,-20.51 123,-19.63 123,-21.38"/>
</g>
<!-- i0 -->
<g id="node5" class="node">
<title>i0</title>
<text text-anchor="middle" x="147.88" y="-246.01" font-family="Garmond" font-size="20.00">Input Layer</text>
</g>
<!-- h1 -->
<g id="node10" class="node">
<title>h1</title>
<text text-anchor="middle" x="315" y="-246.01" font-family="Garmond" font-size="20.00">Hidden Layer1</text>
</g>
<!-- i0&#45;&gt;h1 -->
<!-- e -->
<g id="node11" class="node">
<title>e</title>
<ellipse fill="#dae8fc" stroke="black" cx="315" cy="-168.51" rx="20.51" ry="20.51"/>
<text text-anchor="middle" x="315" y="-160.01" font-family="Garmond" font-size="20.00">e</text>
</g>
<!-- a&#45;&gt;e -->
<g id="edge8" class="edge">
<title>a&#45;&gt;e</title>
<path fill="none" stroke="black" d="M168.47,-194.07C199,-188.7 257.84,-178.37 290.58,-172.62"/>
<polygon fill="black" stroke="black" points="290.63,-173.5 292.94,-172.2 290.33,-171.77 290.63,-173.5"/>
</g>
<!-- f -->
<g id="node12" class="node">
<title>f</title>
<ellipse fill="#dae8fc" stroke="black" cx="315" cy="-109.51" rx="20.51" ry="20.51"/>
<text text-anchor="middle" x="315" y="-101.01" font-family="Garmond" font-size="20.00">f</text>
</g>
<!-- a&#45;&gt;f -->
<g id="edge12" class="edge">
<title>a&#45;&gt;f</title>
<path fill="none" stroke="black" d="M166.55,-188.09C197.21,-171.75 260.14,-138.21 292.99,-120.7"/>
<polygon fill="black" stroke="black" points="293.33,-121.52 295.12,-119.57 292.5,-119.97 293.33,-121.52"/>
</g>
<!-- g -->
<g id="node13" class="node">
<title>g</title>
<ellipse fill="#dae8fc" stroke="black" cx="315" cy="-50.51" rx="20.51" ry="20.51"/>
<text text-anchor="middle" x="315" y="-42.01" font-family="Garmond" font-size="20.00">g</text>
</g>
<!-- a&#45;&gt;g -->
<g id="edge16" class="edge">
<title>a&#45;&gt;g</title>
<path fill="none" stroke="black" d="M163.82,-184.2C194.4,-156.98 263.96,-95.05 296.55,-66.04"/>
<polygon fill="black" stroke="black" points="296.79,-67 298.08,-64.68 295.63,-65.69 296.79,-67"/>
</g>
<!-- b&#45;&gt;e -->
<g id="edge9" class="edge">
<title>b&#45;&gt;e</title>
<path fill="none" stroke="black" d="M168.47,-142.07C199,-147.61 257.84,-158.3 290.58,-164.25"/>
<polygon fill="black" stroke="black" points="290.33,-165.09 292.95,-164.68 290.64,-163.37 290.33,-165.09"/>
</g>
<!-- b&#45;&gt;f -->
<g id="edge13" class="edge">
<title>b&#45;&gt;f</title>
<path fill="none" stroke="black" d="M168.47,-135.07C199,-129.7 257.84,-119.37 290.58,-113.62"/>
<polygon fill="black" stroke="black" points="290.63,-114.5 292.94,-113.2 290.33,-112.77 290.63,-114.5"/>
</g>
<!-- b&#45;&gt;g -->
<g id="edge17" class="edge">
<title>b&#45;&gt;g</title>
<path fill="none" stroke="black" d="M166.55,-129.09C197.21,-112.75 260.14,-79.21 292.99,-61.7"/>
<polygon fill="black" stroke="black" points="293.33,-62.52 295.12,-60.57 292.5,-60.97 293.33,-62.52"/>
</g>
<!-- c&#45;&gt;e -->
<g id="edge10" class="edge">
<title>c&#45;&gt;e</title>
<path fill="none" stroke="black" d="M166.55,-89.03C197.21,-105.56 260.14,-139.48 292.99,-157.18"/>
<polygon fill="black" stroke="black" points="292.51,-157.92 295.12,-158.33 293.34,-156.38 292.51,-157.92"/>
</g>
<!-- c&#45;&gt;f -->
<g id="edge14" class="edge">
<title>c&#45;&gt;f</title>
<path fill="none" stroke="black" d="M168.47,-83.07C199,-88.61 257.84,-99.3 290.58,-105.25"/>
<polygon fill="black" stroke="black" points="290.33,-106.09 292.95,-105.68 290.64,-104.37 290.33,-106.09"/>
</g>
<!-- c&#45;&gt;g -->
<g id="edge18" class="edge">
<title>c&#45;&gt;g</title>
<path fill="none" stroke="black" d="M168.47,-76.07C199,-70.7 257.84,-60.37 290.58,-54.62"/>
<polygon fill="black" stroke="black" points="290.63,-55.5 292.94,-54.2 290.33,-53.77 290.63,-55.5"/>
</g>
<!-- d&#45;&gt;e -->
<g id="edge11" class="edge">
<title>d&#45;&gt;e</title>
<path fill="none" stroke="black" d="M163.82,-33.9C194.4,-61.31 263.96,-123.66 296.55,-152.86"/>
<polygon fill="black" stroke="black" points="295.63,-153.22 298.08,-154.24 296.8,-151.92 295.63,-153.22"/>
</g>
<!-- d&#45;&gt;f -->
<g id="edge15" class="edge">
<title>d&#45;&gt;f</title>
<path fill="none" stroke="black" d="M166.55,-30.03C197.21,-46.56 260.14,-80.48 292.99,-98.18"/>
<polygon fill="black" stroke="black" points="292.51,-98.92 295.12,-99.33 293.34,-97.38 292.51,-98.92"/>
</g>
<!-- d&#45;&gt;g -->
<g id="edge19" class="edge">
<title>d&#45;&gt;g</title>
<path fill="none" stroke="black" d="M168.47,-24.07C199,-29.61 257.84,-40.3 290.58,-46.25"/>
<polygon fill="black" stroke="black" points="290.33,-47.09 292.95,-46.68 290.64,-45.37 290.33,-47.09"/>
</g>
<!-- h2 -->
<g id="node14" class="node">
<title>h2</title>
<text text-anchor="middle" x="497.5" y="-246.01" font-family="Garmond" font-size="20.00">Hidden Layer2</text>
</g>
<!-- h1&#45;&gt;h2 -->
<!-- h -->
<g id="node15" class="node">
<title>h</title>
<ellipse fill="#dae8fc" stroke="black" cx="497.5" cy="-168.51" rx="20.51" ry="20.51"/>
<text text-anchor="middle" x="497.5" y="-160.01" font-family="Garmond" font-size="20.00">h</text>
</g>
<!-- e&#45;&gt;h -->
<g id="edge20" class="edge">
<title>e&#45;&gt;h</title>
<path fill="none" stroke="black" d="M335.66,-168.51C369.07,-168.51 436.8,-168.51 472.79,-168.51"/>
<polygon fill="black" stroke="black" points="472.58,-169.38 475.08,-168.51 472.58,-167.63 472.58,-169.38"/>
</g>
<!-- i -->
<g id="node16" class="node">
<title>i</title>
<ellipse fill="#dae8fc" stroke="black" cx="497.5" cy="-109.51" rx="20.51" ry="20.51"/>
<text text-anchor="middle" x="497.5" y="-101.01" font-family="Garmond" font-size="20.00">i</text>
</g>
<!-- e&#45;&gt;i -->
<g id="edge23" class="edge">
<title>e&#45;&gt;i</title>
<path fill="none" stroke="black" d="M334.98,-162.3C368.42,-151.37 437.73,-128.72 473.71,-116.96"/>
<polygon fill="black" stroke="black" points="473.96,-117.79 476.07,-116.18 473.42,-116.13 473.96,-117.79"/>
</g>
<!-- j -->
<g id="node17" class="node">
<title>j</title>
<ellipse fill="#dae8fc" stroke="black" cx="497.5" cy="-50.51" rx="20.51" ry="20.51"/>
<text text-anchor="middle" x="497.5" y="-42.01" font-family="Garmond" font-size="20.00">j</text>
</g>
<!-- e&#45;&gt;j -->
<g id="edge26" class="edge">
<title>e&#45;&gt;j</title>
<path fill="none" stroke="black" d="M332.66,-157.62C365.97,-135.84 440.67,-87.01 476.54,-63.56"/>
<polygon fill="black" stroke="black" points="477,-64.3 478.62,-62.2 476.04,-62.83 477,-64.3"/>
</g>
<!-- f&#45;&gt;h -->
<g id="edge21" class="edge">
<title>f&#45;&gt;h</title>
<path fill="none" stroke="black" d="M334.98,-115.71C368.42,-126.64 437.73,-149.3 473.71,-161.06"/>
<polygon fill="black" stroke="black" points="473.42,-161.88 476.07,-161.83 473.96,-160.22 473.42,-161.88"/>
</g>
<!-- f&#45;&gt;i -->
<g id="edge24" class="edge">
<title>f&#45;&gt;i</title>
<path fill="none" stroke="black" d="M335.66,-109.51C369.07,-109.51 436.8,-109.51 472.79,-109.51"/>
<polygon fill="black" stroke="black" points="472.58,-110.38 475.08,-109.51 472.58,-108.63 472.58,-110.38"/>
</g>
<!-- f&#45;&gt;j -->
<g id="edge27" class="edge">
<title>f&#45;&gt;j</title>
<path fill="none" stroke="black" d="M334.98,-103.3C368.42,-92.37 437.73,-69.72 473.71,-57.96"/>
<polygon fill="black" stroke="black" points="473.96,-58.79 476.07,-57.18 473.42,-57.13 473.96,-58.79"/>
</g>
<!-- g&#45;&gt;h -->
<g id="edge22" class="edge">
<title>g&#45;&gt;h</title>
<path fill="none" stroke="black" d="M332.66,-61.4C365.97,-83.17 440.67,-132.01 476.54,-155.45"/>
<polygon fill="black" stroke="black" points="476.04,-156.18 478.62,-156.81 477,-154.71 476.04,-156.18"/>
</g>
<!-- g&#45;&gt;i -->
<g id="edge25" class="edge">
<title>g&#45;&gt;i</title>
<path fill="none" stroke="black" d="M334.98,-56.71C368.42,-67.64 437.73,-90.3 473.71,-102.06"/>
<polygon fill="black" stroke="black" points="473.42,-102.88 476.07,-102.83 473.96,-101.22 473.42,-102.88"/>
</g>
<!-- g&#45;&gt;j -->
<g id="edge28" class="edge">
<title>g&#45;&gt;j</title>
<path fill="none" stroke="black" d="M335.66,-50.51C369.07,-50.51 436.8,-50.51 472.79,-50.51"/>
<polygon fill="black" stroke="black" points="472.58,-51.38 475.08,-50.51 472.58,-49.63 472.58,-51.38"/>
</g>
<!-- ol -->
<g id="node18" class="node">
<title>ol</title>
<text text-anchor="middle" x="672.5" y="-246.01" font-family="Garmond" font-size="20.00">Output Layer</text>
</g>
<!-- h2&#45;&gt;ol -->
<!-- k -->
<g id="node19" class="node">
<title>k</title>
<ellipse fill="#f8cecc" stroke="black" cx="672.5" cy="-139.51" rx="20.51" ry="20.51"/>
<text text-anchor="middle" x="672.5" y="-131.01" font-family="Garmond" font-size="20.00">k</text>
</g>
<!-- h&#45;&gt;k -->
<g id="edge29" class="edge">
<title>h&#45;&gt;k</title>
<path fill="none" stroke="black" d="M518.01,-165.24C550.07,-159.86 613.76,-149.19 648.16,-143.42"/>
<polygon fill="black" stroke="black" points="647.98,-144.34 650.3,-143.06 647.69,-142.61 647.98,-144.34"/>
</g>
<!-- l -->
<g id="node20" class="node">
<title>l</title>
<ellipse fill="#f8cecc" stroke="black" cx="672.5" cy="-80.51" rx="20.51" ry="20.51"/>
<text text-anchor="middle" x="672.5" y="-72.01" font-family="Garmond" font-size="20.00">l</text>
</g>
<!-- h&#45;&gt;l -->
<g id="edge32" class="edge">
<title>h&#45;&gt;l</title>
<path fill="none" stroke="black" d="M516.36,-159.42C548.56,-143.04 616.17,-108.65 650.52,-91.18"/>
<polygon fill="black" stroke="black" points="650.55,-92.14 652.39,-90.23 649.76,-90.58 650.55,-92.14"/>
</g>
<!-- i&#45;&gt;k -->
<g id="edge30" class="edge">
<title>i&#45;&gt;k</title>
<path fill="none" stroke="black" d="M518.01,-112.89C550.07,-118.45 613.76,-129.49 648.16,-135.46"/>
<polygon fill="black" stroke="black" points="647.69,-136.27 650.31,-135.83 647.99,-134.54 647.69,-136.27"/>
</g>
<!-- i&#45;&gt;l -->
<g id="edge33" class="edge">
<title>i&#45;&gt;l</title>
<path fill="none" stroke="black" d="M518.01,-106.24C550.07,-100.86 613.76,-90.19 648.16,-84.42"/>
<polygon fill="black" stroke="black" points="647.98,-85.34 650.3,-84.06 647.69,-83.61 647.98,-85.34"/>
</g>
<!-- j&#45;&gt;k -->
<g id="edge31" class="edge">
<title>j&#45;&gt;k</title>
<path fill="none" stroke="black" d="M516.36,-59.7C548.56,-76.26 616.17,-111.04 650.52,-128.71"/>
<polygon fill="black" stroke="black" points="649.77,-129.31 652.39,-129.67 650.57,-127.75 649.77,-129.31"/>
</g>
<!-- j&#45;&gt;l -->
<g id="edge34" class="edge">
<title>j&#45;&gt;l</title>
<path fill="none" stroke="black" d="M518.01,-53.89C550.07,-59.45 613.76,-70.49 648.16,-76.46"/>
<polygon fill="black" stroke="black" points="647.69,-77.27 650.31,-76.83 647.99,-75.54 647.69,-77.27"/>
</g>
<!-- o1 -->
<g id="node21" class="node">
<title>o1</title>
<text text-anchor="start" x="793" y="-132.01" font-family="Garmond" font-size="20.00">o</text>
<text text-anchor="start" x="804.25" y="-132.01" font-family="Garmond" baseline-shift="sub" font-size="12.00">1</text>
</g>
<!-- k&#45;&gt;o1 -->
<g id="edge35" class="edge">
<title>k&#45;&gt;o1</title>
<path fill="none" stroke="black" d="M693.3,-139.51C714.06,-139.51 746.89,-139.51 770.71,-139.51"/>
<polygon fill="black" stroke="black" points="770.43,-140.38 772.93,-139.51 770.43,-138.63 770.43,-140.38"/>
</g>
<!-- o2 -->
<g id="node22" class="node">
<title>o2</title>
<text text-anchor="start" x="793" y="-73.01" font-family="Garmond" font-size="20.00">o</text>
<text text-anchor="start" x="804.25" y="-73.01" font-family="Garmond" baseline-shift="sub" font-size="12.00">2</text>
</g>
<!-- l&#45;&gt;o2 -->
<g id="edge36" class="edge">
<title>l&#45;&gt;o2</title>
<path fill="none" stroke="black" d="M693.3,-80.51C714.06,-80.51 746.89,-80.51 770.71,-80.51"/>
<polygon fill="black" stroke="black" points="770.43,-81.38 772.93,-80.51 770.43,-79.63 770.43,-81.38"/>
</g>
</g>
</svg>
