<?xml version="1.0" encoding="UTF-8" standalone="no"?>
<!DOCTYPE svg PUBLIC "-//W3C//DTD SVG 1.1//EN"
 "http://www.w3.org/Graphics/SVG/1.1/DTD/svg11.dtd">
<!-- Generated by graphviz version 12.2.1 (20241206.2353)
 -->
<!-- Title: D Pages: 1 -->
<svg width="664pt" height="497pt"
 viewBox="0.00 0.00 664.07 496.88" xmlns="http://www.w3.org/2000/svg" xmlns:xlink="http://www.w3.org/1999/xlink">
<g id="graph0" class="graph" transform="scale(1 1) rotate(0) translate(4 492.88)">
<title>D</title>
<polygon fill="white" stroke="none" points="-4,4 -4,-492.88 660.07,-492.88 660.07,4 -4,4"/>
<!-- input -->
<g id="node1" class="node">
<title>input</title>
<ellipse fill="#dae8fc" stroke="black" cx="45.79" cy="-245.5" rx="45.79" ry="26.87"/>
<text text-anchor="middle" x="45.79" y="-247.2" font-family="Garmond" font-size="14.00">Training</text>
<text text-anchor="middle" x="45.79" y="-232.2" font-family="Garmond" font-size="14.00">Data</text>
</g>
<!-- trans_1 -->
<g id="node2" class="node">
<title>trans_1</title>
<polygon fill="#d5e8d4" stroke="black" points="211.45,-488.88 128.7,-488.88 128.7,-406.12 211.45,-406.12 211.45,-488.88"/>
<text text-anchor="start" x="142.32" y="-449.2" font-family="Garmond" font-size="14.00">Property</text>
<text text-anchor="start" x="193.32" y="-449.2" font-family="Garmond" baseline-shift="sub" font-size="10.00">1</text>
<text text-anchor="start" x="136.7" y="-435.2" font-family="Garmond" font-size="14.00">Transform</text>
<text text-anchor="start" x="198.95" y="-435.2" font-family="Garmond" baseline-shift="sub" font-size="10.00">1</text>
</g>
<!-- input&#45;&gt;trans_1 -->
<g id="edge1" class="edge">
<title>input&#45;&gt;trans_1</title>
<path fill="none" stroke="black" d="M58.79,-271.47C72.53,-300.34 96.49,-348.2 127.67,-396.1"/>
<polygon fill="black" stroke="black" points="124.73,-398 133.17,-404.41 130.57,-394.14 124.73,-398"/>
</g>
<!-- trans_2 -->
<g id="node3" class="node">
<title>trans_2</title>
<polygon fill="#d5e8d4" stroke="black" points="211.45,-387.88 128.7,-387.88 128.7,-305.12 211.45,-305.12 211.45,-387.88"/>
<text text-anchor="start" x="142.32" y="-348.2" font-family="Garmond" font-size="14.00">Property</text>
<text text-anchor="start" x="193.32" y="-348.2" font-family="Garmond" baseline-shift="sub" font-size="10.00">1</text>
<text text-anchor="start" x="136.7" y="-334.2" font-family="Garmond" font-size="14.00">Transform</text>
<text text-anchor="start" x="198.95" y="-334.2" font-family="Garmond" baseline-shift="sub" font-size="10.00">2</text>
</g>
<!-- input&#45;&gt;trans_2 -->
<g id="edge2" class="edge">
<title>input&#45;&gt;trans_2</title>
<path fill="none" stroke="black" d="M73.32,-267.42C86.95,-278.67 104,-292.76 119.93,-305.91"/>
<polygon fill="black" stroke="black" points="117.52,-308.47 127.46,-312.13 121.98,-303.07 117.52,-308.47"/>
</g>
<!-- trans_3 -->
<g id="node4" class="node">
<title>trans_3</title>
<polygon fill="#d5e8d4" stroke="black" points="211.45,-286.88 128.7,-286.88 128.7,-204.12 211.45,-204.12 211.45,-286.88"/>
<text text-anchor="start" x="142.32" y="-247.2" font-family="Garmond" font-size="14.00">Property</text>
<text text-anchor="start" x="193.32" y="-247.2" font-family="Garmond" baseline-shift="sub" font-size="10.00">2</text>
<text text-anchor="start" x="136.7" y="-233.2" font-family="Garmond" font-size="14.00">Transform</text>
<text text-anchor="start" x="198.95" y="-233.2" font-family="Garmond" baseline-shift="sub" font-size="10.00">3</text>
</g>
<!-- input&#45;&gt;trans_3 -->
<g id="edge3" class="edge">
<title>input&#45;&gt;trans_3</title>
<path fill="none" stroke="black" d="M91.97,-245.5C100.2,-245.5 108.85,-245.5 117.26,-245.5"/>
<polygon fill="black" stroke="black" points="117,-249 127,-245.5 117,-242 117,-249"/>
</g>
<!-- trans_4 -->
<g id="node5" class="node">
<title>trans_4</title>
<polygon fill="#d5e8d4" stroke="black" points="211.45,-185.88 128.7,-185.88 128.7,-103.12 211.45,-103.12 211.45,-185.88"/>
<text text-anchor="start" x="142.32" y="-146.2" font-family="Garmond" font-size="14.00">Property</text>
<text text-anchor="start" x="193.32" y="-146.2" font-family="Garmond" baseline-shift="sub" font-size="10.00">3</text>
<text text-anchor="start" x="136.7" y="-132.2" font-family="Garmond" font-size="14.00">Transform</text>
<text text-anchor="start" x="198.95" y="-132.2" font-family="Garmond" baseline-shift="sub" font-size="10.00">4</text>
</g>
<!-- input&#45;&gt;trans_4 -->
<g id="edge4" class="edge">
<title>input&#45;&gt;trans_4</title>
<path fill="none" stroke="black" d="M73.32,-223.58C86.95,-212.33 104,-198.24 119.93,-185.09"/>
<polygon fill="black" stroke="black" points="121.98,-187.93 127.46,-178.87 117.52,-182.53 121.98,-187.93"/>
</g>
<!-- trans_n -->
<g id="node6" class="node">
<title>trans_n</title>
<polygon fill="#d5e8d4" stroke="black" points="212.57,-85 127.57,-85 127.57,0 212.57,0 212.57,-85"/>
<text text-anchor="start" x="142.32" y="-44.2" font-family="Garmond" font-size="14.00">Property</text>
<text text-anchor="start" x="193.32" y="-44.2" font-family="Garmond" baseline-shift="sub" font-size="10.00">n</text>
<text text-anchor="start" x="135.57" y="-30.2" font-family="Garmond" font-size="14.00">Transform</text>
<text text-anchor="start" x="197.82" y="-30.2" font-family="Garmond" baseline-shift="sub" font-size="10.00">m</text>
</g>
<!-- input&#45;&gt;trans_n -->
<g id="edge5" class="edge">
<title>input&#45;&gt;trans_n</title>
<path fill="none" stroke="black" d="M58.99,-219.3C72.81,-190.44 96.77,-142.78 127.56,-95.02"/>
<polygon fill="black" stroke="black" points="130.44,-97.02 132.98,-86.73 124.58,-93.19 130.44,-97.02"/>
</g>
<!-- td_1 -->
<g id="node7" class="node">
<title>td_1</title>
<path fill="#f8cecc" stroke="black" d="M342.95,-470.62C342.95,-474.07 322.05,-476.88 296.32,-476.88 270.59,-476.88 249.7,-474.07 249.7,-470.62 249.7,-470.62 249.7,-414.38 249.7,-414.38 249.7,-410.93 270.59,-408.12 296.32,-408.12 322.05,-408.12 342.95,-410.93 342.95,-414.38 342.95,-414.38 342.95,-470.62 342.95,-470.62"/>
<path fill="none" stroke="black" d="M342.95,-470.62C342.95,-467.18 322.05,-464.38 296.32,-464.38 270.59,-464.38 249.7,-467.18 249.7,-470.62"/>
<text text-anchor="start" x="270.82" y="-451.2" font-family="Garmond" font-size="14.00">Property</text>
<text text-anchor="start" x="265.2" y="-437.2" font-family="Garmond" font-size="14.00">Transform</text>
<text text-anchor="start" x="257.7" y="-423.2" font-family="Garmond" font-size="14.00">Training Set</text>
<text text-anchor="start" x="330.45" y="-423.2" font-family="Garmond" baseline-shift="sub" font-size="10.00">1</text>
</g>
<!-- trans_1&#45;&gt;td_1 -->
<g id="edge6" class="edge">
<title>trans_1&#45;&gt;td_1</title>
<path fill="none" stroke="black" d="M211.75,-445.86C220.12,-445.53 229.08,-445.17 237.91,-444.81"/>
<polygon fill="black" stroke="black" points="238.02,-448.31 247.87,-444.41 237.73,-441.31 238.02,-448.31"/>
</g>
<!-- td_2 -->
<g id="node8" class="node">
<title>td_2</title>
<path fill="#f8cecc" stroke="black" d="M342.95,-371.62C342.95,-375.07 322.05,-377.88 296.32,-377.88 270.59,-377.88 249.7,-375.07 249.7,-371.62 249.7,-371.62 249.7,-315.38 249.7,-315.38 249.7,-311.93 270.59,-309.12 296.32,-309.12 322.05,-309.12 342.95,-311.93 342.95,-315.38 342.95,-315.38 342.95,-371.62 342.95,-371.62"/>
<path fill="none" stroke="black" d="M342.95,-371.62C342.95,-368.18 322.05,-365.38 296.32,-365.38 270.59,-365.38 249.7,-368.18 249.7,-371.62"/>
<text text-anchor="start" x="270.82" y="-352.2" font-family="Garmond" font-size="14.00">Property</text>
<text text-anchor="start" x="265.2" y="-338.2" font-family="Garmond" font-size="14.00">Transform</text>
<text text-anchor="start" x="257.7" y="-324.2" font-family="Garmond" font-size="14.00">Training Set</text>
<text text-anchor="start" x="330.45" y="-324.2" font-family="Garmond" baseline-shift="sub" font-size="10.00">2</text>
</g>
<!-- trans_2&#45;&gt;td_2 -->
<g id="edge7" class="edge">
<title>trans_2&#45;&gt;td_2</title>
<path fill="none" stroke="black" d="M211.75,-345.52C220.12,-345.32 229.08,-345.1 237.91,-344.89"/>
<polygon fill="black" stroke="black" points="237.95,-348.39 247.87,-344.65 237.78,-341.39 237.95,-348.39"/>
</g>
<!-- td_3 -->
<g id="node9" class="node">
<title>td_3</title>
<path fill="#f8cecc" stroke="black" d="M342.95,-273.62C342.95,-277.07 322.05,-279.88 296.32,-279.88 270.59,-279.88 249.7,-277.07 249.7,-273.62 249.7,-273.62 249.7,-217.38 249.7,-217.38 249.7,-213.93 270.59,-211.12 296.32,-211.12 322.05,-211.12 342.95,-213.93 342.95,-217.38 342.95,-217.38 342.95,-273.62 342.95,-273.62"/>
<path fill="none" stroke="black" d="M342.95,-273.62C342.95,-270.18 322.05,-267.38 296.32,-267.38 270.59,-267.38 249.7,-270.18 249.7,-273.62"/>
<text text-anchor="start" x="270.82" y="-254.2" font-family="Garmond" font-size="14.00">Property</text>
<text text-anchor="start" x="265.2" y="-240.2" font-family="Garmond" font-size="14.00">Transform</text>
<text text-anchor="start" x="257.7" y="-226.2" font-family="Garmond" font-size="14.00">Training Set</text>
<text text-anchor="start" x="330.45" y="-226.2" font-family="Garmond" baseline-shift="sub" font-size="10.00">3</text>
</g>
<!-- trans_3&#45;&gt;td_3 -->
<g id="edge8" class="edge">
<title>trans_3&#45;&gt;td_3</title>
<path fill="none" stroke="black" d="M211.75,-245.5C220.12,-245.5 229.08,-245.5 237.91,-245.5"/>
<polygon fill="black" stroke="black" points="237.87,-249 247.87,-245.5 237.87,-242 237.87,-249"/>
</g>
<!-- td_4 -->
<g id="node10" class="node">
<title>td_4</title>
<path fill="#f8cecc" stroke="black" d="M342.95,-175.62C342.95,-179.07 322.05,-181.88 296.32,-181.88 270.59,-181.88 249.7,-179.07 249.7,-175.62 249.7,-175.62 249.7,-119.38 249.7,-119.38 249.7,-115.93 270.59,-113.12 296.32,-113.12 322.05,-113.12 342.95,-115.93 342.95,-119.38 342.95,-119.38 342.95,-175.62 342.95,-175.62"/>
<path fill="none" stroke="black" d="M342.95,-175.62C342.95,-172.18 322.05,-169.38 296.32,-169.38 270.59,-169.38 249.7,-172.18 249.7,-175.62"/>
<text text-anchor="start" x="270.82" y="-156.2" font-family="Garmond" font-size="14.00">Property</text>
<text text-anchor="start" x="265.2" y="-142.2" font-family="Garmond" font-size="14.00">Transform</text>
<text text-anchor="start" x="257.7" y="-128.2" font-family="Garmond" font-size="14.00">Training Set</text>
<text text-anchor="start" x="330.45" y="-128.2" font-family="Garmond" baseline-shift="sub" font-size="10.00">4</text>
</g>
<!-- trans_4&#45;&gt;td_4 -->
<g id="edge9" class="edge">
<title>trans_4&#45;&gt;td_4</title>
<path fill="none" stroke="black" d="M211.75,-145.48C220.12,-145.68 229.08,-145.9 237.91,-146.11"/>
<polygon fill="black" stroke="black" points="237.78,-149.61 247.87,-146.35 237.95,-142.61 237.78,-149.61"/>
</g>
<!-- td_n -->
<g id="node11" class="node">
<title>td_n</title>
<path fill="#f8cecc" stroke="black" d="M344.07,-81.62C344.07,-85.07 322.67,-87.88 296.32,-87.88 269.97,-87.88 248.57,-85.07 248.57,-81.62 248.57,-81.62 248.57,-25.38 248.57,-25.38 248.57,-21.93 269.97,-19.12 296.32,-19.12 322.67,-19.12 344.07,-21.93 344.07,-25.38 344.07,-25.38 344.07,-81.62 344.07,-81.62"/>
<path fill="none" stroke="black" d="M344.07,-81.62C344.07,-78.18 322.67,-75.38 296.32,-75.38 269.97,-75.38 248.57,-78.18 248.57,-81.62"/>
<text text-anchor="start" x="270.82" y="-62.2" font-family="Garmond" font-size="14.00">Property</text>
<text text-anchor="start" x="265.2" y="-48.2" font-family="Garmond" font-size="14.00">Transform</text>
<text text-anchor="start" x="256.57" y="-34.2" font-family="Garmond" font-size="14.00">Training Set</text>
<text text-anchor="start" x="329.32" y="-34.2" font-family="Garmond" baseline-shift="sub" font-size="10.00">m</text>
</g>
<!-- trans_n&#45;&gt;td_n -->
<g id="edge10" class="edge">
<title>trans_n&#45;&gt;td_n</title>
<path fill="none" stroke="black" d="M212.79,-46.19C220.55,-46.88 228.79,-47.61 236.95,-48.33"/>
<polygon fill="black" stroke="black" points="236.58,-51.81 246.85,-49.21 237.2,-44.84 236.58,-51.81"/>
</g>
<!-- ml_1 -->
<g id="node12" class="node">
<title>ml_1</title>
<polygon fill="#ffe6cc" stroke="black" points="440.32,-474.5 382.32,-438.5 440.32,-402.5 498.32,-438.5 440.32,-474.5"/>
<text text-anchor="start" x="430.57" y="-440.2" font-family="Garmond" font-size="14.00">ML</text>
<text text-anchor="start" x="419.32" y="-426.2" font-family="Garmond" font-size="14.00">Model</text>
<text text-anchor="start" x="456.82" y="-426.2" font-family="Garmond" baseline-shift="sub" font-size="10.00">1</text>
</g>
<!-- td_1&#45;&gt;ml_1 -->
<g id="edge11" class="edge">
<title>td_1&#45;&gt;ml_1</title>
<path fill="none" stroke="black" d="M343.42,-441.2C352.74,-440.94 362.7,-440.66 372.56,-440.38"/>
<polygon fill="black" stroke="black" points="372.63,-443.88 382.53,-440.1 372.43,-436.88 372.63,-443.88"/>
</g>
<!-- ml_2 -->
<g id="node13" class="node">
<title>ml_2</title>
<polygon fill="#ffe6cc" stroke="black" points="440.32,-376.5 382.32,-340.5 440.32,-304.5 498.32,-340.5 440.32,-376.5"/>
<text text-anchor="start" x="430.57" y="-342.2" font-family="Garmond" font-size="14.00">ML</text>
<text text-anchor="start" x="419.32" y="-328.2" font-family="Garmond" font-size="14.00">Model</text>
<text text-anchor="start" x="456.82" y="-328.2" font-family="Garmond" baseline-shift="sub" font-size="10.00">2</text>
</g>
<!-- td_2&#45;&gt;ml_2 -->
<g id="edge12" class="edge">
<title>td_2&#45;&gt;ml_2</title>
<path fill="none" stroke="black" d="M343.42,-342.53C352.56,-342.33 362.33,-342.13 372.01,-341.92"/>
<polygon fill="black" stroke="black" points="371.84,-345.43 381.77,-341.72 371.7,-338.43 371.84,-345.43"/>
</g>
<!-- ml_3 -->
<g id="node14" class="node">
<title>ml_3</title>
<polygon fill="#ffe6cc" stroke="black" points="440.32,-281.5 382.32,-245.5 440.32,-209.5 498.32,-245.5 440.32,-281.5"/>
<text text-anchor="start" x="430.57" y="-247.2" font-family="Garmond" font-size="14.00">ML</text>
<text text-anchor="start" x="419.32" y="-233.2" font-family="Garmond" font-size="14.00">Model</text>
<text text-anchor="start" x="456.82" y="-233.2" font-family="Garmond" baseline-shift="sub" font-size="10.00">3</text>
</g>
<!-- td_3&#45;&gt;ml_3 -->
<g id="edge13" class="edge">
<title>td_3&#45;&gt;ml_3</title>
<path fill="none" stroke="black" d="M343.42,-245.5C351.96,-245.5 361.06,-245.5 370.11,-245.5"/>
<polygon fill="black" stroke="black" points="370,-249 380,-245.5 370,-242 370,-249"/>
</g>
<!-- ml_4 -->
<g id="node15" class="node">
<title>ml_4</title>
<polygon fill="#ffe6cc" stroke="black" points="440.32,-188.5 382.32,-152.5 440.32,-116.5 498.32,-152.5 440.32,-188.5"/>
<text text-anchor="start" x="430.57" y="-154.2" font-family="Garmond" font-size="14.00">ML</text>
<text text-anchor="start" x="419.32" y="-140.2" font-family="Garmond" font-size="14.00">Model</text>
<text text-anchor="start" x="456.82" y="-140.2" font-family="Garmond" baseline-shift="sub" font-size="10.00">4</text>
</g>
<!-- td_4&#45;&gt;ml_4 -->
<g id="edge14" class="edge">
<title>td_4&#45;&gt;ml_4</title>
<path fill="none" stroke="black" d="M343.42,-149.12C352.96,-149.46 363.17,-149.82 373.26,-150.17"/>
<polygon fill="black" stroke="black" points="372.91,-153.66 383.03,-150.52 373.16,-146.67 372.91,-153.66"/>
</g>
<!-- ml_n -->
<g id="node16" class="node">
<title>ml_n</title>
<polygon fill="#ffe6cc" stroke="black" points="440.32,-95.5 380.07,-59.5 440.32,-23.5 500.57,-59.5 440.32,-95.5"/>
<text text-anchor="start" x="430.57" y="-61.2" font-family="Garmond" font-size="14.00">ML</text>
<text text-anchor="start" x="418.2" y="-47.2" font-family="Garmond" font-size="14.00">Model</text>
<text text-anchor="start" x="455.7" y="-47.2" font-family="Garmond" baseline-shift="sub" font-size="10.00">m</text>
</g>
<!-- td_n&#45;&gt;ml_n -->
<g id="edge15" class="edge">
<title>td_n&#45;&gt;ml_n</title>
<path fill="none" stroke="black" d="M344.21,-55.48C353.05,-55.85 362.47,-56.25 371.8,-56.65"/>
<polygon fill="black" stroke="black" points="371.44,-60.13 381.58,-57.06 371.74,-53.14 371.44,-60.13"/>
</g>
<!-- kb -->
<g id="node17" class="node">
<title>kb</title>
<path fill="#f8cef4" stroke="black" d="M656.07,-275.31C656.07,-278.97 629.29,-281.94 596.32,-281.94 563.35,-281.94 536.57,-278.97 536.57,-275.31 536.57,-275.31 536.57,-215.69 536.57,-215.69 536.57,-212.03 563.35,-209.06 596.32,-209.06 629.29,-209.06 656.07,-212.03 656.07,-215.69 656.07,-215.69 656.07,-275.31 656.07,-275.31"/>
<path fill="none" stroke="black" d="M656.07,-275.31C656.07,-271.66 629.29,-268.69 596.32,-268.69 563.35,-268.69 536.57,-271.66 536.57,-275.31"/>
<text text-anchor="middle" x="596.32" y="-254.7" font-family="Garmond" font-size="14.00"> </text>
<text text-anchor="middle" x="596.32" y="-239.7" font-family="Garmond" font-size="14.00"> Knowledgebase </text>
<text text-anchor="middle" x="596.32" y="-224.7" font-family="Garmond" font-size="14.00"> &#160;</text>
</g>
<!-- ml_1&#45;&gt;kb -->
<g id="edge16" class="edge">
<title>ml_1&#45;&gt;kb</title>
<path fill="none" stroke="black" d="M466.52,-418.36C477.56,-408.95 490.31,-397.25 500.57,-385.5 525.96,-356.44 550.27,-320.29 567.9,-292.01"/>
<polygon fill="black" stroke="black" points="570.79,-293.99 573.06,-283.65 564.83,-290.32 570.79,-293.99"/>
</g>
<!-- ml_2&#45;&gt;kb -->
<g id="edge17" class="edge">
<title>ml_2&#45;&gt;kb</title>
<path fill="none" stroke="black" d="M470.29,-322.63C487.29,-312.14 509.49,-298.45 530.46,-285.51"/>
<polygon fill="black" stroke="black" points="532.02,-288.66 538.69,-280.43 528.35,-282.7 532.02,-288.66"/>
</g>
<!-- ml_3&#45;&gt;kb -->
<g id="edge18" class="edge">
<title>ml_3&#45;&gt;kb</title>
<path fill="none" stroke="black" d="M499.1,-245.5C507.53,-245.5 516.28,-245.5 524.93,-245.5"/>
<polygon fill="black" stroke="black" points="524.67,-249 534.67,-245.5 524.67,-242 524.67,-249"/>
</g>
<!-- ml_4&#45;&gt;kb -->
<g id="edge19" class="edge">
<title>ml_4&#45;&gt;kb</title>
<path fill="none" stroke="black" d="M470.65,-170.21C487.3,-180.27 508.85,-193.28 529.34,-205.65"/>
<polygon fill="black" stroke="black" points="527.31,-208.52 537.68,-210.69 530.92,-202.52 527.31,-208.52"/>
</g>
<!-- ml_n&#45;&gt;kb -->
<g id="edge20" class="edge">
<title>ml_n&#45;&gt;kb</title>
<path fill="none" stroke="black" d="M468.7,-79.01C479.25,-87.19 491.05,-97.19 500.57,-107.5 526.5,-135.57 550.79,-171.21 568.29,-199.25"/>
<polygon fill="black" stroke="black" points="565.16,-200.85 573.39,-207.53 571.12,-197.18 565.16,-200.85"/>
</g>
</g>
</svg>
