<?xml version="1.0" encoding="UTF-8" standalone="no"?>
<!DOCTYPE svg PUBLIC "-//W3C//DTD SVG 1.1//EN"
 "http://www.w3.org/Graphics/SVG/1.1/DTD/svg11.dtd">
<!-- Generated by graphviz version 12.2.1 (20241206.2353)
 -->
<!-- Title: D Pages: 1 -->
<svg width="1470pt" height="942pt"
 viewBox="0.00 0.00 1469.51 941.93" xmlns="http://www.w3.org/2000/svg" xmlns:xlink="http://www.w3.org/1999/xlink">
<g id="graph0" class="graph" transform="scale(1 1) rotate(0) translate(4 937.93)">
<title>D</title>
<polygon fill="white" stroke="none" points="-4,4 -4,-937.93 1465.51,-937.93 1465.51,4 -4,4"/>
<!-- input -->
<g id="node1" class="node">
<title>input</title>
<ellipse fill="#dae8fc" stroke="black" stroke-width="2" cx="82.38" cy="-402.81" rx="82.38" ry="45.96"/>
<text text-anchor="middle" x="82.38" y="-404.71" font-family="Garmond" font-size="28.00">Training</text>
<text text-anchor="middle" x="82.38" y="-376.21" font-family="Garmond" font-size="28.00">Data</text>
</g>
<!-- trans_1 -->
<g id="node2" class="node">
<title>trans_1</title>
<polygon fill="#d5e8d4" stroke="black" stroke-width="2" points="353.88,-933.93 203.63,-933.93 203.63,-783.68 353.88,-783.68 353.88,-933.93"/>
<text text-anchor="start" x="222.13" y="-861.21" font-family="Garmond" font-size="28.00">Property</text>
<text text-anchor="start" x="327.88" y="-861.21" font-family="Garmond" baseline-shift="sub" font-size="16.00">1</text>
<text text-anchor="start" x="211.63" y="-833.21" font-family="Garmond" font-size="28.00">Transform</text>
<text text-anchor="start" x="338.38" y="-833.21" font-family="Garmond" baseline-shift="sub" font-size="16.00">1</text>
</g>
<!-- input&#45;&gt;trans_1 -->
<g id="edge1" class="edge">
<title>input&#45;&gt;trans_1</title>
<path fill="none" stroke="black" stroke-width="2" d="M91.57,-449.48C105.37,-520.25 137.6,-657.76 200.22,-771.42"/>
<polygon fill="black" stroke="black" stroke-width="2" points="197.13,-773.07 205.09,-780.06 203.23,-769.63 197.13,-773.07"/>
</g>
<!-- trans_2 -->
<g id="node3" class="node">
<title>trans_2</title>
<polygon fill="#d5e8d4" stroke="black" stroke-width="2" points="353.88,-765.93 203.63,-765.93 203.63,-615.68 353.88,-615.68 353.88,-765.93"/>
<text text-anchor="start" x="222.13" y="-693.21" font-family="Garmond" font-size="28.00">Property</text>
<text text-anchor="start" x="327.88" y="-693.21" font-family="Garmond" baseline-shift="sub" font-size="16.00">1</text>
<text text-anchor="start" x="211.63" y="-665.21" font-family="Garmond" font-size="28.00">Transform</text>
<text text-anchor="start" x="338.38" y="-665.21" font-family="Garmond" baseline-shift="sub" font-size="16.00">2</text>
</g>
<!-- input&#45;&gt;trans_2 -->
<g id="edge2" class="edge">
<title>input&#45;&gt;trans_2</title>
<path fill="none" stroke="black" stroke-width="2" d="M105.79,-447.44C126.66,-487.52 159.82,-547.6 200.47,-604.69"/>
<polygon fill="black" stroke="black" stroke-width="2" points="197.41,-606.42 206.1,-612.48 203.08,-602.32 197.41,-606.42"/>
</g>
<!-- trans_3 -->
<g id="node4" class="node">
<title>trans_3</title>
<polygon fill="#d5e8d4" stroke="black" stroke-width="2" points="353.88,-597.93 203.63,-597.93 203.63,-447.68 353.88,-447.68 353.88,-597.93"/>
<text text-anchor="start" x="222.13" y="-525.21" font-family="Garmond" font-size="28.00">Property</text>
<text text-anchor="start" x="327.88" y="-525.21" font-family="Garmond" baseline-shift="sub" font-size="16.00">2</text>
<text text-anchor="start" x="211.63" y="-497.21" font-family="Garmond" font-size="28.00">Transform</text>
<text text-anchor="start" x="338.38" y="-497.21" font-family="Garmond" baseline-shift="sub" font-size="16.00">3</text>
</g>
<!-- input&#45;&gt;trans_3 -->
<g id="edge3" class="edge">
<title>input&#45;&gt;trans_3</title>
<path fill="none" stroke="black" stroke-width="2" d="M139.08,-437.2C155.52,-447.35 173.92,-458.7 191.8,-469.74"/>
<polygon fill="black" stroke="black" stroke-width="2" points="189.92,-472.7 200.27,-474.97 193.6,-466.74 189.92,-472.7"/>
</g>
<!-- trans_4 -->
<g id="node5" class="node">
<title>trans_4</title>
<polygon fill="#d5e8d4" stroke="black" stroke-width="2" points="353.88,-429.93 203.63,-429.93 203.63,-279.68 353.88,-279.68 353.88,-429.93"/>
<text text-anchor="start" x="222.13" y="-357.21" font-family="Garmond" font-size="28.00">Property</text>
<text text-anchor="start" x="327.88" y="-357.21" font-family="Garmond" baseline-shift="sub" font-size="16.00">3</text>
<text text-anchor="start" x="211.63" y="-329.21" font-family="Garmond" font-size="28.00">Transform</text>
<text text-anchor="start" x="338.38" y="-329.21" font-family="Garmond" baseline-shift="sub" font-size="16.00">4</text>
</g>
<!-- input&#45;&gt;trans_4 -->
<g id="edge4" class="edge">
<title>input&#45;&gt;trans_4</title>
<path fill="none" stroke="black" stroke-width="2" d="M158.81,-384.18C169.05,-381.65 179.63,-379.04 190.07,-376.46"/>
<polygon fill="black" stroke="black" stroke-width="2" points="190.88,-379.87 199.75,-374.07 189.2,-373.07 190.88,-379.87"/>
</g>
<!-- trans_n -->
<g id="node6" class="node">
<title>trans_n</title>
<polygon fill="#d5e8d4" stroke="black" stroke-width="2" points="355.76,-261.81 201.76,-261.81 201.76,-107.81 355.76,-107.81 355.76,-261.81"/>
<text text-anchor="start" x="222.13" y="-187.21" font-family="Garmond" font-size="28.00">Property</text>
<text text-anchor="start" x="327.88" y="-187.21" font-family="Garmond" baseline-shift="sub" font-size="16.00">n</text>
<text text-anchor="start" x="209.76" y="-159.21" font-family="Garmond" font-size="28.00">Transform</text>
<text text-anchor="start" x="336.51" y="-159.21" font-family="Garmond" baseline-shift="sub" font-size="16.00">m</text>
</g>
<!-- input&#45;&gt;trans_n -->
<g id="edge5" class="edge">
<title>input&#45;&gt;trans_n</title>
<path fill="none" stroke="black" stroke-width="2" d="M120.4,-361.29C142.86,-336.1 172.39,-302.99 199.79,-272.25"/>
<polygon fill="black" stroke="black" stroke-width="2" points="202.16,-274.85 206.2,-265.06 196.93,-270.19 202.16,-274.85"/>
</g>
<!-- kb -->
<g id="node17" class="node">
<title>kb</title>
<path fill="#ccff99" stroke="black" stroke-width="2" d="M1170.26,-444.53C1170.26,-455.53 1118.26,-464.47 1054.26,-464.47 990.25,-464.47 938.26,-455.53 938.26,-444.53 938.26,-444.53 938.26,-265.09 938.26,-265.09 938.26,-254.09 990.25,-245.15 1054.26,-245.15 1118.26,-245.15 1170.26,-254.09 1170.26,-265.09 1170.26,-265.09 1170.26,-444.53 1170.26,-444.53"/>
<path fill="none" stroke="black" stroke-width="2" d="M1170.26,-444.53C1170.26,-433.53 1118.26,-424.59 1054.26,-424.59 990.25,-424.59 938.26,-433.53 938.26,-444.53"/>
<text text-anchor="middle" x="1054.26" y="-403.96" font-family="Garmond" font-size="28.00"> </text>
<text text-anchor="middle" x="1054.26" y="-342.46" font-family="Garmond" font-size="28.00"> Knowledgebase </text>
<text text-anchor="middle" x="1054.26" y="-280.96" font-family="Garmond" font-size="28.00"> &#160;</text>
</g>
<!-- input&#45;&gt;kb -->
<g id="edge16" class="edge">
<title>input&#45;&gt;kb</title>
<path fill="none" stroke="black" stroke-width="2" d="M88.26,-356.16C97.81,-289.12 125.26,-166.2 201.76,-98.81 227.88,-75.79 242.94,-79.81 277.76,-79.81 277.76,-79.81 277.76,-79.81 711.76,-79.81 818.12,-79.81 910.11,-161.73 971.73,-236.15"/>
<polygon fill="black" stroke="black" stroke-width="2" points="968.91,-238.23 977.93,-243.77 974.34,-233.81 968.91,-238.23"/>
<text text-anchor="middle" x="481.38" y="-81.01" font-family="Times,serif" font-size="24.00">Labels</text>
</g>
<!-- td_1 -->
<g id="node7" class="node">
<title>td_1</title>
<path fill="#f8cecc" stroke="black" stroke-width="2" d="M568.13,-866.56C568.13,-872.9 529.25,-878.06 481.38,-878.06 433.51,-878.06 394.63,-872.9 394.63,-866.56 394.63,-866.56 394.63,-763.06 394.63,-763.06 394.63,-756.71 433.51,-751.56 481.38,-751.56 529.25,-751.56 568.13,-756.71 568.13,-763.06 568.13,-763.06 568.13,-866.56 568.13,-866.56"/>
<path fill="none" stroke="black" stroke-width="2" d="M568.13,-866.56C568.13,-860.21 529.25,-855.06 481.38,-855.06 433.51,-855.06 394.63,-860.21 394.63,-866.56"/>
<text text-anchor="start" x="428.51" y="-831.21" font-family="Garmond" font-size="28.00">Property</text>
<text text-anchor="start" x="418.01" y="-803.21" font-family="Garmond" font-size="28.00">Transform</text>
<text text-anchor="start" x="402.63" y="-775.21" font-family="Garmond" font-size="28.00">Training Set</text>
<text text-anchor="start" x="552.63" y="-775.21" font-family="Garmond" baseline-shift="sub" font-size="16.00">1</text>
</g>
<!-- trans_1&#45;&gt;td_1 -->
<g id="edge6" class="edge">
<title>trans_1&#45;&gt;td_1</title>
<path fill="none" stroke="black" stroke-width="2" d="M354.75,-842.36C363.37,-840.47 372.26,-838.52 381.14,-836.57"/>
<polygon fill="black" stroke="black" stroke-width="2" points="381.68,-840.04 390.7,-834.48 380.18,-833.2 381.68,-840.04"/>
</g>
<!-- td_2 -->
<g id="node8" class="node">
<title>td_2</title>
<path fill="#f8cecc" stroke="black" stroke-width="2" d="M568.13,-719.56C568.13,-725.9 529.25,-731.06 481.38,-731.06 433.51,-731.06 394.63,-725.9 394.63,-719.56 394.63,-719.56 394.63,-616.06 394.63,-616.06 394.63,-609.71 433.51,-604.56 481.38,-604.56 529.25,-604.56 568.13,-609.71 568.13,-616.06 568.13,-616.06 568.13,-719.56 568.13,-719.56"/>
<path fill="none" stroke="black" stroke-width="2" d="M568.13,-719.56C568.13,-713.21 529.25,-708.06 481.38,-708.06 433.51,-708.06 394.63,-713.21 394.63,-719.56"/>
<text text-anchor="start" x="428.51" y="-684.21" font-family="Garmond" font-size="28.00">Property</text>
<text text-anchor="start" x="418.01" y="-656.21" font-family="Garmond" font-size="28.00">Transform</text>
<text text-anchor="start" x="402.63" y="-628.21" font-family="Garmond" font-size="28.00">Training Set</text>
<text text-anchor="start" x="552.63" y="-628.21" font-family="Garmond" baseline-shift="sub" font-size="16.00">2</text>
</g>
<!-- trans_2&#45;&gt;td_2 -->
<g id="edge7" class="edge">
<title>trans_2&#45;&gt;td_2</title>
<path fill="none" stroke="black" stroke-width="2" d="M354.75,-682.21C363.27,-681.24 372.06,-680.23 380.84,-679.22"/>
<polygon fill="black" stroke="black" stroke-width="2" points="381.12,-682.71 390.65,-678.1 380.32,-675.76 381.12,-682.71"/>
</g>
<!-- td_3 -->
<g id="node9" class="node">
<title>td_3</title>
<path fill="#f8cecc" stroke="black" stroke-width="2" d="M568.13,-569.56C568.13,-575.9 529.25,-581.06 481.38,-581.06 433.51,-581.06 394.63,-575.9 394.63,-569.56 394.63,-569.56 394.63,-466.06 394.63,-466.06 394.63,-459.71 433.51,-454.56 481.38,-454.56 529.25,-454.56 568.13,-459.71 568.13,-466.06 568.13,-466.06 568.13,-569.56 568.13,-569.56"/>
<path fill="none" stroke="black" stroke-width="2" d="M568.13,-569.56C568.13,-563.21 529.25,-558.06 481.38,-558.06 433.51,-558.06 394.63,-563.21 394.63,-569.56"/>
<text text-anchor="start" x="428.51" y="-534.21" font-family="Garmond" font-size="28.00">Property</text>
<text text-anchor="start" x="418.01" y="-506.21" font-family="Garmond" font-size="28.00">Transform</text>
<text text-anchor="start" x="402.63" y="-478.21" font-family="Garmond" font-size="28.00">Training Set</text>
<text text-anchor="start" x="552.63" y="-478.21" font-family="Garmond" baseline-shift="sub" font-size="16.00">3</text>
</g>
<!-- trans_3&#45;&gt;td_3 -->
<g id="edge8" class="edge">
<title>trans_3&#45;&gt;td_3</title>
<path fill="none" stroke="black" stroke-width="2" d="M354.75,-520.94C363.27,-520.73 372.06,-520.51 380.84,-520.29"/>
<polygon fill="black" stroke="black" stroke-width="2" points="380.72,-523.79 390.63,-520.05 380.55,-516.8 380.72,-523.79"/>
</g>
<!-- td_4 -->
<g id="node10" class="node">
<title>td_4</title>
<path fill="#f8cecc" stroke="black" stroke-width="2" d="M568.13,-406.56C568.13,-412.9 529.25,-418.06 481.38,-418.06 433.51,-418.06 394.63,-412.9 394.63,-406.56 394.63,-406.56 394.63,-303.06 394.63,-303.06 394.63,-296.71 433.51,-291.56 481.38,-291.56 529.25,-291.56 568.13,-296.71 568.13,-303.06 568.13,-303.06 568.13,-406.56 568.13,-406.56"/>
<path fill="none" stroke="black" stroke-width="2" d="M568.13,-406.56C568.13,-400.21 529.25,-395.06 481.38,-395.06 433.51,-395.06 394.63,-400.21 394.63,-406.56"/>
<text text-anchor="start" x="428.51" y="-371.21" font-family="Garmond" font-size="28.00">Property</text>
<text text-anchor="start" x="418.01" y="-343.21" font-family="Garmond" font-size="28.00">Transform</text>
<text text-anchor="start" x="402.63" y="-315.21" font-family="Garmond" font-size="28.00">Training Set</text>
<text text-anchor="start" x="552.63" y="-315.21" font-family="Garmond" baseline-shift="sub" font-size="16.00">4</text>
</g>
<!-- trans_4&#45;&gt;td_4 -->
<g id="edge9" class="edge">
<title>trans_4&#45;&gt;td_4</title>
<path fill="none" stroke="black" stroke-width="2" d="M354.75,-354.81C363.27,-354.81 372.06,-354.81 380.84,-354.81"/>
<polygon fill="black" stroke="black" stroke-width="2" points="380.63,-358.31 390.63,-354.81 380.63,-351.31 380.63,-358.31"/>
</g>
<!-- td_n -->
<g id="node11" class="node">
<title>td_n</title>
<path fill="#f8cecc" stroke="black" stroke-width="2" d="M570.01,-243.56C570.01,-249.9 530.28,-255.06 481.38,-255.06 432.48,-255.06 392.76,-249.9 392.76,-243.56 392.76,-243.56 392.76,-140.06 392.76,-140.06 392.76,-133.71 432.48,-128.56 481.38,-128.56 530.28,-128.56 570.01,-133.71 570.01,-140.06 570.01,-140.06 570.01,-243.56 570.01,-243.56"/>
<path fill="none" stroke="black" stroke-width="2" d="M570.01,-243.56C570.01,-237.21 530.28,-232.06 481.38,-232.06 432.48,-232.06 392.76,-237.21 392.76,-243.56"/>
<text text-anchor="start" x="428.51" y="-208.21" font-family="Garmond" font-size="28.00">Property</text>
<text text-anchor="start" x="418.01" y="-180.21" font-family="Garmond" font-size="28.00">Transform</text>
<text text-anchor="start" x="400.76" y="-152.21" font-family="Garmond" font-size="28.00">Training Set</text>
<text text-anchor="start" x="550.76" y="-152.21" font-family="Garmond" baseline-shift="sub" font-size="16.00">m</text>
</g>
<!-- trans_n&#45;&gt;td_n -->
<g id="edge10" class="edge">
<title>trans_n&#45;&gt;td_n</title>
<path fill="none" stroke="black" stroke-width="2" d="M356.75,-187.5C364.02,-187.75 371.47,-188.01 378.92,-188.27"/>
<polygon fill="black" stroke="black" stroke-width="2" points="378.73,-191.76 388.85,-188.62 378.98,-184.77 378.73,-191.76"/>
</g>
<!-- ml_1 -->
<g id="node12" class="node">
<title>ml_1</title>
<polygon fill="#ffe6cc" stroke="black" stroke-width="2" points="710.76,-873.81 610.76,-809.81 710.76,-745.81 810.76,-809.81 710.76,-873.81"/>
<text text-anchor="start" x="691.26" y="-812.21" font-family="Garmond" font-size="28.00">ML</text>
<text text-anchor="start" x="668.76" y="-784.21" font-family="Garmond" font-size="28.00">Model</text>
<text text-anchor="start" x="745.26" y="-784.21" font-family="Garmond" baseline-shift="sub" font-size="16.00">1</text>
</g>
<!-- td_1&#45;&gt;ml_1 -->
<g id="edge11" class="edge">
<title>td_1&#45;&gt;ml_1</title>
<path fill="none" stroke="black" stroke-width="2" d="M568.99,-812.9C578.96,-812.69 589.23,-812.46 599.46,-812.23"/>
<polygon fill="black" stroke="black" stroke-width="2" points="599.42,-815.74 609.34,-812.02 599.27,-808.74 599.42,-815.74"/>
</g>
<!-- ml_2 -->
<g id="node13" class="node">
<title>ml_2</title>
<polygon fill="#ffe6cc" stroke="black" stroke-width="2" points="710.76,-725.81 610.76,-661.81 710.76,-597.81 810.76,-661.81 710.76,-725.81"/>
<text text-anchor="start" x="691.26" y="-664.21" font-family="Garmond" font-size="28.00">ML</text>
<text text-anchor="start" x="668.76" y="-636.21" font-family="Garmond" font-size="28.00">Model</text>
<text text-anchor="start" x="745.26" y="-636.21" font-family="Garmond" baseline-shift="sub" font-size="16.00">2</text>
</g>
<!-- td_2&#45;&gt;ml_2 -->
<g id="edge12" class="edge">
<title>td_2&#45;&gt;ml_2</title>
<path fill="none" stroke="black" stroke-width="2" d="M568.99,-665.52C579.25,-665.25 589.82,-664.97 600.35,-664.7"/>
<polygon fill="black" stroke="black" stroke-width="2" points="600.21,-668.2 610.11,-664.44 600.02,-661.2 600.21,-668.2"/>
</g>
<!-- ml_3 -->
<g id="node14" class="node">
<title>ml_3</title>
<polygon fill="#ffe6cc" stroke="black" stroke-width="2" points="710.76,-574.81 610.76,-510.81 710.76,-446.81 810.76,-510.81 710.76,-574.81"/>
<text text-anchor="start" x="691.26" y="-513.21" font-family="Garmond" font-size="28.00">ML</text>
<text text-anchor="start" x="668.76" y="-485.21" font-family="Garmond" font-size="28.00">Model</text>
<text text-anchor="start" x="745.26" y="-485.21" font-family="Garmond" baseline-shift="sub" font-size="16.00">3</text>
</g>
<!-- td_3&#45;&gt;ml_3 -->
<g id="edge13" class="edge">
<title>td_3&#45;&gt;ml_3</title>
<path fill="none" stroke="black" stroke-width="2" d="M568.99,-515.14C579.43,-514.82 590.19,-514.49 600.9,-514.16"/>
<polygon fill="black" stroke="black" stroke-width="2" points="600.99,-517.66 610.88,-513.85 600.77,-510.66 600.99,-517.66"/>
</g>
<!-- ml_4 -->
<g id="node15" class="node">
<title>ml_4</title>
<polygon fill="#ffe6cc" stroke="black" stroke-width="2" points="710.76,-418.81 610.76,-354.81 710.76,-290.81 810.76,-354.81 710.76,-418.81"/>
<text text-anchor="start" x="691.26" y="-357.21" font-family="Garmond" font-size="28.00">ML</text>
<text text-anchor="start" x="668.76" y="-329.21" font-family="Garmond" font-size="28.00">Model</text>
<text text-anchor="start" x="745.26" y="-329.21" font-family="Garmond" baseline-shift="sub" font-size="16.00">4</text>
</g>
<!-- td_4&#45;&gt;ml_4 -->
<g id="edge14" class="edge">
<title>td_4&#45;&gt;ml_4</title>
<path fill="none" stroke="black" stroke-width="2" d="M568.99,-354.81C577.86,-354.81 586.97,-354.81 596.07,-354.81"/>
<polygon fill="black" stroke="black" stroke-width="2" points="595.89,-358.31 605.89,-354.81 595.89,-351.31 595.89,-358.31"/>
</g>
<!-- ml_n -->
<g id="node16" class="node">
<title>ml_n</title>
<polygon fill="#ffe6cc" stroke="black" stroke-width="2" points="710.76,-270.81 607.01,-206.81 710.76,-142.81 814.51,-206.81 710.76,-270.81"/>
<text text-anchor="start" x="691.26" y="-209.21" font-family="Garmond" font-size="28.00">ML</text>
<text text-anchor="start" x="666.88" y="-181.21" font-family="Garmond" font-size="28.00">Model</text>
<text text-anchor="start" x="743.38" y="-181.21" font-family="Garmond" baseline-shift="sub" font-size="16.00">m</text>
</g>
<!-- td_n&#45;&gt;ml_n -->
<g id="edge15" class="edge">
<title>td_n&#45;&gt;ml_n</title>
<path fill="none" stroke="black" stroke-width="2" d="M570.94,-197.65C581.31,-198.34 591.98,-199.04 602.57,-199.74"/>
<polygon fill="black" stroke="black" stroke-width="2" points="602.2,-203.22 612.4,-200.39 602.66,-196.24 602.2,-203.22"/>
</g>
<!-- ml_1&#45;&gt;kb -->
<g id="edge17" class="edge">
<title>ml_1&#45;&gt;kb</title>
<path fill="none" stroke="black" stroke-width="2" d="M761.95,-777.67C779.48,-765.31 798.71,-750.4 814.51,-734.81 890.37,-659.92 953.34,-556.55 995.52,-476.52"/>
<polygon fill="black" stroke="black" stroke-width="2" points="998.41,-478.55 999.94,-468.07 992.2,-475.31 998.41,-478.55"/>
<text text-anchor="middle" x="876.38" y="-709.78" font-family="Times,serif" font-size="24.00">Opinions</text>
</g>
<!-- ml_2&#45;&gt;kb -->
<g id="edge18" class="edge">
<title>ml_2&#45;&gt;kb</title>
<path fill="none" stroke="black" stroke-width="2" d="M758.94,-627.78C776.71,-614.5 796.88,-598.87 814.51,-583.81 857.16,-547.37 902.02,-505.41 941.19,-467.43"/>
<polygon fill="black" stroke="black" stroke-width="2" points="943.6,-469.97 948.33,-460.49 938.72,-464.96 943.6,-469.97"/>
<text text-anchor="middle" x="876.38" y="-567.45" font-family="Times,serif" font-size="24.00">Opinions</text>
</g>
<!-- ml_3&#45;&gt;kb -->
<g id="edge19" class="edge">
<title>ml_3&#45;&gt;kb</title>
<path fill="none" stroke="black" stroke-width="2" d="M770.46,-483.99C813.1,-464.51 872.43,-437.41 925.74,-413.06"/>
<polygon fill="black" stroke="black" stroke-width="2" points="926.98,-416.34 934.62,-409 924.07,-409.98 926.98,-416.34"/>
<text text-anchor="middle" x="876.38" y="-452.57" font-family="Times,serif" font-size="24.00">Opinions</text>
</g>
<!-- ml_4&#45;&gt;kb -->
<g id="edge20" class="edge">
<title>ml_4&#45;&gt;kb</title>
<path fill="none" stroke="black" stroke-width="2" d="M812.37,-354.81C847.48,-354.81 887.38,-354.81 924.47,-354.81"/>
<polygon fill="black" stroke="black" stroke-width="2" points="924.43,-358.31 934.43,-354.81 924.43,-351.31 924.43,-358.31"/>
<text text-anchor="middle" x="876.38" y="-356.01" font-family="Times,serif" font-size="24.00">Opinions</text>
</g>
<!-- ml_n&#45;&gt;kb -->
<g id="edge21" class="edge">
<title>ml_n&#45;&gt;kb</title>
<path fill="none" stroke="black" stroke-width="2" d="M773.2,-233.44C815.6,-251.82 873.52,-276.91 925.68,-299.52"/>
<polygon fill="black" stroke="black" stroke-width="2" points="924.06,-302.63 934.63,-303.4 926.84,-296.21 924.06,-302.63"/>
<text text-anchor="middle" x="876.38" y="-295.27" font-family="Times,serif" font-size="24.00">Opinions</text>
</g>
<!-- Processing -->
<g id="node18" class="node">
<title>Processing</title>
<polygon fill="#ffb366" stroke="black" stroke-width="2" points="1461.51,-373.06 1306.01,-373.06 1306.01,-336.56 1461.51,-336.56 1461.51,-373.06"/>
<text text-anchor="middle" x="1383.76" y="-342.46" font-family="Garmond" font-size="28.00">Processing</text>
</g>
<!-- kb&#45;&gt;Processing -->
<g id="edge22" class="edge">
<title>kb&#45;&gt;Processing</title>
<path fill="none" stroke="black" stroke-width="2" d="M1171.01,-400.13C1176.79,-401.55 1182.56,-402.79 1188.26,-403.81 1231.9,-411.59 1244.93,-414.29 1288.01,-403.81 1307.45,-399.08 1327.36,-389.61 1343.88,-380.25"/>
<polygon fill="black" stroke="black" stroke-width="2" points="1345.29,-383.48 1352.12,-375.38 1341.73,-377.45 1345.29,-383.48"/>
</g>
<!-- Processing&#45;&gt;kb -->
<g id="edge23" class="edge">
<title>Processing&#45;&gt;kb</title>
<path fill="none" stroke="black" stroke-width="2" d="M1305.2,-352.15C1299.38,-352.02 1293.6,-351.9 1288.01,-351.81 1254.24,-351.27 1217.71,-351.41 1183.83,-351.83"/>
<polygon fill="black" stroke="black" stroke-width="2" points="1183.96,-348.33 1174.01,-351.97 1184.06,-355.33 1183.96,-348.33"/>
<text text-anchor="middle" x="1238.13" y="-377.01" font-family="Times,serif" font-size="24.00">Confusion</text>
<text text-anchor="middle" x="1238.13" y="-353.01" font-family="Times,serif" font-size="24.00">Matrices</text>
</g>
<!-- Processing&#45;&gt;kb -->
<g id="edge24" class="edge">
<title>Processing&#45;&gt;kb</title>
<path fill="none" stroke="black" stroke-width="2" d="M1334.31,-335.7C1319.67,-330.82 1303.39,-326.26 1288.01,-323.81 1254.36,-318.45 1217.88,-319.89 1184,-324.26"/>
<polygon fill="black" stroke="black" stroke-width="2" points="1183.56,-320.79 1174.15,-325.65 1184.54,-327.72 1183.56,-320.79"/>
<text text-anchor="middle" x="1238.13" y="-325.01" font-family="Times,serif" font-size="24.00">Metrics</text>
</g>
<!-- Properties -->
<g id="node19" class="node">
<title>Properties</title>
<ellipse fill="#f8cef4" stroke="black" stroke-width="2" cx="710.76" cy="-25.81" rx="101.47" ry="25.81"/>
<text text-anchor="middle" x="710.76" y="-13.46" font-family="Garmond" font-size="28.00">Properties</text>
</g>
<!-- Properties&#45;&gt;kb -->
<g id="edge25" class="edge">
<title>Properties&#45;&gt;kb</title>
<path fill="none" stroke="black" stroke-width="2" d="M813.07,-26.37C850.01,-31.14 890.08,-42.17 920.26,-65.81 972.73,-106.92 1005.29,-173.49 1025.04,-232.39"/>
<polygon fill="black" stroke="black" stroke-width="2" points="1021.6,-233.13 1028.01,-241.56 1028.26,-230.97 1021.6,-233.13"/>
</g>
</g>
</svg>
