<?xml version="1.0" encoding="UTF-8" standalone="no"?>
<!DOCTYPE svg PUBLIC "-//W3C//DTD SVG 1.1//EN"
 "http://www.w3.org/Graphics/SVG/1.1/DTD/svg11.dtd">
<!-- Generated by graphviz version 12.2.1 (20241206.2353)
 -->
<!-- Title: D Pages: 1 -->
<svg width="516pt" height="497pt"
 viewBox="0.00 0.00 516.47 496.88" xmlns="http://www.w3.org/2000/svg" xmlns:xlink="http://www.w3.org/1999/xlink">
<g id="graph0" class="graph" transform="scale(1 1) rotate(0) translate(4 492.88)">
<title>D</title>
<polygon fill="white" stroke="none" points="-4,4 -4,-492.88 512.47,-492.88 512.47,4 -4,4"/>
<!-- input -->
<g id="node1" class="node">
<title>input</title>
<ellipse fill="#dae8fc" stroke="black" cx="57.98" cy="-245.5" rx="57.98" ry="26.87"/>
<text text-anchor="middle" x="57.98" y="-247.2" font-family="Garmond" font-size="14.00">Application</text>
<text text-anchor="middle" x="57.98" y="-232.2" font-family="Garmond" font-size="14.00">Input</text>
</g>
<!-- trans_1 -->
<g id="node2" class="node">
<title>trans_1</title>
<polygon fill="#d5e8d4" stroke="black" points="235.84,-488.88 153.09,-488.88 153.09,-406.12 235.84,-406.12 235.84,-488.88"/>
<text text-anchor="start" x="166.72" y="-449.2" font-family="Garmond" font-size="14.00">Property</text>
<text text-anchor="start" x="217.72" y="-449.2" font-family="Garmond" baseline-shift="sub" font-size="10.00">1</text>
<text text-anchor="start" x="161.09" y="-435.2" font-family="Garmond" font-size="14.00">Transform</text>
<text text-anchor="start" x="223.34" y="-435.2" font-family="Garmond" baseline-shift="sub" font-size="10.00">1</text>
</g>
<!-- input&#45;&gt;trans_1 -->
<g id="edge1" class="edge">
<title>input&#45;&gt;trans_1</title>
<path fill="none" stroke="black" d="M73.77,-271.81C91.33,-302.48 122.02,-354.33 151.97,-396.5 152.03,-396.6 152.1,-396.69 152.17,-396.79"/>
<polygon fill="black" stroke="black" points="149.17,-398.62 157.92,-404.6 154.81,-394.47 149.17,-398.62"/>
</g>
<!-- trans_2 -->
<g id="node3" class="node">
<title>trans_2</title>
<polygon fill="#d5e8d4" stroke="black" points="235.84,-387.88 153.09,-387.88 153.09,-305.12 235.84,-305.12 235.84,-387.88"/>
<text text-anchor="start" x="166.72" y="-348.2" font-family="Garmond" font-size="14.00">Property</text>
<text text-anchor="start" x="217.72" y="-348.2" font-family="Garmond" baseline-shift="sub" font-size="10.00">1</text>
<text text-anchor="start" x="161.09" y="-334.2" font-family="Garmond" font-size="14.00">Transform</text>
<text text-anchor="start" x="223.34" y="-334.2" font-family="Garmond" baseline-shift="sub" font-size="10.00">2</text>
</g>
<!-- input&#45;&gt;trans_2 -->
<g id="edge2" class="edge">
<title>input&#45;&gt;trans_2</title>
<path fill="none" stroke="black" d="M89.5,-268.42C105.55,-280.47 125.63,-295.55 143.85,-309.23"/>
<polygon fill="black" stroke="black" points="141.31,-311.71 151.41,-314.91 145.51,-306.11 141.31,-311.71"/>
</g>
<!-- trans_3 -->
<g id="node4" class="node">
<title>trans_3</title>
<polygon fill="#d5e8d4" stroke="black" points="235.84,-286.88 153.09,-286.88 153.09,-204.12 235.84,-204.12 235.84,-286.88"/>
<text text-anchor="start" x="166.72" y="-247.2" font-family="Garmond" font-size="14.00">Property</text>
<text text-anchor="start" x="217.72" y="-247.2" font-family="Garmond" baseline-shift="sub" font-size="10.00">2</text>
<text text-anchor="start" x="161.09" y="-233.2" font-family="Garmond" font-size="14.00">Transform</text>
<text text-anchor="start" x="223.34" y="-233.2" font-family="Garmond" baseline-shift="sub" font-size="10.00">3</text>
</g>
<!-- input&#45;&gt;trans_3 -->
<g id="edge3" class="edge">
<title>input&#45;&gt;trans_3</title>
<path fill="none" stroke="black" d="M116.41,-245.5C124.75,-245.5 133.3,-245.5 141.53,-245.5"/>
<polygon fill="black" stroke="black" points="141.38,-249 151.38,-245.5 141.38,-242 141.38,-249"/>
</g>
<!-- trans_4 -->
<g id="node5" class="node">
<title>trans_4</title>
<polygon fill="#d5e8d4" stroke="black" points="235.84,-185.88 153.09,-185.88 153.09,-103.12 235.84,-103.12 235.84,-185.88"/>
<text text-anchor="start" x="166.72" y="-146.2" font-family="Garmond" font-size="14.00">Property</text>
<text text-anchor="start" x="217.72" y="-146.2" font-family="Garmond" baseline-shift="sub" font-size="10.00">3</text>
<text text-anchor="start" x="161.09" y="-132.2" font-family="Garmond" font-size="14.00">Transform</text>
<text text-anchor="start" x="223.34" y="-132.2" font-family="Garmond" baseline-shift="sub" font-size="10.00">4</text>
</g>
<!-- input&#45;&gt;trans_4 -->
<g id="edge4" class="edge">
<title>input&#45;&gt;trans_4</title>
<path fill="none" stroke="black" d="M89.5,-222.58C105.55,-210.53 125.63,-195.45 143.85,-181.77"/>
<polygon fill="black" stroke="black" points="145.51,-184.89 151.41,-176.09 141.31,-179.29 145.51,-184.89"/>
</g>
<!-- trans_n -->
<g id="node6" class="node">
<title>trans_n</title>
<polygon fill="#d5e8d4" stroke="black" points="236.97,-85 151.97,-85 151.97,0 236.97,0 236.97,-85"/>
<text text-anchor="start" x="166.72" y="-44.2" font-family="Garmond" font-size="14.00">Property</text>
<text text-anchor="start" x="217.72" y="-44.2" font-family="Garmond" baseline-shift="sub" font-size="10.00">n</text>
<text text-anchor="start" x="159.97" y="-30.2" font-family="Garmond" font-size="14.00">Transform</text>
<text text-anchor="start" x="222.22" y="-30.2" font-family="Garmond" baseline-shift="sub" font-size="10.00">m</text>
</g>
<!-- input&#45;&gt;trans_n -->
<g id="edge5" class="edge">
<title>input&#45;&gt;trans_n</title>
<path fill="none" stroke="black" d="M73.85,-219.24C90.4,-190.47 118.54,-143.01 152.08,-94.67"/>
<polygon fill="black" stroke="black" points="154.89,-96.76 157.76,-86.56 149.16,-92.74 154.89,-96.76"/>
</g>
<!-- ml_1 -->
<g id="node7" class="node">
<title>ml_1</title>
<polygon fill="#ffe6cc" stroke="black" points="333.22,-483.5 275.22,-447.5 333.22,-411.5 391.22,-447.5 333.22,-483.5"/>
<text text-anchor="start" x="323.47" y="-449.2" font-family="Garmond" font-size="14.00">ML</text>
<text text-anchor="start" x="312.22" y="-435.2" font-family="Garmond" font-size="14.00">Model</text>
<text text-anchor="start" x="349.72" y="-435.2" font-family="Garmond" baseline-shift="sub" font-size="10.00">1</text>
</g>
<!-- trans_1&#45;&gt;ml_1 -->
<g id="edge6" class="edge">
<title>trans_1&#45;&gt;ml_1</title>
<path fill="none" stroke="black" d="M236.12,-447.5C244.69,-447.5 253.95,-447.5 263.23,-447.5"/>
<polygon fill="black" stroke="black" points="262.99,-451 272.99,-447.5 262.99,-444 262.99,-451"/>
</g>
<!-- ml_2 -->
<g id="node8" class="node">
<title>ml_2</title>
<polygon fill="#ffe6cc" stroke="black" points="333.22,-382.5 275.22,-346.5 333.22,-310.5 391.22,-346.5 333.22,-382.5"/>
<text text-anchor="start" x="323.47" y="-348.2" font-family="Garmond" font-size="14.00">ML</text>
<text text-anchor="start" x="312.22" y="-334.2" font-family="Garmond" font-size="14.00">Model</text>
<text text-anchor="start" x="349.72" y="-334.2" font-family="Garmond" baseline-shift="sub" font-size="10.00">2</text>
</g>
<!-- trans_2&#45;&gt;ml_2 -->
<g id="edge7" class="edge">
<title>trans_2&#45;&gt;ml_2</title>
<path fill="none" stroke="black" d="M236.12,-346.5C244.69,-346.5 253.95,-346.5 263.23,-346.5"/>
<polygon fill="black" stroke="black" points="262.99,-350 272.99,-346.5 262.99,-343 262.99,-350"/>
</g>
<!-- ml_3 -->
<g id="node9" class="node">
<title>ml_3</title>
<polygon fill="#ffe6cc" stroke="black" points="333.22,-281.5 275.22,-245.5 333.22,-209.5 391.22,-245.5 333.22,-281.5"/>
<text text-anchor="start" x="323.47" y="-247.2" font-family="Garmond" font-size="14.00">ML</text>
<text text-anchor="start" x="312.22" y="-233.2" font-family="Garmond" font-size="14.00">Model</text>
<text text-anchor="start" x="349.72" y="-233.2" font-family="Garmond" baseline-shift="sub" font-size="10.00">3</text>
</g>
<!-- trans_3&#45;&gt;ml_3 -->
<g id="edge8" class="edge">
<title>trans_3&#45;&gt;ml_3</title>
<path fill="none" stroke="black" d="M236.12,-245.5C244.69,-245.5 253.95,-245.5 263.23,-245.5"/>
<polygon fill="black" stroke="black" points="262.99,-249 272.99,-245.5 262.99,-242 262.99,-249"/>
</g>
<!-- ml_4 -->
<g id="node10" class="node">
<title>ml_4</title>
<polygon fill="#ffe6cc" stroke="black" points="333.22,-180.5 275.22,-144.5 333.22,-108.5 391.22,-144.5 333.22,-180.5"/>
<text text-anchor="start" x="323.47" y="-146.2" font-family="Garmond" font-size="14.00">ML</text>
<text text-anchor="start" x="312.22" y="-132.2" font-family="Garmond" font-size="14.00">Model</text>
<text text-anchor="start" x="349.72" y="-132.2" font-family="Garmond" baseline-shift="sub" font-size="10.00">4</text>
</g>
<!-- trans_4&#45;&gt;ml_4 -->
<g id="edge9" class="edge">
<title>trans_4&#45;&gt;ml_4</title>
<path fill="none" stroke="black" d="M236.12,-144.5C244.69,-144.5 253.95,-144.5 263.23,-144.5"/>
<polygon fill="black" stroke="black" points="262.99,-148 272.99,-144.5 262.99,-141 262.99,-148"/>
</g>
<!-- ml_n -->
<g id="node11" class="node">
<title>ml_n</title>
<polygon fill="#ffe6cc" stroke="black" points="333.22,-78.5 272.97,-42.5 333.22,-6.5 393.47,-42.5 333.22,-78.5"/>
<text text-anchor="start" x="323.47" y="-44.2" font-family="Garmond" font-size="14.00">ML</text>
<text text-anchor="start" x="311.09" y="-30.2" font-family="Garmond" font-size="14.00">Model</text>
<text text-anchor="start" x="348.59" y="-30.2" font-family="Garmond" baseline-shift="sub" font-size="10.00">m</text>
</g>
<!-- trans_n&#45;&gt;ml_n -->
<g id="edge10" class="edge">
<title>trans_n&#45;&gt;ml_n</title>
<path fill="none" stroke="black" d="M237.24,-42.5C244.71,-42.5 252.69,-42.5 260.72,-42.5"/>
<polygon fill="black" stroke="black" points="260.56,-46 270.56,-42.5 260.56,-39 260.56,-46"/>
</g>
<!-- inf_1 -->
<g id="node12" class="node">
<title>inf_1</title>
<text text-anchor="start" x="438.59" y="-442.7" font-family="Garmond" font-size="14.00">Inference</text>
<text text-anchor="start" x="494.84" y="-442.7" font-family="Garmond" baseline-shift="sub" font-size="10.00">1</text>
</g>
<!-- ml_1&#45;&gt;inf_1 -->
<g id="edge11" class="edge">
<title>ml_1&#45;&gt;inf_1</title>
<path fill="none" stroke="black" d="M392.1,-447.5C401.23,-447.5 410.59,-447.5 419.48,-447.5"/>
<polygon fill="black" stroke="black" points="419.32,-451 429.32,-447.5 419.32,-444 419.32,-451"/>
</g>
<!-- inf_2 -->
<g id="node13" class="node">
<title>inf_2</title>
<text text-anchor="start" x="438.59" y="-341.7" font-family="Garmond" font-size="14.00">Inference</text>
<text text-anchor="start" x="494.84" y="-341.7" font-family="Garmond" baseline-shift="sub" font-size="10.00">2</text>
</g>
<!-- ml_2&#45;&gt;inf_2 -->
<g id="edge12" class="edge">
<title>ml_2&#45;&gt;inf_2</title>
<path fill="none" stroke="black" d="M392.1,-346.5C401.23,-346.5 410.59,-346.5 419.48,-346.5"/>
<polygon fill="black" stroke="black" points="419.32,-350 429.32,-346.5 419.32,-343 419.32,-350"/>
</g>
<!-- inf_3 -->
<g id="node14" class="node">
<title>inf_3</title>
<text text-anchor="start" x="438.59" y="-240.7" font-family="Garmond" font-size="14.00">Inference</text>
<text text-anchor="start" x="494.84" y="-240.7" font-family="Garmond" baseline-shift="sub" font-size="10.00">3</text>
</g>
<!-- ml_3&#45;&gt;inf_3 -->
<g id="edge13" class="edge">
<title>ml_3&#45;&gt;inf_3</title>
<path fill="none" stroke="black" d="M392.1,-245.5C401.23,-245.5 410.59,-245.5 419.48,-245.5"/>
<polygon fill="black" stroke="black" points="419.32,-249 429.32,-245.5 419.32,-242 419.32,-249"/>
</g>
<!-- inf_4 -->
<g id="node15" class="node">
<title>inf_4</title>
<text text-anchor="start" x="438.59" y="-139.7" font-family="Garmond" font-size="14.00">Inference</text>
<text text-anchor="start" x="494.84" y="-139.7" font-family="Garmond" baseline-shift="sub" font-size="10.00">4</text>
</g>
<!-- ml_4&#45;&gt;inf_4 -->
<g id="edge14" class="edge">
<title>ml_4&#45;&gt;inf_4</title>
<path fill="none" stroke="black" d="M392.1,-144.5C401.23,-144.5 410.59,-144.5 419.48,-144.5"/>
<polygon fill="black" stroke="black" points="419.32,-148 429.32,-144.5 419.32,-141 419.32,-148"/>
</g>
<!-- inf_n -->
<g id="node16" class="node">
<title>inf_n</title>
<text text-anchor="start" x="437.47" y="-37.7" font-family="Garmond" font-size="14.00">Inference</text>
<text text-anchor="start" x="493.72" y="-37.7" font-family="Garmond" baseline-shift="sub" font-size="10.00">m</text>
</g>
<!-- ml_n&#45;&gt;inf_n -->
<g id="edge15" class="edge">
<title>ml_n&#45;&gt;inf_n</title>
<path fill="none" stroke="black" d="M394.44,-42.5C402.36,-42.5 410.4,-42.5 418.12,-42.5"/>
<polygon fill="black" stroke="black" points="418.02,-46 428.02,-42.5 418.02,-39 418.02,-46"/>
</g>
</g>
</svg>
