<?xml version="1.0" encoding="UTF-8" standalone="no"?>
<!DOCTYPE svg PUBLIC "-//W3C//DTD SVG 1.1//EN"
 "http://www.w3.org/Graphics/SVG/1.1/DTD/svg11.dtd">
<!-- Generated by graphviz version 12.2.1 (20241206.2353)
 -->
<!-- Title: D Pages: 1 -->
<svg width="509pt" height="497pt"
 viewBox="0.00 0.00 508.57 496.88" xmlns="http://www.w3.org/2000/svg" xmlns:xlink="http://www.w3.org/1999/xlink">
<g id="graph0" class="graph" transform="scale(1 1) rotate(0) translate(4 492.88)">
<title>D</title>
<polygon fill="white" stroke="none" points="-4,4 -4,-492.88 504.57,-492.88 504.57,4 -4,4"/>
<!-- input -->
<g id="node1" class="node">
<title>input</title>
<ellipse fill="#dae8fc" stroke="black" cx="45.79" cy="-245.5" rx="45.79" ry="26.87"/>
<text text-anchor="middle" x="45.79" y="-247.2" font-family="Garmond" font-size="14.00">Training</text>
<text text-anchor="middle" x="45.79" y="-232.2" font-family="Garmond" font-size="14.00">Data</text>
</g>
<!-- trans_1 -->
<g id="node2" class="node">
<title>trans_1</title>
<polygon fill="#d5e8d4" stroke="black" points="211.45,-488.88 128.7,-488.88 128.7,-406.12 211.45,-406.12 211.45,-488.88"/>
<text text-anchor="start" x="142.32" y="-449.2" font-family="Garmond" font-size="14.00">Property</text>
<text text-anchor="start" x="193.32" y="-449.2" font-family="Garmond" baseline-shift="sub" font-size="10.00">1</text>
<text text-anchor="start" x="136.7" y="-435.2" font-family="Garmond" font-size="14.00">Transform</text>
<text text-anchor="start" x="198.95" y="-435.2" font-family="Garmond" baseline-shift="sub" font-size="10.00">1</text>
</g>
<!-- input&#45;&gt;trans_1 -->
<g id="edge1" class="edge">
<title>input&#45;&gt;trans_1</title>
<path fill="none" stroke="black" d="M58.79,-271.47C72.53,-300.34 96.49,-348.2 127.67,-396.1"/>
<polygon fill="black" stroke="black" points="124.73,-398 133.17,-404.41 130.57,-394.14 124.73,-398"/>
</g>
<!-- trans_2 -->
<g id="node3" class="node">
<title>trans_2</title>
<polygon fill="#d5e8d4" stroke="black" points="211.45,-387.88 128.7,-387.88 128.7,-305.12 211.45,-305.12 211.45,-387.88"/>
<text text-anchor="start" x="142.32" y="-348.2" font-family="Garmond" font-size="14.00">Property</text>
<text text-anchor="start" x="193.32" y="-348.2" font-family="Garmond" baseline-shift="sub" font-size="10.00">1</text>
<text text-anchor="start" x="136.7" y="-334.2" font-family="Garmond" font-size="14.00">Transform</text>
<text text-anchor="start" x="198.95" y="-334.2" font-family="Garmond" baseline-shift="sub" font-size="10.00">2</text>
</g>
<!-- input&#45;&gt;trans_2 -->
<g id="edge2" class="edge">
<title>input&#45;&gt;trans_2</title>
<path fill="none" stroke="black" d="M73.32,-267.42C86.95,-278.67 104,-292.76 119.93,-305.91"/>
<polygon fill="black" stroke="black" points="117.52,-308.47 127.46,-312.13 121.98,-303.07 117.52,-308.47"/>
</g>
<!-- trans_3 -->
<g id="node4" class="node">
<title>trans_3</title>
<polygon fill="#d5e8d4" stroke="black" points="211.45,-286.88 128.7,-286.88 128.7,-204.12 211.45,-204.12 211.45,-286.88"/>
<text text-anchor="start" x="142.32" y="-247.2" font-family="Garmond" font-size="14.00">Property</text>
<text text-anchor="start" x="193.32" y="-247.2" font-family="Garmond" baseline-shift="sub" font-size="10.00">2</text>
<text text-anchor="start" x="136.7" y="-233.2" font-family="Garmond" font-size="14.00">Transform</text>
<text text-anchor="start" x="198.95" y="-233.2" font-family="Garmond" baseline-shift="sub" font-size="10.00">3</text>
</g>
<!-- input&#45;&gt;trans_3 -->
<g id="edge3" class="edge">
<title>input&#45;&gt;trans_3</title>
<path fill="none" stroke="black" d="M91.97,-245.5C100.2,-245.5 108.85,-245.5 117.26,-245.5"/>
<polygon fill="black" stroke="black" points="117,-249 127,-245.5 117,-242 117,-249"/>
</g>
<!-- trans_4 -->
<g id="node5" class="node">
<title>trans_4</title>
<polygon fill="#d5e8d4" stroke="black" points="211.45,-185.88 128.7,-185.88 128.7,-103.12 211.45,-103.12 211.45,-185.88"/>
<text text-anchor="start" x="142.32" y="-146.2" font-family="Garmond" font-size="14.00">Property</text>
<text text-anchor="start" x="193.32" y="-146.2" font-family="Garmond" baseline-shift="sub" font-size="10.00">3</text>
<text text-anchor="start" x="136.7" y="-132.2" font-family="Garmond" font-size="14.00">Transform</text>
<text text-anchor="start" x="198.95" y="-132.2" font-family="Garmond" baseline-shift="sub" font-size="10.00">4</text>
</g>
<!-- input&#45;&gt;trans_4 -->
<g id="edge4" class="edge">
<title>input&#45;&gt;trans_4</title>
<path fill="none" stroke="black" d="M73.32,-223.58C86.95,-212.33 104,-198.24 119.93,-185.09"/>
<polygon fill="black" stroke="black" points="121.98,-187.93 127.46,-178.87 117.52,-182.53 121.98,-187.93"/>
</g>
<!-- trans_n -->
<g id="node6" class="node">
<title>trans_n</title>
<polygon fill="#d5e8d4" stroke="black" points="212.57,-85 127.57,-85 127.57,0 212.57,0 212.57,-85"/>
<text text-anchor="start" x="142.32" y="-44.2" font-family="Garmond" font-size="14.00">Property</text>
<text text-anchor="start" x="193.32" y="-44.2" font-family="Garmond" baseline-shift="sub" font-size="10.00">n</text>
<text text-anchor="start" x="135.57" y="-30.2" font-family="Garmond" font-size="14.00">Transform</text>
<text text-anchor="start" x="197.82" y="-30.2" font-family="Garmond" baseline-shift="sub" font-size="10.00">m</text>
</g>
<!-- input&#45;&gt;trans_n -->
<g id="edge5" class="edge">
<title>input&#45;&gt;trans_n</title>
<path fill="none" stroke="black" d="M58.99,-219.3C72.81,-190.44 96.77,-142.78 127.56,-95.02"/>
<polygon fill="black" stroke="black" points="130.44,-97.02 132.98,-86.73 124.58,-93.19 130.44,-97.02"/>
</g>
<!-- td_1 -->
<g id="node7" class="node">
<title>td_1</title>
<path fill="#ffb366" stroke="black" d="M342.95,-475.62C342.95,-479.07 322.05,-481.88 296.32,-481.88 270.59,-481.88 249.7,-479.07 249.7,-475.62 249.7,-475.62 249.7,-419.38 249.7,-419.38 249.7,-415.93 270.59,-413.12 296.32,-413.12 322.05,-413.12 342.95,-415.93 342.95,-419.38 342.95,-419.38 342.95,-475.62 342.95,-475.62"/>
<path fill="none" stroke="black" d="M342.95,-475.62C342.95,-472.18 322.05,-469.38 296.32,-469.38 270.59,-469.38 249.7,-472.18 249.7,-475.62"/>
<text text-anchor="start" x="270.82" y="-456.2" font-family="Garmond" font-size="14.00">Property</text>
<text text-anchor="start" x="265.2" y="-442.2" font-family="Garmond" font-size="14.00">Transform</text>
<text text-anchor="start" x="257.7" y="-428.2" font-family="Garmond" font-size="14.00">Training Set</text>
<text text-anchor="start" x="330.45" y="-428.2" font-family="Garmond" baseline-shift="sub" font-size="10.00">1</text>
</g>
<!-- trans_1&#45;&gt;td_1 -->
<g id="edge6" class="edge">
<title>trans_1&#45;&gt;td_1</title>
<path fill="none" stroke="black" d="M211.75,-447.5C220.12,-447.5 229.08,-447.5 237.91,-447.5"/>
<polygon fill="black" stroke="black" points="237.87,-451 247.87,-447.5 237.87,-444 237.87,-451"/>
</g>
<!-- td_2 -->
<g id="node8" class="node">
<title>td_2</title>
<path fill="#ffb366" stroke="black" d="M342.95,-374.62C342.95,-378.07 322.05,-380.88 296.32,-380.88 270.59,-380.88 249.7,-378.07 249.7,-374.62 249.7,-374.62 249.7,-318.38 249.7,-318.38 249.7,-314.93 270.59,-312.12 296.32,-312.12 322.05,-312.12 342.95,-314.93 342.95,-318.38 342.95,-318.38 342.95,-374.62 342.95,-374.62"/>
<path fill="none" stroke="black" d="M342.95,-374.62C342.95,-371.18 322.05,-368.38 296.32,-368.38 270.59,-368.38 249.7,-371.18 249.7,-374.62"/>
<text text-anchor="start" x="270.82" y="-355.2" font-family="Garmond" font-size="14.00">Property</text>
<text text-anchor="start" x="265.2" y="-341.2" font-family="Garmond" font-size="14.00">Transform</text>
<text text-anchor="start" x="257.7" y="-327.2" font-family="Garmond" font-size="14.00">Training Set</text>
<text text-anchor="start" x="330.45" y="-327.2" font-family="Garmond" baseline-shift="sub" font-size="10.00">2</text>
</g>
<!-- trans_2&#45;&gt;td_2 -->
<g id="edge7" class="edge">
<title>trans_2&#45;&gt;td_2</title>
<path fill="none" stroke="black" d="M211.75,-346.5C220.12,-346.5 229.08,-346.5 237.91,-346.5"/>
<polygon fill="black" stroke="black" points="237.87,-350 247.87,-346.5 237.87,-343 237.87,-350"/>
</g>
<!-- td_3 -->
<g id="node9" class="node">
<title>td_3</title>
<path fill="#ffb366" stroke="black" d="M342.95,-273.62C342.95,-277.07 322.05,-279.88 296.32,-279.88 270.59,-279.88 249.7,-277.07 249.7,-273.62 249.7,-273.62 249.7,-217.38 249.7,-217.38 249.7,-213.93 270.59,-211.12 296.32,-211.12 322.05,-211.12 342.95,-213.93 342.95,-217.38 342.95,-217.38 342.95,-273.62 342.95,-273.62"/>
<path fill="none" stroke="black" d="M342.95,-273.62C342.95,-270.18 322.05,-267.38 296.32,-267.38 270.59,-267.38 249.7,-270.18 249.7,-273.62"/>
<text text-anchor="start" x="270.82" y="-254.2" font-family="Garmond" font-size="14.00">Property</text>
<text text-anchor="start" x="265.2" y="-240.2" font-family="Garmond" font-size="14.00">Transform</text>
<text text-anchor="start" x="257.7" y="-226.2" font-family="Garmond" font-size="14.00">Training Set</text>
<text text-anchor="start" x="330.45" y="-226.2" font-family="Garmond" baseline-shift="sub" font-size="10.00">3</text>
</g>
<!-- trans_3&#45;&gt;td_3 -->
<g id="edge8" class="edge">
<title>trans_3&#45;&gt;td_3</title>
<path fill="none" stroke="black" d="M211.75,-245.5C220.12,-245.5 229.08,-245.5 237.91,-245.5"/>
<polygon fill="black" stroke="black" points="237.87,-249 247.87,-245.5 237.87,-242 237.87,-249"/>
</g>
<!-- td_4 -->
<g id="node10" class="node">
<title>td_4</title>
<path fill="#ffb366" stroke="black" d="M342.95,-172.62C342.95,-176.07 322.05,-178.88 296.32,-178.88 270.59,-178.88 249.7,-176.07 249.7,-172.62 249.7,-172.62 249.7,-116.38 249.7,-116.38 249.7,-112.93 270.59,-110.12 296.32,-110.12 322.05,-110.12 342.95,-112.93 342.95,-116.38 342.95,-116.38 342.95,-172.62 342.95,-172.62"/>
<path fill="none" stroke="black" d="M342.95,-172.62C342.95,-169.18 322.05,-166.38 296.32,-166.38 270.59,-166.38 249.7,-169.18 249.7,-172.62"/>
<text text-anchor="start" x="270.82" y="-153.2" font-family="Garmond" font-size="14.00">Property</text>
<text text-anchor="start" x="265.2" y="-139.2" font-family="Garmond" font-size="14.00">Transform</text>
<text text-anchor="start" x="257.7" y="-125.2" font-family="Garmond" font-size="14.00">Training Set</text>
<text text-anchor="start" x="330.45" y="-125.2" font-family="Garmond" baseline-shift="sub" font-size="10.00">4</text>
</g>
<!-- trans_4&#45;&gt;td_4 -->
<g id="edge9" class="edge">
<title>trans_4&#45;&gt;td_4</title>
<path fill="none" stroke="black" d="M211.75,-144.5C220.12,-144.5 229.08,-144.5 237.91,-144.5"/>
<polygon fill="black" stroke="black" points="237.87,-148 247.87,-144.5 237.87,-141 237.87,-148"/>
</g>
<!-- td_n -->
<g id="node11" class="node">
<title>td_n</title>
<path fill="#ffb366" stroke="black" d="M344.07,-70.62C344.07,-74.07 322.67,-76.88 296.32,-76.88 269.97,-76.88 248.57,-74.07 248.57,-70.62 248.57,-70.62 248.57,-14.38 248.57,-14.38 248.57,-10.93 269.97,-8.12 296.32,-8.12 322.67,-8.12 344.07,-10.93 344.07,-14.38 344.07,-14.38 344.07,-70.62 344.07,-70.62"/>
<path fill="none" stroke="black" d="M344.07,-70.62C344.07,-67.18 322.67,-64.38 296.32,-64.38 269.97,-64.38 248.57,-67.18 248.57,-70.62"/>
<text text-anchor="start" x="270.82" y="-51.2" font-family="Garmond" font-size="14.00">Property</text>
<text text-anchor="start" x="265.2" y="-37.2" font-family="Garmond" font-size="14.00">Transform</text>
<text text-anchor="start" x="256.57" y="-23.2" font-family="Garmond" font-size="14.00">Training Set</text>
<text text-anchor="start" x="329.32" y="-23.2" font-family="Garmond" baseline-shift="sub" font-size="10.00">m</text>
</g>
<!-- trans_n&#45;&gt;td_n -->
<g id="edge10" class="edge">
<title>trans_n&#45;&gt;td_n</title>
<path fill="none" stroke="black" d="M212.79,-42.5C220.55,-42.5 228.79,-42.5 236.95,-42.5"/>
<polygon fill="black" stroke="black" points="236.85,-46 246.85,-42.5 236.85,-39 236.85,-46"/>
</g>
<!-- ml_1 -->
<g id="node12" class="node">
<title>ml_1</title>
<polygon fill="#ffe6cc" stroke="black" points="440.32,-483.5 382.32,-447.5 440.32,-411.5 498.32,-447.5 440.32,-483.5"/>
<text text-anchor="start" x="430.57" y="-449.2" font-family="Garmond" font-size="14.00">ML</text>
<text text-anchor="start" x="419.32" y="-435.2" font-family="Garmond" font-size="14.00">Model</text>
<text text-anchor="start" x="456.82" y="-435.2" font-family="Garmond" baseline-shift="sub" font-size="10.00">1</text>
</g>
<!-- td_1&#45;&gt;ml_1 -->
<g id="edge11" class="edge">
<title>td_1&#45;&gt;ml_1</title>
<path fill="none" stroke="black" d="M343.42,-447.5C351.96,-447.5 361.06,-447.5 370.11,-447.5"/>
<polygon fill="black" stroke="black" points="370,-451 380,-447.5 370,-444 370,-451"/>
</g>
<!-- ml_2 -->
<g id="node13" class="node">
<title>ml_2</title>
<polygon fill="#ffe6cc" stroke="black" points="440.32,-382.5 382.32,-346.5 440.32,-310.5 498.32,-346.5 440.32,-382.5"/>
<text text-anchor="start" x="430.57" y="-348.2" font-family="Garmond" font-size="14.00">ML</text>
<text text-anchor="start" x="419.32" y="-334.2" font-family="Garmond" font-size="14.00">Model</text>
<text text-anchor="start" x="456.82" y="-334.2" font-family="Garmond" baseline-shift="sub" font-size="10.00">2</text>
</g>
<!-- td_2&#45;&gt;ml_2 -->
<g id="edge12" class="edge">
<title>td_2&#45;&gt;ml_2</title>
<path fill="none" stroke="black" d="M343.42,-346.5C351.96,-346.5 361.06,-346.5 370.11,-346.5"/>
<polygon fill="black" stroke="black" points="370,-350 380,-346.5 370,-343 370,-350"/>
</g>
<!-- ml_3 -->
<g id="node14" class="node">
<title>ml_3</title>
<polygon fill="#ffe6cc" stroke="black" points="440.32,-281.5 382.32,-245.5 440.32,-209.5 498.32,-245.5 440.32,-281.5"/>
<text text-anchor="start" x="430.57" y="-247.2" font-family="Garmond" font-size="14.00">ML</text>
<text text-anchor="start" x="419.32" y="-233.2" font-family="Garmond" font-size="14.00">Model</text>
<text text-anchor="start" x="456.82" y="-233.2" font-family="Garmond" baseline-shift="sub" font-size="10.00">3</text>
</g>
<!-- td_3&#45;&gt;ml_3 -->
<g id="edge13" class="edge">
<title>td_3&#45;&gt;ml_3</title>
<path fill="none" stroke="black" d="M343.42,-245.5C351.96,-245.5 361.06,-245.5 370.11,-245.5"/>
<polygon fill="black" stroke="black" points="370,-249 380,-245.5 370,-242 370,-249"/>
</g>
<!-- ml_4 -->
<g id="node15" class="node">
<title>ml_4</title>
<polygon fill="#ffe6cc" stroke="black" points="440.32,-180.5 382.32,-144.5 440.32,-108.5 498.32,-144.5 440.32,-180.5"/>
<text text-anchor="start" x="430.57" y="-146.2" font-family="Garmond" font-size="14.00">ML</text>
<text text-anchor="start" x="419.32" y="-132.2" font-family="Garmond" font-size="14.00">Model</text>
<text text-anchor="start" x="456.82" y="-132.2" font-family="Garmond" baseline-shift="sub" font-size="10.00">4</text>
</g>
<!-- td_4&#45;&gt;ml_4 -->
<g id="edge14" class="edge">
<title>td_4&#45;&gt;ml_4</title>
<path fill="none" stroke="black" d="M343.42,-144.5C351.96,-144.5 361.06,-144.5 370.11,-144.5"/>
<polygon fill="black" stroke="black" points="370,-148 380,-144.5 370,-141 370,-148"/>
</g>
<!-- ml_n -->
<g id="node16" class="node">
<title>ml_n</title>
<polygon fill="#ffe6cc" stroke="black" points="440.32,-78.5 380.07,-42.5 440.32,-6.5 500.57,-42.5 440.32,-78.5"/>
<text text-anchor="start" x="430.57" y="-44.2" font-family="Garmond" font-size="14.00">ML</text>
<text text-anchor="start" x="418.2" y="-30.2" font-family="Garmond" font-size="14.00">Model</text>
<text text-anchor="start" x="455.7" y="-30.2" font-family="Garmond" baseline-shift="sub" font-size="10.00">m</text>
</g>
<!-- td_n&#45;&gt;ml_n -->
<g id="edge15" class="edge">
<title>td_n&#45;&gt;ml_n</title>
<path fill="none" stroke="black" d="M344.21,-42.5C351.84,-42.5 359.9,-42.5 367.96,-42.5"/>
<polygon fill="black" stroke="black" points="367.8,-46 377.8,-42.5 367.8,-39 367.8,-46"/>
</g>
</g>
</svg>
