<?xml version="1.0" encoding="UTF-8" standalone="no"?>
<!DOCTYPE svg PUBLIC "-//W3C//DTD SVG 1.1//EN"
 "http://www.w3.org/Graphics/SVG/1.1/DTD/svg11.dtd">
<!-- Generated by graphviz version 12.2.1 (20241206.2353)
 -->
<!-- Title: D Pages: 1 -->
<svg width="547pt" height="287pt"
 viewBox="0.00 0.00 547.38 287.49" xmlns="http://www.w3.org/2000/svg" xmlns:xlink="http://www.w3.org/1999/xlink">
<g id="graph0" class="graph" transform="scale(1 1) rotate(0) translate(4 283.49)">
<title>D</title>
<polygon fill="white" stroke="none" points="-4,4 -4,-283.49 543.38,-283.49 543.38,4 -4,4"/>
<!-- input -->
<g id="node1" class="node">
<title>input</title>
<ellipse fill="#dae8fc" stroke="black" cx="268.62" cy="-252.62" rx="45.79" ry="26.87"/>
<text text-anchor="middle" x="268.62" y="-254.32" font-family="Garmond" font-size="14.00">Training</text>
<text text-anchor="middle" x="268.62" y="-239.32" font-family="Garmond" font-size="14.00">Set</text>
</g>
<!-- trans_1 -->
<g id="node2" class="node">
<title>trans_1</title>
<polygon fill="#d5e8d4" stroke="black" points="98,-188.62 15.25,-188.62 15.25,-105.88 98,-105.88 98,-188.62"/>
<text text-anchor="start" x="28.88" y="-148.95" font-family="Garmond" font-size="14.00">Property</text>
<text text-anchor="start" x="79.88" y="-148.95" font-family="Garmond" baseline-shift="sub" font-size="10.00">1</text>
<text text-anchor="start" x="23.25" y="-134.95" font-family="Garmond" font-size="14.00">Transform</text>
<text text-anchor="start" x="85.5" y="-134.95" font-family="Garmond" baseline-shift="sub" font-size="10.00">1</text>
</g>
<!-- input&#45;&gt;trans_1 -->
<g id="edge1" class="edge">
<title>input&#45;&gt;trans_1</title>
<path fill="none" stroke="black" d="M228.55,-238.96C196.25,-228 150.18,-210.64 112.62,-189.75 110.99,-188.84 109.35,-187.89 107.7,-186.9"/>
<polygon fill="black" stroke="black" points="109.94,-184.18 99.62,-181.77 106.19,-190.09 109.94,-184.18"/>
</g>
<!-- trans_2 -->
<g id="node3" class="node">
<title>trans_2</title>
<polygon fill="#d5e8d4" stroke="black" points="204,-188.62 121.25,-188.62 121.25,-105.88 204,-105.88 204,-188.62"/>
<text text-anchor="start" x="134.88" y="-148.95" font-family="Garmond" font-size="14.00">Property</text>
<text text-anchor="start" x="185.88" y="-148.95" font-family="Garmond" baseline-shift="sub" font-size="10.00">1</text>
<text text-anchor="start" x="129.25" y="-134.95" font-family="Garmond" font-size="14.00">Transform</text>
<text text-anchor="start" x="191.5" y="-134.95" font-family="Garmond" baseline-shift="sub" font-size="10.00">2</text>
</g>
<!-- input&#45;&gt;trans_2 -->
<g id="edge2" class="edge">
<title>input&#45;&gt;trans_2</title>
<path fill="none" stroke="black" d="M245.62,-229.19C235.83,-219.64 223.99,-208.1 212.37,-196.76"/>
<polygon fill="black" stroke="black" points="215.07,-194.51 205.47,-190.03 210.18,-199.52 215.07,-194.51"/>
</g>
<!-- trans_3 -->
<g id="node4" class="node">
<title>trans_3</title>
<polygon fill="#d5e8d4" stroke="black" points="310,-188.62 227.25,-188.62 227.25,-105.88 310,-105.88 310,-188.62"/>
<text text-anchor="start" x="240.88" y="-148.95" font-family="Garmond" font-size="14.00">Property</text>
<text text-anchor="start" x="291.88" y="-148.95" font-family="Garmond" baseline-shift="sub" font-size="10.00">2</text>
<text text-anchor="start" x="235.25" y="-134.95" font-family="Garmond" font-size="14.00">Transform</text>
<text text-anchor="start" x="297.5" y="-134.95" font-family="Garmond" baseline-shift="sub" font-size="10.00">3</text>
</g>
<!-- input&#45;&gt;trans_3 -->
<g id="edge3" class="edge">
<title>input&#45;&gt;trans_3</title>
<path fill="none" stroke="black" d="M268.62,-225.27C268.62,-217.62 268.62,-208.98 268.62,-200.33"/>
<polygon fill="black" stroke="black" points="272.13,-200.54 268.63,-190.54 265.13,-200.54 272.13,-200.54"/>
</g>
<!-- trans_4 -->
<g id="node5" class="node">
<title>trans_4</title>
<polygon fill="#d5e8d4" stroke="black" points="416,-188.62 333.25,-188.62 333.25,-105.88 416,-105.88 416,-188.62"/>
<text text-anchor="start" x="346.88" y="-148.95" font-family="Garmond" font-size="14.00">Property</text>
<text text-anchor="start" x="397.88" y="-148.95" font-family="Garmond" baseline-shift="sub" font-size="10.00">3</text>
<text text-anchor="start" x="341.25" y="-134.95" font-family="Garmond" font-size="14.00">Transform</text>
<text text-anchor="start" x="403.5" y="-134.95" font-family="Garmond" baseline-shift="sub" font-size="10.00">4</text>
</g>
<!-- input&#45;&gt;trans_4 -->
<g id="edge4" class="edge">
<title>input&#45;&gt;trans_4</title>
<path fill="none" stroke="black" d="M291.63,-229.19C301.42,-219.64 313.26,-208.1 324.88,-196.76"/>
<polygon fill="black" stroke="black" points="327.07,-199.52 331.78,-190.03 322.18,-194.51 327.07,-199.52"/>
</g>
<!-- trans_n -->
<g id="node6" class="node">
<title>trans_n</title>
<polygon fill="#d5e8d4" stroke="black" points="526.12,-189.75 441.12,-189.75 441.12,-104.75 526.12,-104.75 526.12,-189.75"/>
<text text-anchor="start" x="455.88" y="-148.95" font-family="Garmond" font-size="14.00">Property</text>
<text text-anchor="start" x="506.88" y="-148.95" font-family="Garmond" baseline-shift="sub" font-size="10.00">n</text>
<text text-anchor="start" x="449.12" y="-134.95" font-family="Garmond" font-size="14.00">Transform</text>
<text text-anchor="start" x="511.38" y="-134.95" font-family="Garmond" baseline-shift="sub" font-size="10.00">m</text>
</g>
<!-- input&#45;&gt;trans_n -->
<g id="edge5" class="edge">
<title>input&#45;&gt;trans_n</title>
<path fill="none" stroke="black" d="M308.24,-238.82C340.47,-227.72 386.69,-210.24 424.62,-189.75 426.82,-188.57 429.03,-187.31 431.24,-186.01"/>
<polygon fill="black" stroke="black" points="432.92,-189.09 439.59,-180.85 429.24,-183.13 432.92,-189.09"/>
</g>
<!-- td_1 -->
<g id="node7" class="node">
<title>td_1</title>
<path fill="#ffb366" stroke="black" d="M93.25,-62.5C93.25,-65.95 72.35,-68.75 46.62,-68.75 20.9,-68.75 0,-65.95 0,-62.5 0,-62.5 0,-6.25 0,-6.25 0,-2.8 20.9,0 46.62,0 72.35,0 93.25,-2.8 93.25,-6.25 93.25,-6.25 93.25,-62.5 93.25,-62.5"/>
<path fill="none" stroke="black" d="M93.25,-62.5C93.25,-59.05 72.35,-56.25 46.62,-56.25 20.9,-56.25 0,-59.05 0,-62.5"/>
<text text-anchor="start" x="21.12" y="-43.08" font-family="Garmond" font-size="14.00">Property</text>
<text text-anchor="start" x="15.5" y="-29.08" font-family="Garmond" font-size="14.00">Transform</text>
<text text-anchor="start" x="8" y="-15.08" font-family="Garmond" font-size="14.00">Training Set</text>
<text text-anchor="start" x="80.75" y="-15.08" font-family="Garmond" baseline-shift="sub" font-size="10.00">1</text>
</g>
<!-- trans_1&#45;&gt;td_1 -->
<g id="edge6" class="edge">
<title>trans_1&#45;&gt;td_1</title>
<path fill="none" stroke="black" d="M52.96,-105.59C52.22,-97.44 51.45,-88.84 50.7,-80.54"/>
<polygon fill="black" stroke="black" points="54.19,-80.27 49.8,-70.62 47.22,-80.9 54.19,-80.27"/>
</g>
<!-- td_2 -->
<g id="node8" class="node">
<title>td_2</title>
<path fill="#ffb366" stroke="black" d="M204.25,-62.5C204.25,-65.95 183.35,-68.75 157.62,-68.75 131.9,-68.75 111,-65.95 111,-62.5 111,-62.5 111,-6.25 111,-6.25 111,-2.8 131.9,0 157.62,0 183.35,0 204.25,-2.8 204.25,-6.25 204.25,-6.25 204.25,-62.5 204.25,-62.5"/>
<path fill="none" stroke="black" d="M204.25,-62.5C204.25,-59.05 183.35,-56.25 157.62,-56.25 131.9,-56.25 111,-59.05 111,-62.5"/>
<text text-anchor="start" x="132.12" y="-43.08" font-family="Garmond" font-size="14.00">Property</text>
<text text-anchor="start" x="126.5" y="-29.08" font-family="Garmond" font-size="14.00">Transform</text>
<text text-anchor="start" x="119" y="-15.08" font-family="Garmond" font-size="14.00">Training Set</text>
<text text-anchor="start" x="191.75" y="-15.08" font-family="Garmond" baseline-shift="sub" font-size="10.00">2</text>
</g>
<!-- trans_2&#45;&gt;td_2 -->
<g id="edge7" class="edge">
<title>trans_2&#45;&gt;td_2</title>
<path fill="none" stroke="black" d="M160.79,-105.59C160.42,-97.44 160.04,-88.84 159.66,-80.54"/>
<polygon fill="black" stroke="black" points="163.16,-80.46 159.21,-70.63 156.17,-80.77 163.16,-80.46"/>
</g>
<!-- td_3 -->
<g id="node9" class="node">
<title>td_3</title>
<path fill="#ffb366" stroke="black" d="M315.25,-62.5C315.25,-65.95 294.35,-68.75 268.62,-68.75 242.9,-68.75 222,-65.95 222,-62.5 222,-62.5 222,-6.25 222,-6.25 222,-2.8 242.9,0 268.62,0 294.35,0 315.25,-2.8 315.25,-6.25 315.25,-6.25 315.25,-62.5 315.25,-62.5"/>
<path fill="none" stroke="black" d="M315.25,-62.5C315.25,-59.05 294.35,-56.25 268.62,-56.25 242.9,-56.25 222,-59.05 222,-62.5"/>
<text text-anchor="start" x="243.12" y="-43.08" font-family="Garmond" font-size="14.00">Property</text>
<text text-anchor="start" x="237.5" y="-29.08" font-family="Garmond" font-size="14.00">Transform</text>
<text text-anchor="start" x="230" y="-15.08" font-family="Garmond" font-size="14.00">Training Set</text>
<text text-anchor="start" x="302.75" y="-15.08" font-family="Garmond" baseline-shift="sub" font-size="10.00">3</text>
</g>
<!-- trans_3&#45;&gt;td_3 -->
<g id="edge8" class="edge">
<title>trans_3&#45;&gt;td_3</title>
<path fill="none" stroke="black" d="M268.62,-105.59C268.62,-97.44 268.62,-88.84 268.62,-80.54"/>
<polygon fill="black" stroke="black" points="272.13,-80.63 268.63,-70.63 265.13,-80.63 272.13,-80.63"/>
</g>
<!-- td_4 -->
<g id="node10" class="node">
<title>td_4</title>
<path fill="#ffb366" stroke="black" d="M426.25,-62.5C426.25,-65.95 405.35,-68.75 379.62,-68.75 353.9,-68.75 333,-65.95 333,-62.5 333,-62.5 333,-6.25 333,-6.25 333,-2.8 353.9,0 379.62,0 405.35,0 426.25,-2.8 426.25,-6.25 426.25,-6.25 426.25,-62.5 426.25,-62.5"/>
<path fill="none" stroke="black" d="M426.25,-62.5C426.25,-59.05 405.35,-56.25 379.62,-56.25 353.9,-56.25 333,-59.05 333,-62.5"/>
<text text-anchor="start" x="354.12" y="-43.08" font-family="Garmond" font-size="14.00">Property</text>
<text text-anchor="start" x="348.5" y="-29.08" font-family="Garmond" font-size="14.00">Transform</text>
<text text-anchor="start" x="341" y="-15.08" font-family="Garmond" font-size="14.00">Training Set</text>
<text text-anchor="start" x="413.75" y="-15.08" font-family="Garmond" baseline-shift="sub" font-size="10.00">4</text>
</g>
<!-- trans_4&#45;&gt;td_4 -->
<g id="edge9" class="edge">
<title>trans_4&#45;&gt;td_4</title>
<path fill="none" stroke="black" d="M376.46,-105.59C376.83,-97.44 377.21,-88.84 377.59,-80.54"/>
<polygon fill="black" stroke="black" points="381.08,-80.77 378.04,-70.63 374.09,-80.46 381.08,-80.77"/>
</g>
<!-- td_n -->
<g id="node11" class="node">
<title>td_n</title>
<path fill="#ffb366" stroke="black" d="M539.38,-62.5C539.38,-65.95 517.97,-68.75 491.62,-68.75 465.28,-68.75 443.88,-65.95 443.88,-62.5 443.88,-62.5 443.88,-6.25 443.88,-6.25 443.88,-2.8 465.28,0 491.62,0 517.97,0 539.38,-2.8 539.38,-6.25 539.38,-6.25 539.38,-62.5 539.38,-62.5"/>
<path fill="none" stroke="black" d="M539.38,-62.5C539.38,-59.05 517.97,-56.25 491.62,-56.25 465.28,-56.25 443.88,-59.05 443.88,-62.5"/>
<text text-anchor="start" x="466.12" y="-43.08" font-family="Garmond" font-size="14.00">Property</text>
<text text-anchor="start" x="460.5" y="-29.08" font-family="Garmond" font-size="14.00">Transform</text>
<text text-anchor="start" x="451.88" y="-15.08" font-family="Garmond" font-size="14.00">Training Set</text>
<text text-anchor="start" x="524.62" y="-15.08" font-family="Garmond" baseline-shift="sub" font-size="10.00">m</text>
</g>
<!-- trans_n&#45;&gt;td_n -->
<g id="edge10" class="edge">
<title>trans_n&#45;&gt;td_n</title>
<path fill="none" stroke="black" d="M486.65,-104.33C487.21,-96.5 487.81,-88.29 488.38,-80.38"/>
<polygon fill="black" stroke="black" points="491.86,-80.8 489.09,-70.58 484.87,-80.3 491.86,-80.8"/>
</g>
</g>
</svg>
