<?xml version="1.0" encoding="UTF-8" standalone="no"?>
<!DOCTYPE svg PUBLIC "-//W3C//DTD SVG 1.1//EN"
 "http://www.w3.org/Graphics/SVG/1.1/DTD/svg11.dtd">
<!-- Generated by graphviz version 12.2.1 (20241206.2353)
 -->
<!-- Title: D Pages: 1 -->
<svg width="1501pt" height="1022pt"
 viewBox="0.00 0.00 1501.16 1022.24" xmlns="http://www.w3.org/2000/svg" xmlns:xlink="http://www.w3.org/1999/xlink">
<g id="graph0" class="graph" transform="scale(1 1) rotate(0) translate(4 1018.24)">
<title>D</title>
<polygon fill="white" stroke="none" points="-4,4 -4,-1018.24 1497.16,-1018.24 1497.16,4 -4,4"/>
<!-- input -->
<g id="node1" class="node">
<title>input</title>
<ellipse fill="#dae8fc" stroke="black" stroke-width="2" cx="82.38" cy="-483.11" rx="82.38" ry="45.96"/>
<text text-anchor="middle" x="82.38" y="-485.01" font-family="Garmond" font-size="28.00">Training</text>
<text text-anchor="middle" x="82.38" y="-456.51" font-family="Garmond" font-size="28.00">Data</text>
</g>
<!-- trans_1 -->
<g id="node2" class="node">
<title>trans_1</title>
<polygon fill="#d5e8d4" stroke="black" stroke-width="2" points="353.88,-1014.24 203.63,-1014.24 203.63,-863.99 353.88,-863.99 353.88,-1014.24"/>
<text text-anchor="start" x="222.13" y="-941.51" font-family="Garmond" font-size="28.00">Property</text>
<text text-anchor="start" x="327.88" y="-941.51" font-family="Garmond" baseline-shift="sub" font-size="16.00">1</text>
<text text-anchor="start" x="211.63" y="-913.51" font-family="Garmond" font-size="28.00">Transform</text>
<text text-anchor="start" x="338.38" y="-913.51" font-family="Garmond" baseline-shift="sub" font-size="16.00">1</text>
</g>
<!-- input&#45;&gt;trans_1 -->
<g id="edge1" class="edge">
<title>input&#45;&gt;trans_1</title>
<path fill="none" stroke="black" stroke-width="2" d="M91.57,-529.78C105.37,-600.56 137.6,-738.06 200.22,-851.73"/>
<polygon fill="black" stroke="black" stroke-width="2" points="197.13,-853.37 205.09,-860.36 203.23,-849.93 197.13,-853.37"/>
</g>
<!-- trans_2 -->
<g id="node3" class="node">
<title>trans_2</title>
<polygon fill="#d5e8d4" stroke="black" stroke-width="2" points="353.88,-846.24 203.63,-846.24 203.63,-695.99 353.88,-695.99 353.88,-846.24"/>
<text text-anchor="start" x="222.13" y="-773.51" font-family="Garmond" font-size="28.00">Property</text>
<text text-anchor="start" x="327.88" y="-773.51" font-family="Garmond" baseline-shift="sub" font-size="16.00">1</text>
<text text-anchor="start" x="211.63" y="-745.51" font-family="Garmond" font-size="28.00">Transform</text>
<text text-anchor="start" x="338.38" y="-745.51" font-family="Garmond" baseline-shift="sub" font-size="16.00">2</text>
</g>
<!-- input&#45;&gt;trans_2 -->
<g id="edge2" class="edge">
<title>input&#45;&gt;trans_2</title>
<path fill="none" stroke="black" stroke-width="2" d="M105.79,-527.75C126.66,-567.82 159.82,-627.9 200.47,-684.99"/>
<polygon fill="black" stroke="black" stroke-width="2" points="197.41,-686.73 206.1,-692.78 203.08,-682.63 197.41,-686.73"/>
</g>
<!-- trans_3 -->
<g id="node4" class="node">
<title>trans_3</title>
<polygon fill="#d5e8d4" stroke="black" stroke-width="2" points="353.88,-678.24 203.63,-678.24 203.63,-527.99 353.88,-527.99 353.88,-678.24"/>
<text text-anchor="start" x="222.13" y="-605.51" font-family="Garmond" font-size="28.00">Property</text>
<text text-anchor="start" x="327.88" y="-605.51" font-family="Garmond" baseline-shift="sub" font-size="16.00">2</text>
<text text-anchor="start" x="211.63" y="-577.51" font-family="Garmond" font-size="28.00">Transform</text>
<text text-anchor="start" x="338.38" y="-577.51" font-family="Garmond" baseline-shift="sub" font-size="16.00">3</text>
</g>
<!-- input&#45;&gt;trans_3 -->
<g id="edge3" class="edge">
<title>input&#45;&gt;trans_3</title>
<path fill="none" stroke="black" stroke-width="2" d="M139.08,-517.5C155.52,-527.65 173.92,-539.01 191.8,-550.05"/>
<polygon fill="black" stroke="black" stroke-width="2" points="189.92,-553 200.27,-555.28 193.6,-547.04 189.92,-553"/>
</g>
<!-- trans_4 -->
<g id="node5" class="node">
<title>trans_4</title>
<polygon fill="#d5e8d4" stroke="black" stroke-width="2" points="353.88,-510.24 203.63,-510.24 203.63,-359.99 353.88,-359.99 353.88,-510.24"/>
<text text-anchor="start" x="222.13" y="-437.51" font-family="Garmond" font-size="28.00">Property</text>
<text text-anchor="start" x="327.88" y="-437.51" font-family="Garmond" baseline-shift="sub" font-size="16.00">3</text>
<text text-anchor="start" x="211.63" y="-409.51" font-family="Garmond" font-size="28.00">Transform</text>
<text text-anchor="start" x="338.38" y="-409.51" font-family="Garmond" baseline-shift="sub" font-size="16.00">4</text>
</g>
<!-- input&#45;&gt;trans_4 -->
<g id="edge4" class="edge">
<title>input&#45;&gt;trans_4</title>
<path fill="none" stroke="black" stroke-width="2" d="M158.81,-464.49C169.05,-461.96 179.63,-459.35 190.07,-456.77"/>
<polygon fill="black" stroke="black" stroke-width="2" points="190.88,-460.17 199.75,-454.38 189.2,-453.38 190.88,-460.17"/>
</g>
<!-- trans_n -->
<g id="node6" class="node">
<title>trans_n</title>
<polygon fill="#d5e8d4" stroke="black" stroke-width="2" points="355.76,-342.11 201.76,-342.11 201.76,-188.11 355.76,-188.11 355.76,-342.11"/>
<text text-anchor="start" x="222.13" y="-267.51" font-family="Garmond" font-size="28.00">Property</text>
<text text-anchor="start" x="327.88" y="-267.51" font-family="Garmond" baseline-shift="sub" font-size="16.00">n</text>
<text text-anchor="start" x="209.76" y="-239.51" font-family="Garmond" font-size="28.00">Transform</text>
<text text-anchor="start" x="336.51" y="-239.51" font-family="Garmond" baseline-shift="sub" font-size="16.00">m</text>
</g>
<!-- input&#45;&gt;trans_n -->
<g id="edge5" class="edge">
<title>input&#45;&gt;trans_n</title>
<path fill="none" stroke="black" stroke-width="2" d="M120.4,-441.6C142.86,-416.41 172.39,-383.29 199.79,-352.56"/>
<polygon fill="black" stroke="black" stroke-width="2" points="202.16,-355.16 206.2,-345.36 196.93,-350.5 202.16,-355.16"/>
</g>
<!-- kb -->
<g id="node17" class="node">
<title>kb</title>
<path fill="#f8cecc" stroke="black" stroke-width="2" d="M1186.91,-524.83C1186.91,-535.83 1134.92,-544.77 1070.91,-544.77 1006.9,-544.77 954.91,-535.83 954.91,-524.83 954.91,-524.83 954.91,-345.4 954.91,-345.4 954.91,-334.39 1006.9,-325.46 1070.91,-325.46 1134.92,-325.46 1186.91,-334.39 1186.91,-345.4 1186.91,-345.4 1186.91,-524.83 1186.91,-524.83"/>
<path fill="none" stroke="black" stroke-width="2" d="M1186.91,-524.83C1186.91,-513.83 1134.92,-504.9 1070.91,-504.9 1006.9,-504.9 954.91,-513.83 954.91,-524.83"/>
<text text-anchor="middle" x="1070.91" y="-484.26" font-family="Garmond" font-size="28.00"> </text>
<text text-anchor="middle" x="1070.91" y="-422.76" font-family="Garmond" font-size="28.00"> Knowledgebase </text>
<text text-anchor="middle" x="1070.91" y="-361.26" font-family="Garmond" font-size="28.00"> &#160;</text>
</g>
<!-- input&#45;&gt;kb -->
<g id="edge16" class="edge">
<title>input&#45;&gt;kb</title>
<path fill="none" stroke="black" stroke-width="2" d="M88.26,-436.46C97.81,-369.42 125.26,-246.51 201.76,-179.11 227.88,-156.1 242.94,-160.11 277.76,-160.11 277.76,-160.11 277.76,-160.11 720.08,-160.11 828.21,-160.11 922.67,-242.32 986.09,-316.84"/>
<polygon fill="black" stroke="black" stroke-width="2" points="983.4,-319.08 992.5,-324.5 988.77,-314.58 983.4,-319.08"/>
<text text-anchor="middle" x="481.38" y="-161.31" font-family="Times,serif" font-size="24.00">Labels</text>
</g>
<!-- td_1 -->
<g id="node7" class="node">
<title>td_1</title>
<path fill="#ffb366" stroke="black" stroke-width="2" d="M568.13,-946.86C568.13,-953.21 529.25,-958.36 481.38,-958.36 433.51,-958.36 394.63,-953.21 394.63,-946.86 394.63,-946.86 394.63,-843.36 394.63,-843.36 394.63,-837.02 433.51,-831.86 481.38,-831.86 529.25,-831.86 568.13,-837.02 568.13,-843.36 568.13,-843.36 568.13,-946.86 568.13,-946.86"/>
<path fill="none" stroke="black" stroke-width="2" d="M568.13,-946.86C568.13,-940.52 529.25,-935.36 481.38,-935.36 433.51,-935.36 394.63,-940.52 394.63,-946.86"/>
<text text-anchor="start" x="428.51" y="-911.51" font-family="Garmond" font-size="28.00">Property</text>
<text text-anchor="start" x="418.01" y="-883.51" font-family="Garmond" font-size="28.00">Transform</text>
<text text-anchor="start" x="402.63" y="-855.51" font-family="Garmond" font-size="28.00">Training Set</text>
<text text-anchor="start" x="552.63" y="-855.51" font-family="Garmond" baseline-shift="sub" font-size="16.00">1</text>
</g>
<!-- trans_1&#45;&gt;td_1 -->
<g id="edge6" class="edge">
<title>trans_1&#45;&gt;td_1</title>
<path fill="none" stroke="black" stroke-width="2" d="M354.75,-922.67C363.37,-920.78 372.26,-918.83 381.14,-916.88"/>
<polygon fill="black" stroke="black" stroke-width="2" points="381.68,-920.34 390.7,-914.78 380.18,-913.51 381.68,-920.34"/>
</g>
<!-- td_2 -->
<g id="node8" class="node">
<title>td_2</title>
<path fill="#ffb366" stroke="black" stroke-width="2" d="M568.13,-799.86C568.13,-806.21 529.25,-811.36 481.38,-811.36 433.51,-811.36 394.63,-806.21 394.63,-799.86 394.63,-799.86 394.63,-696.36 394.63,-696.36 394.63,-690.02 433.51,-684.86 481.38,-684.86 529.25,-684.86 568.13,-690.02 568.13,-696.36 568.13,-696.36 568.13,-799.86 568.13,-799.86"/>
<path fill="none" stroke="black" stroke-width="2" d="M568.13,-799.86C568.13,-793.52 529.25,-788.36 481.38,-788.36 433.51,-788.36 394.63,-793.52 394.63,-799.86"/>
<text text-anchor="start" x="428.51" y="-764.51" font-family="Garmond" font-size="28.00">Property</text>
<text text-anchor="start" x="418.01" y="-736.51" font-family="Garmond" font-size="28.00">Transform</text>
<text text-anchor="start" x="402.63" y="-708.51" font-family="Garmond" font-size="28.00">Training Set</text>
<text text-anchor="start" x="552.63" y="-708.51" font-family="Garmond" baseline-shift="sub" font-size="16.00">2</text>
</g>
<!-- trans_2&#45;&gt;td_2 -->
<g id="edge7" class="edge">
<title>trans_2&#45;&gt;td_2</title>
<path fill="none" stroke="black" stroke-width="2" d="M354.75,-762.52C363.27,-761.54 372.06,-760.53 380.84,-759.53"/>
<polygon fill="black" stroke="black" stroke-width="2" points="381.12,-763.02 390.65,-758.4 380.32,-756.06 381.12,-763.02"/>
</g>
<!-- td_3 -->
<g id="node9" class="node">
<title>td_3</title>
<path fill="#ffb366" stroke="black" stroke-width="2" d="M568.13,-649.86C568.13,-656.21 529.25,-661.36 481.38,-661.36 433.51,-661.36 394.63,-656.21 394.63,-649.86 394.63,-649.86 394.63,-546.36 394.63,-546.36 394.63,-540.02 433.51,-534.86 481.38,-534.86 529.25,-534.86 568.13,-540.02 568.13,-546.36 568.13,-546.36 568.13,-649.86 568.13,-649.86"/>
<path fill="none" stroke="black" stroke-width="2" d="M568.13,-649.86C568.13,-643.52 529.25,-638.36 481.38,-638.36 433.51,-638.36 394.63,-643.52 394.63,-649.86"/>
<text text-anchor="start" x="428.51" y="-614.51" font-family="Garmond" font-size="28.00">Property</text>
<text text-anchor="start" x="418.01" y="-586.51" font-family="Garmond" font-size="28.00">Transform</text>
<text text-anchor="start" x="402.63" y="-558.51" font-family="Garmond" font-size="28.00">Training Set</text>
<text text-anchor="start" x="552.63" y="-558.51" font-family="Garmond" baseline-shift="sub" font-size="16.00">3</text>
</g>
<!-- trans_3&#45;&gt;td_3 -->
<g id="edge8" class="edge">
<title>trans_3&#45;&gt;td_3</title>
<path fill="none" stroke="black" stroke-width="2" d="M354.75,-601.25C363.27,-601.03 372.06,-600.81 380.84,-600.6"/>
<polygon fill="black" stroke="black" stroke-width="2" points="380.72,-604.1 390.63,-600.35 380.55,-597.1 380.72,-604.1"/>
</g>
<!-- td_4 -->
<g id="node10" class="node">
<title>td_4</title>
<path fill="#ffb366" stroke="black" stroke-width="2" d="M568.13,-486.86C568.13,-493.21 529.25,-498.36 481.38,-498.36 433.51,-498.36 394.63,-493.21 394.63,-486.86 394.63,-486.86 394.63,-383.36 394.63,-383.36 394.63,-377.02 433.51,-371.86 481.38,-371.86 529.25,-371.86 568.13,-377.02 568.13,-383.36 568.13,-383.36 568.13,-486.86 568.13,-486.86"/>
<path fill="none" stroke="black" stroke-width="2" d="M568.13,-486.86C568.13,-480.52 529.25,-475.36 481.38,-475.36 433.51,-475.36 394.63,-480.52 394.63,-486.86"/>
<text text-anchor="start" x="428.51" y="-451.51" font-family="Garmond" font-size="28.00">Property</text>
<text text-anchor="start" x="418.01" y="-423.51" font-family="Garmond" font-size="28.00">Transform</text>
<text text-anchor="start" x="402.63" y="-395.51" font-family="Garmond" font-size="28.00">Training Set</text>
<text text-anchor="start" x="552.63" y="-395.51" font-family="Garmond" baseline-shift="sub" font-size="16.00">4</text>
</g>
<!-- trans_4&#45;&gt;td_4 -->
<g id="edge9" class="edge">
<title>trans_4&#45;&gt;td_4</title>
<path fill="none" stroke="black" stroke-width="2" d="M354.75,-435.11C363.27,-435.11 372.06,-435.11 380.84,-435.11"/>
<polygon fill="black" stroke="black" stroke-width="2" points="380.63,-438.61 390.63,-435.11 380.63,-431.61 380.63,-438.61"/>
</g>
<!-- td_n -->
<g id="node11" class="node">
<title>td_n</title>
<path fill="#ffb366" stroke="black" stroke-width="2" d="M570.01,-323.86C570.01,-330.21 530.28,-335.36 481.38,-335.36 432.48,-335.36 392.76,-330.21 392.76,-323.86 392.76,-323.86 392.76,-220.36 392.76,-220.36 392.76,-214.02 432.48,-208.86 481.38,-208.86 530.28,-208.86 570.01,-214.02 570.01,-220.36 570.01,-220.36 570.01,-323.86 570.01,-323.86"/>
<path fill="none" stroke="black" stroke-width="2" d="M570.01,-323.86C570.01,-317.52 530.28,-312.36 481.38,-312.36 432.48,-312.36 392.76,-317.52 392.76,-323.86"/>
<text text-anchor="start" x="428.51" y="-288.51" font-family="Garmond" font-size="28.00">Property</text>
<text text-anchor="start" x="418.01" y="-260.51" font-family="Garmond" font-size="28.00">Transform</text>
<text text-anchor="start" x="400.76" y="-232.51" font-family="Garmond" font-size="28.00">Training Set</text>
<text text-anchor="start" x="550.76" y="-232.51" font-family="Garmond" baseline-shift="sub" font-size="16.00">m</text>
</g>
<!-- trans_n&#45;&gt;td_n -->
<g id="edge10" class="edge">
<title>trans_n&#45;&gt;td_n</title>
<path fill="none" stroke="black" stroke-width="2" d="M356.75,-267.8C364.02,-268.05 371.47,-268.31 378.92,-268.57"/>
<polygon fill="black" stroke="black" stroke-width="2" points="378.73,-272.07 388.85,-268.92 378.98,-265.07 378.73,-272.07"/>
</g>
<!-- ml_1 -->
<g id="node12" class="node">
<title>ml_1</title>
<polygon fill="#ffe6cc" stroke="black" stroke-width="2" points="719.08,-954.11 619.08,-890.11 719.08,-826.11 819.08,-890.11 719.08,-954.11"/>
<text text-anchor="start" x="699.58" y="-892.51" font-family="Garmond" font-size="28.00">ML</text>
<text text-anchor="start" x="677.08" y="-864.51" font-family="Garmond" font-size="28.00">Model</text>
<text text-anchor="start" x="753.58" y="-864.51" font-family="Garmond" baseline-shift="sub" font-size="16.00">1</text>
</g>
<!-- td_1&#45;&gt;ml_1 -->
<g id="edge11" class="edge">
<title>td_1&#45;&gt;ml_1</title>
<path fill="none" stroke="black" stroke-width="2" d="M568.81,-893.28C581.42,-893.01 594.55,-892.73 607.56,-892.46"/>
<polygon fill="black" stroke="black" stroke-width="2" points="607.56,-895.96 617.49,-892.25 607.41,-888.96 607.56,-895.96"/>
</g>
<!-- ml_2 -->
<g id="node13" class="node">
<title>ml_2</title>
<polygon fill="#ffe6cc" stroke="black" stroke-width="2" points="719.08,-806.11 619.08,-742.11 719.08,-678.11 819.08,-742.11 719.08,-806.11"/>
<text text-anchor="start" x="699.58" y="-744.51" font-family="Garmond" font-size="28.00">ML</text>
<text text-anchor="start" x="677.08" y="-716.51" font-family="Garmond" font-size="28.00">Model</text>
<text text-anchor="start" x="753.58" y="-716.51" font-family="Garmond" baseline-shift="sub" font-size="16.00">2</text>
</g>
<!-- td_2&#45;&gt;ml_2 -->
<g id="edge12" class="edge">
<title>td_2&#45;&gt;ml_2</title>
<path fill="none" stroke="black" stroke-width="2" d="M568.81,-745.91C581.75,-745.58 595.24,-745.24 608.59,-744.9"/>
<polygon fill="black" stroke="black" stroke-width="2" points="608.38,-748.41 618.29,-744.65 608.2,-741.41 608.38,-748.41"/>
</g>
<!-- ml_3 -->
<g id="node14" class="node">
<title>ml_3</title>
<polygon fill="#ffe6cc" stroke="black" stroke-width="2" points="719.08,-655.11 619.08,-591.11 719.08,-527.11 819.08,-591.11 719.08,-655.11"/>
<text text-anchor="start" x="699.58" y="-593.51" font-family="Garmond" font-size="28.00">ML</text>
<text text-anchor="start" x="677.08" y="-565.51" font-family="Garmond" font-size="28.00">Model</text>
<text text-anchor="start" x="753.58" y="-565.51" font-family="Garmond" baseline-shift="sub" font-size="16.00">3</text>
</g>
<!-- td_3&#45;&gt;ml_3 -->
<g id="edge13" class="edge">
<title>td_3&#45;&gt;ml_3</title>
<path fill="none" stroke="black" stroke-width="2" d="M568.81,-595.55C581.85,-595.16 595.45,-594.76 608.89,-594.36"/>
<polygon fill="black" stroke="black" stroke-width="2" points="608.8,-597.86 618.69,-594.07 608.59,-590.86 608.8,-597.86"/>
</g>
<!-- ml_4 -->
<g id="node15" class="node">
<title>ml_4</title>
<polygon fill="#ffe6cc" stroke="black" stroke-width="2" points="719.08,-499.11 619.08,-435.11 719.08,-371.11 819.08,-435.11 719.08,-499.11"/>
<text text-anchor="start" x="699.58" y="-437.51" font-family="Garmond" font-size="28.00">ML</text>
<text text-anchor="start" x="677.08" y="-409.51" font-family="Garmond" font-size="28.00">Model</text>
<text text-anchor="start" x="753.58" y="-409.51" font-family="Garmond" baseline-shift="sub" font-size="16.00">4</text>
</g>
<!-- td_4&#45;&gt;ml_4 -->
<g id="edge14" class="edge">
<title>td_4&#45;&gt;ml_4</title>
<path fill="none" stroke="black" stroke-width="2" d="M568.81,-435.11C580.39,-435.11 592.4,-435.11 604.36,-435.11"/>
<polygon fill="black" stroke="black" stroke-width="2" points="604.26,-438.61 614.26,-435.11 604.26,-431.61 604.26,-438.61"/>
</g>
<!-- ml_n -->
<g id="node16" class="node">
<title>ml_n</title>
<polygon fill="#ffe6cc" stroke="black" stroke-width="2" points="719.08,-351.11 615.33,-287.11 719.08,-223.11 822.83,-287.11 719.08,-351.11"/>
<text text-anchor="start" x="699.58" y="-289.51" font-family="Garmond" font-size="28.00">ML</text>
<text text-anchor="start" x="675.21" y="-261.51" font-family="Garmond" font-size="28.00">Model</text>
<text text-anchor="start" x="751.71" y="-261.51" font-family="Garmond" baseline-shift="sub" font-size="16.00">m</text>
</g>
<!-- td_n&#45;&gt;ml_n -->
<g id="edge15" class="edge">
<title>td_n&#45;&gt;ml_n</title>
<path fill="none" stroke="black" stroke-width="2" d="M570.82,-277.74C583.79,-278.57 597.26,-279.43 610.56,-280.27"/>
<polygon fill="black" stroke="black" stroke-width="2" points="610.01,-283.74 620.21,-280.89 610.46,-276.76 610.01,-283.74"/>
</g>
<!-- ml_1&#45;&gt;kb -->
<g id="edge17" class="edge">
<title>ml_1&#45;&gt;kb</title>
<path fill="none" stroke="black" stroke-width="2" d="M772.77,-859.62C792.18,-847.12 813.68,-831.69 831.16,-815.11 908.91,-741.38 972.03,-637.2 1013.8,-556.56"/>
<polygon fill="black" stroke="black" stroke-width="2" points="1016.72,-558.53 1018.17,-548.04 1010.49,-555.34 1016.72,-558.53"/>
<text text-anchor="middle" x="893.03" y="-790.55" font-family="Times,serif" font-size="24.00">Opinions</text>
</g>
<!-- ml_2&#45;&gt;kb -->
<g id="edge18" class="edge">
<title>ml_2&#45;&gt;kb</title>
<path fill="none" stroke="black" stroke-width="2" d="M769.93,-709.5C789.51,-696.08 811.87,-679.98 831.16,-664.11 874.87,-628.16 920.31,-585.95 959.66,-547.63"/>
<polygon fill="black" stroke="black" stroke-width="2" points="961.62,-550.62 966.32,-541.12 956.72,-545.61 961.62,-550.62"/>
<text text-anchor="middle" x="893.03" y="-648.08" font-family="Times,serif" font-size="24.00">Opinions</text>
</g>
<!-- ml_3&#45;&gt;kb -->
<g id="edge19" class="edge">
<title>ml_3&#45;&gt;kb</title>
<path fill="none" stroke="black" stroke-width="2" d="M779.43,-564.65C823.92,-544.81 886.48,-516.91 942.15,-492.09"/>
<polygon fill="black" stroke="black" stroke-width="2" points="943.44,-495.34 951.15,-488.07 940.59,-488.95 943.44,-495.34"/>
<text text-anchor="middle" x="893.03" y="-532.87" font-family="Times,serif" font-size="24.00">Opinions</text>
</g>
<!-- ml_4&#45;&gt;kb -->
<g id="edge20" class="edge">
<title>ml_4&#45;&gt;kb</title>
<path fill="none" stroke="black" stroke-width="2" d="M820.8,-435.11C858.41,-435.11 901.64,-435.11 941.41,-435.11"/>
<polygon fill="black" stroke="black" stroke-width="2" points="941.17,-438.61 951.17,-435.11 941.17,-431.61 941.17,-438.61"/>
<text text-anchor="middle" x="893.03" y="-436.31" font-family="Times,serif" font-size="24.00">Opinions</text>
</g>
<!-- ml_n&#45;&gt;kb -->
<g id="edge21" class="edge">
<title>ml_n&#45;&gt;kb</title>
<path fill="none" stroke="black" stroke-width="2" d="M781.82,-313.23C826.13,-331.98 887.43,-357.91 942.1,-381.04"/>
<polygon fill="black" stroke="black" stroke-width="2" points="940.66,-384.23 951.23,-384.9 943.38,-377.79 940.66,-384.23"/>
<text text-anchor="middle" x="893.03" y="-379.92" font-family="Times,serif" font-size="24.00">Opinions</text>
</g>
<!-- Processing -->
<g id="node18" class="node">
<title>Processing</title>
<polygon fill="#e1d5e7" stroke="black" stroke-width="2" points="1493.16,-481.86 1322.66,-481.86 1322.66,-388.36 1493.16,-388.36 1493.16,-481.86"/>
<text text-anchor="middle" x="1407.91" y="-451.26" font-family="Garmond" font-size="28.00"> </text>
<text text-anchor="middle" x="1407.91" y="-422.76" font-family="Garmond" font-size="28.00"> Processing </text>
<text text-anchor="middle" x="1407.91" y="-394.26" font-family="Garmond" font-size="28.00"> </text>
</g>
<!-- kb&#45;&gt;Processing -->
<g id="edge22" class="edge">
<title>kb&#45;&gt;Processing</title>
<path fill="none" stroke="black" stroke-width="2" d="M1187.67,-480.44C1193.45,-481.86 1199.22,-483.1 1204.91,-484.11 1248.55,-491.9 1261.43,-493.94 1304.66,-484.11 1306.25,-483.75 1307.85,-483.36 1309.45,-482.95"/>
<polygon fill="black" stroke="black" stroke-width="2" points="1310.23,-486.37 1318.82,-480.16 1308.23,-479.66 1310.23,-486.37"/>
</g>
<!-- Processing&#45;&gt;kb -->
<g id="edge23" class="edge">
<title>Processing&#45;&gt;kb</title>
<path fill="none" stroke="black" stroke-width="2" d="M1321.83,-432.43C1316.02,-432.3 1310.25,-432.2 1304.66,-432.11 1260.33,-431.46 1249.24,-431.61 1204.91,-432.11 1203.41,-432.13 1201.89,-432.15 1200.37,-432.17"/>
<polygon fill="black" stroke="black" stroke-width="2" points="1200.58,-428.67 1190.63,-432.31 1200.68,-435.66 1200.58,-428.67"/>
<text text-anchor="middle" x="1254.78" y="-457.31" font-family="Times,serif" font-size="24.00">Confusion</text>
<text text-anchor="middle" x="1254.78" y="-433.31" font-family="Times,serif" font-size="24.00">Matrices</text>
</g>
<!-- Processing&#45;&gt;kb -->
<g id="edge24" class="edge">
<title>Processing&#45;&gt;kb</title>
<path fill="none" stroke="black" stroke-width="2" d="M1321.69,-407.26C1315.97,-406.02 1310.26,-404.94 1304.66,-404.11 1260.8,-397.61 1248.95,-399.05 1204.91,-404.11 1203.41,-404.29 1201.9,-404.47 1200.38,-404.66"/>
<polygon fill="black" stroke="black" stroke-width="2" points="1200.09,-401.17 1190.69,-406.05 1201.08,-408.1 1200.09,-401.17"/>
<text text-anchor="middle" x="1254.78" y="-405.31" font-family="Times,serif" font-size="24.00">Metrics</text>
</g>
<!-- Properties -->
<g id="node19" class="node">
<title>Properties</title>
<ellipse fill="#f8cef4" stroke="black" stroke-width="2" cx="719.08" cy="-66.11" rx="112.08" ry="66.11"/>
<text text-anchor="middle" x="719.08" y="-82.26" font-family="Garmond" font-size="28.00"> </text>
<text text-anchor="middle" x="719.08" y="-53.76" font-family="Garmond" font-size="28.00"> Properties </text>
<text text-anchor="middle" x="719.08" y="-25.26" font-family="Garmond" font-size="28.00"> </text>
</g>
<!-- Properties&#45;&gt;kb -->
<g id="edge25" class="edge">
<title>Properties&#45;&gt;kb</title>
<path fill="none" stroke="black" stroke-width="2" d="M826.23,-87.26C864.75,-99.26 906.28,-117.78 936.91,-146.11 984.79,-190.41 1016.8,-255.34 1037.39,-312.44"/>
<polygon fill="black" stroke="black" stroke-width="2" points="1034,-313.36 1040.61,-321.64 1040.61,-311.04 1034,-313.36"/>
</g>
</g>
</svg>
