<?xml version="1.0" encoding="UTF-8" standalone="no"?>
<!DOCTYPE svg PUBLIC "-//W3C//DTD SVG 1.1//EN"
 "http://www.w3.org/Graphics/SVG/1.1/DTD/svg11.dtd">
<!-- Generated by graphviz version 12.2.1 (20241206.2353)
 -->
<!-- Title: D Pages: 1 -->
<svg width="572pt" height="300pt"
 viewBox="0.00 0.00 571.75 300.00" xmlns="http://www.w3.org/2000/svg" xmlns:xlink="http://www.w3.org/1999/xlink">
<g id="graph0" class="graph" transform="scale(1 1) rotate(0) translate(4 296)">
<title>D</title>
<polygon fill="white" stroke="none" points="-4,4 -4,-296 567.75,-296 567.75,4 -4,4"/>
<!-- o1 -->
<g id="node1" class="node">
<title>o1</title>
<text text-anchor="start" x="8" y="-262.4" font-family="Garmond" font-size="28.00">Opinion</text>
<text text-anchor="start" x="104.75" y="-262.4" font-family="Garmond" baseline-shift="sub" font-size="28.00">1</text>
</g>
<!-- voter -->
<g id="node4" class="node">
<title>voter</title>
<polygon fill="#e1d5e7" stroke="black" stroke-width="2" points="213.3,-109.5 308.2,-109.5 342,-182.5 179.5,-182.5 213.3,-109.5"/>
<text text-anchor="middle" x="260.75" y="-133.65" font-family="Garmond" font-size="28.00">Voter</text>
</g>
<!-- o1&#45;&gt;voter -->
<g id="edge1" class="edge">
<title>o1&#45;&gt;voter</title>
<path fill="none" stroke="black" stroke-width="2" d="M89.87,-255.53C116.26,-238.76 157.45,-212.61 192.77,-190.17"/>
<polygon fill="black" stroke="black" stroke-width="2" points="194.4,-193.28 200.97,-184.97 190.65,-187.37 194.4,-193.28"/>
</g>
<!-- o2 -->
<g id="node2" class="node">
<title>o2</title>
<text text-anchor="start" x="206" y="-262.4" font-family="Garmond" font-size="28.00">Opinion</text>
<text text-anchor="start" x="302.75" y="-262.4" font-family="Garmond" baseline-shift="sub" font-size="28.00">2</text>
</g>
<!-- o2&#45;&gt;voter -->
<g id="edge2" class="edge">
<title>o2&#45;&gt;voter</title>
<path fill="none" stroke="black" stroke-width="2" d="M260.75,-255.53C260.75,-240.28 260.75,-217.27 260.75,-196.35"/>
<polygon fill="black" stroke="black" stroke-width="2" points="264.25,-196.37 260.75,-186.37 257.25,-196.37 264.25,-196.37"/>
</g>
<!-- o3 -->
<g id="node3" class="node">
<title>o3</title>
<text text-anchor="start" x="404" y="-262.4" font-family="Garmond" font-size="28.00">Opinion</text>
<text text-anchor="start" x="500.75" y="-262.4" font-family="Garmond" baseline-shift="sub" font-size="28.00">n</text>
</g>
<!-- o3&#45;&gt;voter -->
<g id="edge3" class="edge">
<title>o3&#45;&gt;voter</title>
<path fill="none" stroke="black" stroke-width="2" d="M431.63,-255.53C405.24,-238.76 364.05,-212.61 328.73,-190.17"/>
<polygon fill="black" stroke="black" stroke-width="2" points="330.85,-187.37 320.53,-184.97 327.1,-193.28 330.85,-187.37"/>
</g>
<!-- kb -->
<g id="node5" class="node">
<title>kb</title>
<path fill="#f8cecc" stroke="black" stroke-width="2" d="M563.75,-166.53C563.75,-169.05 551.65,-171.09 536.75,-171.09 521.85,-171.09 509.75,-169.05 509.75,-166.53 509.75,-166.53 509.75,-125.47 509.75,-125.47 509.75,-122.95 521.85,-120.91 536.75,-120.91 551.65,-120.91 563.75,-122.95 563.75,-125.47 563.75,-125.47 563.75,-166.53 563.75,-166.53"/>
<path fill="none" stroke="black" stroke-width="2" d="M563.75,-166.53C563.75,-164.01 551.65,-161.97 536.75,-161.97 521.85,-161.97 509.75,-164.01 509.75,-166.53"/>
<text text-anchor="middle" x="536.75" y="-133.65" font-family="Garmond" font-size="28.00">KB</text>
</g>
<!-- voter&#45;&gt;kb -->
<g id="edge5" class="edge">
<title>voter&#45;&gt;kb</title>
<path fill="none" stroke="black" stroke-width="2" d="M326.16,-146C378.89,-146 451.38,-146 496.1,-146"/>
<polygon fill="black" stroke="black" stroke-width="2" points="496,-149.5 506,-146 496,-142.5 496,-149.5"/>
<text text-anchor="middle" x="425.88" y="-150.2" font-family="Times,serif" font-size="24.00">get_E(j,c)</text>
</g>
<!-- out -->
<g id="node6" class="node">
<title>out</title>
<text text-anchor="middle" x="260.75" y="-5.9" font-family="Garmond" font-size="28.00">Decision</text>
</g>
<!-- voter&#45;&gt;out -->
<g id="edge4" class="edge">
<title>voter&#45;&gt;out</title>
<path fill="none" stroke="black" stroke-width="2" d="M260.75,-108.63C260.75,-89.76 260.75,-67 260.75,-49.17"/>
<polygon fill="black" stroke="black" stroke-width="2" points="264.25,-49.39 260.75,-39.39 257.25,-49.39 264.25,-49.39"/>
</g>
<!-- kb&#45;&gt;voter -->
<g id="edge6" class="edge">
<title>kb&#45;&gt;voter</title>
<path fill="none" stroke="black" stroke-width="2" d="M509.07,-134.64C493.06,-128.68 472.36,-122.01 453.25,-119 412.7,-112.61 367.21,-118.39 330.64,-126.21"/>
<polygon fill="black" stroke="black" stroke-width="2" points="330.04,-122.76 321.06,-128.38 331.58,-129.59 330.04,-122.76"/>
<text text-anchor="middle" x="425.88" y="-120.2" font-family="Times,serif" font-size="24.00">E(j,c)</text>
</g>
</g>
</svg>
